<svg style="position: absolute; width: 0; height: 0; overflow: hidden;" version="1.1" xmlns="http://www.w3.org/2000/svg" xmlns:xlink="http://www.w3.org/1999/xlink">
  <defs>
    <symbol id="icon-menu" viewBox="0 0 24 24">
      <path d="M3 18h18v-2H3v2zm0-5h18v-2H3v2zm0-7v2h18V6H3z"></path>
    </symbol>
    
    <symbol id="icon-facebook" viewBox="0 0 512 512">
      <path d="M211.9 197.4h-36.7v59.9h36.7V433.1h70.5V256.5h49.2l5.2-59.1h-54.4c0 0 0-22.1 0-33.7 0-13.9 2.8-19.5 16.3-19.5 10.9 0 38.2 0 38.2 0V82.9c0 0-40.2 0-48.8 0 -52.5 0-76.1 23.1-76.1 67.3C211.9 188.8 211.9 197.4 211.9 197.4z"></path>
    </symbol>

    <symbol id="icon-twitter" viewBox="0 0 512 512">
      <path d="M419.6 168.6c-11.7 5.2-24.2 8.7-37.4 10.2 13.4-8.1 23.8-20.8 28.6-36 -12.6 7.5-26.5 12.9-41.3 15.8 -11.9-12.6-28.8-20.6-47.5-20.6 -42 0-72.9 39.2-63.4 79.9 -54.1-2.7-102.1-28.6-134.2-68 -17 29.2-8.8 67.5 20.1 86.9 -10.7-0.3-20.7-3.3-29.5-8.1 -0.7 30.2 20.9 58.4 52.2 64.6 -9.2 2.5-19.2 3.1-29.4 1.1 8.3 25.9 32.3 44.7 60.8 45.2 -27.4 21.4-61.8 31-96.4 27 28.8 18.5 63 29.2 99.8 29.2 120.8 0 189.1-102.1 185-193.6C399.9 193.1 410.9 181.7 419.6 168.6z"></path>
    </symbol>

    <symbol id="icon-google" viewBox="0 0 512 512">
      <path d="M179.7 237.6L179.7 284.2 256.7 284.2C253.6 304.2 233.4 342.9 179.7 342.9 133.4 342.9 95.6 304.4 95.6 257 95.6 209.6 133.4 171.1 179.7 171.1 206.1 171.1 223.7 182.4 233.8 192.1L270.6 156.6C247 134.4 216.4 121 179.7 121 104.7 121 44 181.8 44 257 44 332.2 104.7 393 179.7 393 258 393 310 337.8 310 260.1 310 251.2 309 244.4 307.9 237.6L179.7 237.6 179.7 237.6ZM468 236.7L429.3 236.7 429.3 198 390.7 198 390.7 236.7 352 236.7 352 275.3 390.7 275.3 390.7 314 429.3 314 429.3 275.3 468 275.3"></path>
    </symbol>

    <symbol id="icon-linkedin" viewBox="0 0 512 512">
      <path d="M186.4 142.4c0 19-15.3 34.5-34.2 34.5 -18.9 0-34.2-15.4-34.2-34.5 0-19 15.3-34.5 34.2-34.5C171.1 107.9 186.4 123.4 186.4 142.4zM181.4 201.3h-57.8V388.1h57.8V201.3zM273.8 201.3h-55.4V388.1h55.4c0 0 0-69.3 0-98 0-26.3 12.1-41.9 35.2-41.9 21.3 0 31.5 15 31.5 41.9 0 26.9 0 98 0 98h57.5c0 0 0-68.2 0-118.3 0-50-28.3-74.2-68-74.2 -39.6 0-56.3 30.9-56.3 30.9v-25.2H273.8z"></path>
    </symbol>

    <symbol id="icon-pinterest" viewBox="-10 -10 80 80">
      <path xmlns="http://www.w3.org/2000/svg" d="M30.374,4.622c-13.586,0-20.437,9.74-20.437,17.864c0,4.918,1.862,9.293,5.855,10.922c0.655,0.27,1.242,0.01,1.432-0.715  c0.132-0.5,0.445-1.766,0.584-2.295c0.191-0.717,0.117-0.967-0.412-1.594c-1.151-1.357-1.888-3.115-1.888-5.607  c0-7.226,5.407-13.695,14.079-13.695c7.679,0,11.898,4.692,11.898,10.957c0,8.246-3.649,15.205-9.065,15.205  c-2.992,0-5.23-2.473-4.514-5.508c0.859-3.623,2.524-7.531,2.524-10.148c0-2.34-1.257-4.292-3.856-4.292  c-3.058,0-5.515,3.164-5.515,7.401c0,2.699,0.912,4.525,0.912,4.525s-3.129,13.26-3.678,15.582  c-1.092,4.625-0.164,10.293-0.085,10.865c0.046,0.34,0.482,0.422,0.68,0.166c0.281-0.369,3.925-4.865,5.162-9.359  c0.351-1.271,2.011-7.859,2.011-7.859c0.994,1.896,3.898,3.562,6.986,3.562c9.191,0,15.428-8.379,15.428-19.595  C48.476,12.521,41.292,4.622,30.374,4.622z"/>
    </symbol>
    
    <symbol id="icon-paypal" viewBox="0 0 320 100">
      <path d="M66.17 17.66C62.7 13.7 56.41 12 48.37 12H25.04a3.35 3.35 0 0 0-3.3 2.82l-9.71 61.61c-.2 1.22.74 2.32 1.97 2.32h14.41l3.62-22.95-.12.72a3.34 3.34 0 0 1 3.29-2.82h6.85c13.44 0 23.97-5.46 27.05-21.26.1-.47.17-.92.24-1.37.91-5.83 0-9.81-3.17-13.41" opacity=".7"/>
      <path d="M69.34 31.07c-.1.45-.15.9-.24 1.37-3.08 15.8-13.61 21.26-27.05 21.26H35.2a3.34 3.34 0 0 0-3.29 2.82l-3.5 22.23-1 6.3c-.16 1.06.66 2.03 1.73 2.03h12.15c1.43 0 2.66-1.05 2.88-2.47l.12-.62 2.29-14.5.15-.8a2.914 2.914 0 0 1 2.88-2.47h1.82c11.76 0 20.97-4.77 23.66-18.6 1.13-5.77.54-10.59-2.43-13.98-.9-1.03-2.02-1.87-3.32-2.57" opacity=".5"/>
      <path d="M240.7 31.9h-16.2c-1.1 0-2 .8-2.2 1.89l-6.5 41.3c-.1.81.5 1.55 1.3 1.55h8.3c.8 0 1.4-.56 1.6-1.32l1.8-11.71c.2-1.09 1.1-1.89 2.2-1.89h5.1c10.6 0 16.8-5.14 18.3-15.31.8-4.45.1-7.95-2-10.4-2.3-2.69-6.4-4.11-11.7-4.11m1.8 15.08c-.9 5.78-5.3 5.78-9.6 5.78h-2.4l1.7-10.79c.1-.65.7-1.13 1.3-1.13h1.2c2.9 0 5.6 0 7 1.65.9.99 1.1 2.46.8 4.49M125.8 31.9h-16.1c-1.1 0-2.1.8-2.2 1.89l-6.6 41.3c-.1.81.5 1.55 1.4 1.55h7.7c1.1 0 2-.8 2.2-1.89l1.7-11.14c.2-1.09 1.1-1.89 2.2-1.89h5.1c10.6 0 16.8-5.14 18.4-15.31.7-4.45 0-7.95-2.1-10.4-2.3-2.69-6.3-4.11-11.7-4.11m1.8 15.08c-.9 5.78-5.3 5.78-9.5 5.78h-2.5l1.7-10.79c.1-.65.7-1.13 1.4-1.13h1.1c2.9 0 5.6 0 7 1.65.9.99 1.1 2.46.8 4.49m46.3-.18h-7.7c-.7 0-1.2.48-1.3 1.13l-.4 2.16-.5-.78c-1.7-2.43-5.4-3.24-9.1-3.24-8.5 0-15.8 6.46-17.2 15.51-.8 4.52.3 8.84 2.8 11.85 2.4 2.77 5.8 3.93 9.8 3.93 6.8 0 10.6-4.42 10.6-4.42l-.3 2.15c-.1.81.5 1.55 1.3 1.55h7c1.1 0 2-.8 2.2-1.89l4.1-26.4c.2-.82-.5-1.55-1.3-1.55m-10.7 15.01c-.8 4.41-4.3 7.37-8.7 7.37-2.3 0-4.1-.73-5.2-2.09-1.2-1.35-1.6-3.27-1.2-5.41.7-4.37 4.2-7.43 8.6-7.43 2.2 0 4 .73 5.2 2.11 1.1 1.38 1.6 3.32 1.3 5.45M288.8 46.8h-7.7c-.7 0-1.2.48-1.3 1.13l-.4 2.16-.5-.78c-1.7-2.43-5.4-3.24-9.1-3.24-8.6 0-15.8 6.46-17.2 15.51-.8 4.52.3 8.84 2.8 11.85 2.4 2.77 5.7 3.93 9.7 3.93 6.9 0 10.7-4.42 10.7-4.42l-.3 2.15c-.2.81.5 1.55 1.3 1.55h6.9c1.1 0 2.1-.8 2.3-1.89l4.1-26.4c.2-.82-.5-1.55-1.3-1.55m-10.7 15.01c-.8 4.41-4.3 7.37-8.8 7.37-2.2 0-4-.73-5.1-2.09-1.2-1.35-1.6-3.27-1.2-5.41.7-4.37 4.2-7.43 8.6-7.43 2.2 0 4 .73 5.1 2.11 1.2 1.38 1.7 3.32 1.4 5.45M215 46.8h-7.8c-.7 0-1.4.36-1.8.98l-10.7 15.75-4.5-15.14c-.3-.94-1.2-1.59-2.2-1.59h-7.6c-.9 0-1.6.9-1.3 1.77l8.6 25.06-8.1 11.33c-.6.89 0 2.12 1.1 2.12h7.8c.7 0 1.4-.36 1.8-.96l25.8-37.22c.6-.89 0-2.1-1.1-2.1m82.9-13.77l-6.6 42.06c-.1.81.5 1.55 1.3 1.55h6.7c1.1 0 2-.8 2.2-1.89l6.5-41.3c.1-.82-.5-1.55-1.3-1.55h-7.5c-.6 0-1.2.48-1.3 1.13"/>
      <path d="M66.12 29.79a23.682 23.682 0 0 0-3-.66c-1.84-.3-3.86-.44-6.03-.44H38.8c-.45 0-.88.1-1.26.28-.85.41-1.47 1.21-1.62 2.18L32.03 55.8l-.11.72a3.322 3.322 0 0 1 3.28-2.82h6.85c13.44 0 23.97-5.46 27.05-21.26.1-.47.17-.92.24-1.37-.78-.41-1.62-.76-2.53-1.06-.23-.1-.46-.15-.69-.22" opacity=".4"/>
    </symbol>
    
    <symbol id="icon-cat-1" viewBox="0 0 32 32">
      <title>Programmers &amp; Developers</title>
      <path d="M16 32c-8.837 0-16-7.163-16-16s7.163-16 16-16c8.837 0 16 7.163 16 16v0c0 8.837-7.163 16-16 16v0zM16 0.69c-8.455 0-15.31 6.855-15.31 15.31s6.855 15.31 15.31 15.31c8.455 0 15.31-6.855 15.31-15.31v0c0-0.003 0-0.006 0-0.010 0-8.45-6.85-15.3-15.3-15.3-0.003 0-0.007 0-0.011 0h0.001zM24.040 22.37h-16.080v-10.87l-0.060-2.9h16.2l-0.050 2.9v10.87zM8.7 21.64h14.6v-10.14h-14.6v10.14zM23.39 9.3h-14.79v1.38h14.8v-1.39zM10.43 10.42h-0.73v-0.72h0.73v0.72zM11.89 10.42h-0.73v-0.72h0.73v0.72zM13.35 10.42h-0.73v-0.72h0.74v0.72zM18.67 18.75l2.3-2.28-2.3-2.28 0.51-0.51 2.82 2.8-2.82 2.78zM14.2 19.95l2.92-7.24 0.68 0.27-2.92 7.25zM12.82 19.26l-2.82-2.8 2.82-2.8 0.51 0.52-2.3 2.28 2.3 2.28z"></path>
    </symbol>
    
    <symbol id="icon-cat-2" viewBox="0 0 32 32">
      <title>Designers &amp; Artists</title>
      <path d="M16 32c-8.837 0-16-7.163-16-16s7.163-16 16-16c8.837 0 16 7.163 16 16v0c0 8.837-7.163 16-16 16v0zM16 0.69c-8.455 0-15.31 6.855-15.31 15.31s6.855 15.31 15.31 15.31c8.455 0 15.31-6.855 15.31-15.31v0c0-0.003 0-0.006 0-0.010 0-8.45-6.85-15.3-15.3-15.3-0.003 0-0.007 0-0.011 0h0.001zM20.37 17.87h0.020c1.3 0 2.34 1.040 2.35 2.33 0 1.3 1.84 2.85 0.53 2.85s-5.27-0.2-5.27-2.85c0-0.19 0.020-0.37 0.060-0.55v0.020l-1.56-1.54-4.6 4.52h-2.66v-2.63l4.6-4.52-4.87-4.78c-0.228-0.222-0.37-0.532-0.37-0.875s0.142-0.653 0.37-0.875l0-0c0.23-0.228 0.546-0.369 0.895-0.369s0.665 0.141 0.895 0.369l-0-0 4.86 4.78 4.27-4.2c0.345-0.339 0.818-0.549 1.34-0.549s0.995 0.21 1.34 0.549l-0-0c0.344 0.333 0.557 0.799 0.557 1.315s-0.213 0.982-0.557 1.315l-0 0-4.27 4.2 1.57 1.55c0.16-0.040 0.33-0.060 0.51-0.060zM19.090 21.33c0.34 0.31 0.76 0.56 1.23 0.7h0.020c0.78 0.24 1.68 0.39 2.6 0.4h0.010l-0.15-0.28c-0.3-0.55-0.69-1.24-0.69-1.95 0-0.95-0.78-1.71-1.73-1.71h-0.010c-0 0-0 0-0 0-0.947 0-1.717 0.756-1.739 1.698l-0 0.002v0.050c0 0.43 0.17 0.81 0.46 1.090zM9.86 22.030h0.52l-0.52-0.51v0.51zM10.3 9.4c-0.116-0.114-0.275-0.185-0.45-0.185s-0.334 0.071-0.45 0.185l0-0c-0.116 0.111-0.188 0.267-0.188 0.44s0.072 0.329 0.187 0.44l0 0 4.87 4.78 0.9-0.88zM22.1 11.74c0.228-0.222 0.37-0.532 0.37-0.875s-0.142-0.653-0.37-0.875l-0-0c-0.229-0.225-0.543-0.364-0.89-0.364s-0.661 0.139-0.89 0.364l-0.44 0.44 1.78 1.75zM21.22 12.62l-0.67-0.66-8.64 8.5c-0.058 0.057-0.137 0.092-0.225 0.092s-0.167-0.035-0.225-0.093l0 0c-0.059-0.055-0.096-0.133-0.096-0.22s0.037-0.165 0.096-0.22l0-0 8.64-8.5-0.67-0.66-9.57 9.42v0.36l1.41 1.4h0.37zM17.84 16.82l-0.9 0.87 1.37 1.35c0.22-0.37 0.53-0.67 0.9-0.87z"></path>
    </symbol>
    
    <symbol id="icon-cat-3" viewBox="0 0 32 32">
      <title>Writers &amp; Translators</title>
      <path d="M16 32c-8.837 0-16-7.163-16-16s7.163-16 16-16c8.837 0 16 7.163 16 16v0c0 8.837-7.163 16-16 16v0zM16 0.69c-8.455 0-15.31 6.855-15.31 15.31s6.855 15.31 15.31 15.31c8.455 0 15.31-6.855 15.31-15.31v0c0-0.003 0-0.006 0-0.010 0-8.45-6.85-15.3-15.3-15.3-0.003 0-0.007 0-0.011 0h0.001zM20.86 13.63l-1.27 1.22-1.71 3.4c-0.044 0.084-0.123 0.144-0.218 0.16l-0.002 0-2.3 0.36c-1.94 0.3-3.66 0.96-5.18 1.93l0.050-0.030-1.51 0.96c-0.045 0.029-0.101 0.046-0.16 0.046-0.082 0-0.156-0.033-0.21-0.086l0 0c-0.053-0.049-0.087-0.12-0.087-0.198 0-0.057 0.017-0.109 0.047-0.153l-0.001 0.001 0.97-1.4c0.971-1.364 1.673-2.989 1.989-4.747l0.011-0.073v-0.070l0.4-2.25c0-0.1 0.070-0.17 0.16-0.21l3.56-1.64 0.8-0.76 0.48-0.46 2.45-2.34c0.056-0.049 0.129-0.079 0.21-0.079s0.154 0.030 0.21 0.079l-0-0 3.76 3.6c0.055 0.050 0.089 0.121 0.089 0.2s-0.034 0.15-0.088 0.2l-0 0zM15.52 11.43l-3.29 1.5-0.36 2.12c-0.284 1.629-0.843 3.085-1.631 4.386l0.031-0.056 0.030-0.050 2.65-2.53c0.054-0.053 0.128-0.086 0.21-0.086s0.156 0.033 0.21 0.086l-0-0c0.052 0.051 0.084 0.122 0.084 0.2s-0.032 0.149-0.084 0.2l-0 0-2.66 2.53c1.292-0.718 2.796-1.247 4.392-1.5l0.078-0.010 0.080-0.010 2.15-0.33 1.57-3.14-1.61-1.54-0.020 0.030-0.91 0.87c0.186 0.227 0.299 0.521 0.299 0.84 0 0.377-0.157 0.717-0.409 0.959l-0 0v0.010c-0.265 0.252-0.624 0.408-1.020 0.408s-0.755-0.155-1.021-0.408l0.001 0.001c-0.259-0.243-0.42-0.588-0.42-0.97s0.161-0.727 0.419-0.969l0.001-0.001c0.264-0.248 0.62-0.4 1.012-0.4 0.252 0 0.489 0.063 0.696 0.174l-0.008-0.004 0.94-0.9 0.030-0.030zM16.15 14.94c0-0.23-0.1-0.43-0.25-0.57-0.155-0.146-0.365-0.235-0.595-0.235s-0.44 0.090-0.595 0.236l0-0c-0.152 0.143-0.248 0.345-0.248 0.57s0.095 0.427 0.247 0.57l0 0c0.159 0.142 0.369 0.229 0.6 0.229s0.441-0.087 0.601-0.23l-0.001 0.001c0.148-0.144 0.24-0.345 0.24-0.567 0-0.001 0-0.002 0-0.003v0zM17.1 10.040l-0.47 0.45c-0.161 0.15-0.261 0.363-0.261 0.6s0.1 0.45 0.261 0.6l0 0 2.080 2c0.165 0.147 0.384 0.237 0.624 0.237 0.245 0 0.469-0.094 0.636-0.248l-0.001 0.001 0.47-0.45c0.161-0.15 0.261-0.363 0.261-0.6s-0.1-0.45-0.261-0.6l-0-0-2.080-2c-0.164-0.155-0.386-0.25-0.63-0.25s-0.466 0.095-0.63 0.25l0-0zM19.34 7.89l-1.41 1.35c0.33 0.040 0.62 0.18 0.85 0.4l2.080 1.99c0.22 0.2 0.37 0.48 0.41 0.8l1.41-1.34zM17.2 23.4h-8.94v-0.68h8.94v0.69zM21.68 23.4h-2.76v-0.68h2.76v0.69z"></path>
    </symbol>
    
    <symbol id="icon-cat-4" viewBox="0 0 32 32">
      <title>Sales &amp; Marketing</title>
      <path d="M16 32c-8.837 0-16-7.163-16-16s7.163-16 16-16c8.837 0 16 7.163 16 16v0c0 8.837-7.163 16-16 16v0zM16 0.69c-8.455 0-15.31 6.855-15.31 15.31s6.855 15.31 15.31 15.31c8.455 0 15.31-6.855 15.31-15.31v0c0-0.003 0-0.006 0-0.010 0-8.45-6.85-15.3-15.3-15.3-0.003 0-0.007 0-0.011 0h0.001zM20.93 16.72c0.194 0.006 0.349 0.165 0.349 0.36 0 0.199-0.161 0.36-0.36 0.36s-0.36-0.161-0.36-0.36c0-0.102 0.042-0.194 0.111-0.26l0-0c0.069-0.061 0.16-0.099 0.26-0.1h0zM24.42 22.71h-17.53c-0.018 0.003-0.039 0.005-0.060 0.005-0.199 0-0.36-0.161-0.36-0.36s0.161-0.36 0.36-0.36c0.021 0 0.042 0.002 0.062 0.005l-0.002-0h0.29v-3.56c0-0.2 0.16-0.36 0.35-0.36h2.85c0.2 0 0.36 0.16 0.36 0.36v3.56h0.86v-5.84c0-0.2 0.15-0.36 0.35-0.36h2.85c0.2 0 0.36 0.16 0.36 0.36v5.84h1v-8.050c0-0.2 0.15-0.36 0.35-0.36h2.85c0.2 0 0.35 0.16 0.35 0.36v8.050h0.86v-3.1c-0.003-0.018-0.005-0.039-0.005-0.060 0-0.199 0.161-0.36 0.36-0.36s0.36 0.161 0.36 0.36c0 0.021-0.002 0.042-0.005 0.062l0-0.002v3.1h2.14v-10.050h-2.14v3.46c0.003 0.018 0.005 0.039 0.005 0.060 0 0.199-0.161 0.36-0.36 0.36s-0.36-0.161-0.36-0.36c0-0.021 0.002-0.042 0.005-0.062l-0 0.002v-3.81c0-0.2 0.16-0.36 0.36-0.36h2.85c0.2 0 0.35 0.16 0.35 0.36v10.4h0.29c0.171 0.030 0.3 0.177 0.3 0.355s-0.129 0.325-0.298 0.355l-0.002 0zM10.020 18.79h-2.12v3.21h2.14v-3.2zM14.45 16.51h-2.15v5.49h2.13v-5.5zM19 14.31h-2.13v7.69h2.13v-7.7zM21.63 9.47c-0.199 0-0.36-0.161-0.36-0.36v0-0.53l-6.47 5.78c-0.065 0.062-0.153 0.101-0.25 0.101s-0.185-0.039-0.25-0.101l-1.94-1.94-3.62 3.62c-0.066 0.096-0.175 0.158-0.298 0.158-0.199 0-0.36-0.161-0.36-0.36 0-0.123 0.062-0.232 0.157-0.297l0.001-0.001 3.87-3.87c0.065-0.062 0.153-0.101 0.25-0.101s0.185 0.039 0.25 0.101l-0-0 1.94 1.93 6.22-5.53h-0.54c-0.025 0.006-0.054 0.010-0.084 0.010-0.199 0-0.36-0.161-0.36-0.36s0.161-0.36 0.36-0.36c0.030 0 0.059 0.004 0.087 0.011l-0.002-0.001h1.4c0.2 0 0.35 0.15 0.35 0.35v1.4c0 0.19-0.16 0.35-0.35 0.35zM7.56 17.070c-0.198-0.001-0.359-0.162-0.359-0.36s0.161-0.36 0.36-0.36 0.36 0.161 0.36 0.36c0 0.102-0.043 0.194-0.111 0.26l-0 0c-0.065 0.062-0.152 0.1-0.249 0.1-0 0-0.001 0-0.001 0h0z"></path>
    </symbol>
    
    <symbol id="icon-cat-5" viewBox="0 0 32 32">
      <title>Admins &amp; Secretaries</title>
      <path d="M16 32c-8.837 0-16-7.163-16-16s7.163-16 16-16c8.837 0 16 7.163 16 16v0c0 8.837-7.163 16-16 16v0zM16 0.69c-8.455 0-15.31 6.855-15.31 15.31s6.855 15.31 15.31 15.31c8.455 0 15.31-6.855 15.31-15.31v0c0-0.003 0-0.006 0-0.010 0-8.45-6.85-15.3-15.3-15.3-0.003 0-0.007 0-0.011 0h0.001zM24.34 23.39h-17.37c-0.8 0-1.8-0.64-1.8-1.44v-1.69h1.8v-9.81c0.010-0.83 0.69-1.5 1.52-1.5h14.33c0.83 0 1.5 0.67 1.52 1.5v9.81h1.47v1.7c-0.010 0.8-0.66 1.44-1.46 1.44zM23.58 10.44c-0.011-0.411-0.347-0.74-0.76-0.74-0 0-0 0-0 0h-14.32c-0.003-0-0.007-0-0.010-0-0.413 0-0.749 0.329-0.76 0.739l-0 0.001v9.82h15.84v-9.82zM25.050 21.010h-5.8c-0.138 0.365-0.485 0.62-0.891 0.62-0.003 0-0.006-0-0.010-0h-5.39c-0.001 0-0.002 0-0.003 0-0.402 0-0.746-0.25-0.885-0.604l-0.002-0.006v-0.020h-5.8v0.94c0 0.39 0.31 0.7 0.7 0.7h17.37c0.387 0 0.7-0.313 0.7-0.7v0-0.94zM11 16.17h9.63c0.191 0 0.345 0.154 0.345 0.345s-0.154 0.345-0.345 0.345h-9.63c-0.191 0-0.345-0.154-0.345-0.345s0.154-0.345 0.345-0.345v0zM11 18.24h9.63c0.191 0 0.345 0.154 0.345 0.345s-0.154 0.345-0.345 0.345h-9.63c-0.193 0-0.35-0.157-0.35-0.35s0.157-0.35 0.35-0.35v0zM19.6 14.11h-4.13c-0.191 0-0.345-0.154-0.345-0.345s0.154-0.345 0.345-0.345h4.13c0.191 0 0.345 0.154 0.345 0.345s-0.154 0.345-0.345 0.345v0zM19.6 12.040h-4.13c-0.188 0-0.34-0.152-0.34-0.34s0.152-0.34 0.34-0.34h4.13c0.188 0 0.34 0.152 0.34 0.34s-0.152 0.34-0.34 0.34v0zM11.35 11.36h2.75v2.75h-2.75v-2.75zM12.030 13.42h1.38v-1.38h-1.38v1.38z"></path>
    </symbol>

    <symbol id="icon-cat-6" viewBox="0 0 32 32">
      <title>Engineers &amp; Architects</title>
      <path d="M16 32c-8.837 0-16-7.163-16-16s7.163-16 16-16c8.837 0 16 7.163 16 16v0c0 8.837-7.163 16-16 16v0zM16 0.69c-8.455 0-15.31 6.855-15.31 15.31s6.855 15.31 15.31 15.31c8.455 0 15.31-6.855 15.31-15.31v0c0-0.003 0-0.006 0-0.010 0-8.45-6.85-15.3-15.3-15.3-0.003 0-0.007 0-0.011 0h0.001zM24.45 15.11v0.1c0 0.1-0.040 0.21-0.11 0.28l-0.43 0.44c-0.036 0.041-0.079 0.075-0.128 0.099l-0.002 0.001c-0.026 0.051-0.059 0.094-0.1 0.13l-0 0-0.42 0.44c-0.073 0.074-0.174 0.12-0.286 0.12-0.005 0-0.010-0-0.015-0l0.001 0-0.080-0.010-7.3 7.44c-0.053 0.051-0.122 0.087-0.198 0.1l-0.002 0-2.55 0.52h-0.080c-0.1 0-0.2-0.040-0.27-0.1-0.068-0.071-0.109-0.168-0.109-0.275 0-0.030 0.003-0.060 0.010-0.088l-0.001 0.003 0.5-2.59c0.015-0.078 0.050-0.146 0.1-0.2l-0 0 7.32-7.44c-0.006-0.026-0.009-0.056-0.009-0.087 0-0.114 0.045-0.217 0.119-0.293l-0 0 0.43-0.44c0.036-0.037 0.079-0.068 0.127-0.089l0.003-0.001c0.020-0.050 0.050-0.1 0.1-0.13l0.42-0.44c0.073-0.074 0.174-0.12 0.286-0.12 0.005 0 0.010 0 0.015 0l-0.001-0h0.080l0.86-0.87c0.091-0.094 0.219-0.153 0.36-0.153s0.269 0.059 0.36 0.153l0 0 1.86 1.89c0.090 0.095 0.146 0.223 0.146 0.365s-0.055 0.27-0.146 0.365l0-0zM16.030 22.46c0.080 0.090 0.15 0.18 0.19 0.3l6.26-6.37-0.39-0.39-1 1.020c-0.040 0.050-0.1 0.070-0.18 0.070s-0.13-0.030-0.18-0.070c-0.045-0.047-0.072-0.11-0.072-0.18s0.028-0.133 0.072-0.18l-0 0 1-1.020-0.38-0.4-6.24 6.35c0.166 0.087 0.297 0.221 0.378 0.385l0.002 0.005 4.48-4.55c0.050-0.050 0.11-0.070 0.18-0.070s0.13 0.030 0.18 0.070c0.048 0.047 0.077 0.113 0.077 0.185s-0.030 0.138-0.077 0.185l-0 0-4.46 4.53c0.061 0.037 0.114 0.080 0.16 0.129l0 0.001zM12.91 24.23l0.47-0.1-0.38-0.38zM14.050 21.31c-0.1 0-0.18 0.040-0.24 0.1l-0.010 0.020-0.42 0.42-0.26 1.3 0.85 0.86 1.27-0.26 0.44-0.44c0.061-0.061 0.099-0.146 0.099-0.24s-0.038-0.178-0.099-0.24v0c-0.061-0.066-0.147-0.107-0.243-0.107-0.024 0-0.047 0.003-0.069 0.007l0.002-0h-0.050c-0.002 0-0.004 0-0.006 0-0.067 0-0.129-0.027-0.174-0.070l0 0c-0.046-0.047-0.074-0.111-0.074-0.182 0-0.017 0.002-0.033 0.005-0.049l-0 0.002 0.010-0.070c-0.001-0.094-0.039-0.178-0.1-0.24l0 0c-0.060-0.065-0.146-0.105-0.242-0.105-0.021 0-0.041 0.002-0.060 0.006l0.002-0-0.050 0.010c-0.002 0-0.004 0-0.006 0-0.067 0-0.129-0.027-0.174-0.070l0 0c-0.047-0.047-0.076-0.112-0.076-0.184 0-0.020 0.002-0.039 0.006-0.058l-0 0.002v-0.060c0-0.005 0-0.010 0-0.016 0-0.089-0.039-0.169-0.1-0.224l-0-0c-0.059-0.060-0.14-0.098-0.23-0.1h-0zM14.35 20.86c0.12 0.040 0.22 0.1 0.3 0.19l0.12 0.16 6.23-6.32-0.38-0.39zM20.83 13.99l2.14 2.17 0.29-0.3-2.13-2.17zM23.1 11.97h-0.010l-0.82 0.83 0.91 0.93c0.045 0.047 0.072 0.11 0.072 0.18s-0.028 0.133-0.072 0.18l0-0c-0.046 0.047-0.109 0.076-0.18 0.076s-0.134-0.029-0.18-0.076l-0-0-1.040-1.060-0.3 0.3 2.14 2.17 0.3-0.3-0.39-0.39c-0.045-0.047-0.072-0.11-0.072-0.18s0.028-0.133 0.072-0.18l-0 0c0.050-0.050 0.11-0.080 0.18-0.080s0.13 0.030 0.18 0.080l0.25 0.25 0.81-0.83zM15.37 13.43c0.046-0.047 0.109-0.076 0.18-0.076s0.134 0.029 0.18 0.076l0 0c0.048 0.047 0.077 0.113 0.077 0.185s-0.030 0.138-0.077 0.185l-0 0-3.73 3.8c-0.063 0.067-0.151 0.109-0.25 0.11h-0c-0.040 0-0.080 0-0.11-0.020-0.113-0.054-0.19-0.167-0.19-0.299 0-0 0-0.001 0-0.001v0-5.48c0-0.24 0.19-0.42 0.42-0.43h5.39c0.13 0 0.24 0.080 0.3 0.2l0.010 0.11c0 0.1-0.040 0.2-0.1 0.25l-0.95 0.97c-0.046 0.047-0.109 0.076-0.18 0.076s-0.134-0.029-0.18-0.076l-0-0c-0.048-0.047-0.077-0.113-0.077-0.185s0.030-0.138 0.077-0.185l0-0 0.63-0.64h-4.83v4.92zM13.77 19.37c-0.045 0.044-0.107 0.071-0.175 0.071s-0.13-0.027-0.175-0.072l0 0c-0.045-0.047-0.072-0.11-0.072-0.18s0.028-0.133 0.072-0.18l-0 0 9.38-9.55h-1.38v0.55c0 0.138-0.112 0.25-0.25 0.25s-0.25-0.112-0.25-0.25v0-0.55h-0.79v0.54c0 0.138-0.112 0.25-0.25 0.25s-0.25-0.112-0.25-0.25v0-0.55h-0.79v0.55c0 0.138-0.112 0.25-0.25 0.25s-0.25-0.112-0.25-0.25v0-0.55h-0.78v0.55c0 0.141-0.114 0.255-0.255 0.255s-0.255-0.114-0.255-0.255v0-0.55h-0.78v0.55c0 0.138-0.112 0.25-0.25 0.25s-0.25-0.112-0.25-0.25v0-0.55h-0.8v0.55c0 0.138-0.112 0.25-0.25 0.25s-0.25-0.112-0.25-0.25v0-0.54h-0.78v0.54c0 0.138-0.112 0.25-0.25 0.25s-0.25-0.112-0.25-0.25v0-0.55h-0.79v0.55c0 0.14-0.11 0.26-0.25 0.26-0.144 0-0.26-0.116-0.26-0.26v0-0.54h-0.78v0.54c0 0.138-0.112 0.25-0.25 0.25s-0.25-0.112-0.25-0.25v0-0.56h-1c-0.089 0.005-0.16 0.079-0.16 0.17 0 0 0 0 0 0v-0 1.010h0.53c0.144 0 0.26 0.116 0.26 0.26s-0.116 0.26-0.26 0.26h-0.53v0.8h0.53c0.11 0.032 0.189 0.132 0.189 0.25s-0.079 0.218-0.187 0.25l-0.002 0h-0.53v0.8h0.53c0.144 0 0.26 0.116 0.26 0.26s-0.116 0.26-0.26 0.26h-0.53v0.8h0.53c0.015-0.003 0.033-0.005 0.051-0.005 0.144 0 0.26 0.116 0.26 0.26s-0.116 0.26-0.26 0.26c-0.018 0-0.036-0.002-0.052-0.005l0.002 0h-0.53v0.8h0.53c0.015-0.003 0.033-0.005 0.051-0.005 0.144 0 0.26 0.116 0.26 0.26s-0.116 0.26-0.26 0.26c-0.018 0-0.036-0.002-0.052-0.005l0.002 0h-0.53v0.8h0.53c0.015-0.003 0.033-0.005 0.051-0.005 0.144 0 0.26 0.116 0.26 0.26s-0.116 0.26-0.26 0.26c-0.018 0-0.036-0.002-0.052-0.005l0.002 0h-0.53v0.8h0.53c0.144 0 0.26 0.116 0.26 0.26s-0.116 0.26-0.26 0.26h-0.53v0.78h0.53c0.144 0 0.26 0.116 0.26 0.26s-0.116 0.26-0.26 0.26h-0.53v0.8h0.53c0.015-0.003 0.033-0.005 0.051-0.005 0.144 0 0.26 0.116 0.26 0.26s-0.116 0.26-0.26 0.26c-0.018 0-0.036-0.002-0.052-0.005l0.002 0h-0.53v1.4l3.090-3.14c0.046-0.047 0.109-0.076 0.18-0.076s0.134 0.029 0.18 0.076l0 0c0.048 0.047 0.077 0.113 0.077 0.185s-0.030 0.138-0.077 0.185l-0 0-3.23 3.28c-0.087 0.098-0.21 0.161-0.349 0.17l-0.001 0c-0.051-0.001-0.099-0.012-0.142-0.031l0.002 0.001c-0.146-0.074-0.244-0.222-0.244-0.394 0-0.020 0.001-0.039 0.004-0.058l-0 0.002v-13.59c0-0.38 0.3-0.68 0.67-0.68h13.39c0.016-0.002 0.034-0.003 0.053-0.003 0.17 0 0.316 0.098 0.386 0.241l0.001 0.003 0.020 0.15c0 0.14-0.060 0.26-0.16 0.35z"></path>
    </symbol>
    
    <symbol id="icon-cat-7" viewBox="0 0 32 32">
      <title>Business &amp; Finance</title>
      <path d="M16 32c-8.837 0-16-7.163-16-16s7.163-16 16-16c8.837 0 16 7.163 16 16v0c0 8.837-7.163 16-16 16v0zM16 0.69c-8.455 0-15.31 6.855-15.31 15.31s6.855 15.31 15.31 15.31c8.455 0 15.31-6.855 15.31-15.31v0c0-0.003 0-0.006 0-0.010 0-8.45-6.85-15.3-15.3-15.3-0.003 0-0.007 0-0.011 0h0.001zM22.3 24.090h-6.18c-0.6 0-1.1-0.49-1.1-1.090v-0.57h-4.22c-0.003 0-0.007 0-0.010 0-0.446 0-0.809-0.356-0.82-0.799l-0-0.001v-13.26c0-0.45 0.37-0.81 0.82-0.81h7.3c0.070 0 0.14 0.030 0.19 0.070l2.8 2.76c0.050 0.050 0.080 0.11 0.080 0.19v4.15h1.14c0.6 0 1.1 0.49 1.1 1.090v7.18c0 0.6-0.5 1.090-1.1 1.090zM18.35 8.45v1.3c0 0.32 0.26 0.58 0.58 0.58h1.33zM20.63 10.85h-1.7c-0.6 0-1.1-0.5-1.1-1.1v-1.65h-7.030c-0 0-0 0-0 0-0.162 0-0.294 0.129-0.3 0.29v13.241c0 0.16 0.13 0.3 0.3 0.3h4.22v-6.1c0-0.6 0.5-1.080 1.1-1.080h4.51v-3.9zM22.88 15.83c0-0 0-0 0-0 0-0.315-0.255-0.57-0.57-0.57-0.004 0-0.007 0-0.011 0h-6.169c-0.003-0-0.006-0-0.010-0-0.315 0-0.57 0.255-0.57 0.57 0 0 0 0 0 0v0 7.17c0 0.32 0.26 0.57 0.57 0.57h6.18c0.32 0 0.57-0.25 0.58-0.57v-7.17zM21.74 22.71h-0.56c-0.003 0-0.007 0-0.010 0-0.295 0-0.534-0.236-0.54-0.53v-0.551c0-0.3 0.24-0.54 0.54-0.54h0.57c0.3 0 0.54 0.24 0.54 0.54v0.55c0 0.3-0.24 0.53-0.54 0.53zM21.75 21.62l-0.010-0.010h-0.56l-0.020 0.010v0.55c0 0.010 0 0.020 0.020 0.020h0.56s0.020 0 0.020-0.020v-0.55zM21.74 20.5h-0.56c-0.003 0-0.007 0-0.010 0-0.295 0-0.534-0.236-0.54-0.53v-0.551c0-0.3 0.25-0.54 0.54-0.54h0.57c0.3 0 0.54 0.24 0.54 0.54v0.55c0 0.3-0.24 0.53-0.54 0.53zM21.75 19.42l-0.010-0.020h-0.56c-0.010 0-0.020 0-0.020 0.020v0.55l0.020 0.010h0.56l0.020-0.010v-0.55zM21.74 18.020h-5.050c-0.003 0-0.006 0-0.010 0-0.298 0-0.54-0.242-0.54-0.54 0-0 0-0 0-0v0-1.1c0-0.3 0.25-0.53 0.54-0.53h5.060c0.3 0 0.54 0.23 0.54 0.53v1.1c0 0.3-0.24 0.54-0.54 0.54zM21.75 17.48v-1.1l-0.010-0.020h-5.050l-0.020 0.020v1.1l0.020 0.020h5.050l0.010-0.020zM16.69 18.88h0.56c0.3 0 0.54 0.24 0.54 0.53v0.55c0 0.3-0.24 0.54-0.54 0.54h-0.56c-0.003 0-0.007 0-0.010 0-0.295 0-0.534-0.236-0.54-0.53v-0.561c0-0.3 0.25-0.53 0.54-0.53zM16.67 19.97l0.020 0.010h0.56l0.020-0.010v-0.55l-0.020-0.020h-0.56s-0.020 0-0.020 0.020v0.55zM16.69 21.090h0.56c0.3 0 0.54 0.24 0.54 0.53v0.55c0 0.3-0.24 0.54-0.54 0.54h-0.56c-0.003 0-0.006 0-0.010 0-0.298 0-0.54-0.242-0.54-0.54 0-0 0-0 0-0v0-0.55c0-0.3 0.25-0.53 0.54-0.53zM16.67 22.17c0 0.010 0 0.020 0.020 0.020h0.56c0.010 0 0.020 0 0.020-0.020v-0.55l-0.020-0.010h-0.56l-0.020 0.010v0.55zM18.93 18.88h0.56c0.3 0 0.54 0.24 0.55 0.53v0.55c0 0.3-0.25 0.54-0.54 0.54h-0.57c-0 0-0 0-0 0-0.295 0-0.534-0.236-0.54-0.529v-0.561c0-0.3 0.24-0.53 0.54-0.53zM18.91 19.97l0.020 0.010h0.56l0.020-0.010v-0.55c0-0.010 0-0.020-0.020-0.020h-0.56l-0.010 0.020v0.55zM18.93 21.090h0.56c0.3 0 0.54 0.24 0.55 0.53v0.55c0 0.3-0.25 0.54-0.54 0.54h-0.57c-0 0-0 0-0 0-0.295 0-0.534-0.236-0.54-0.529v-0.561c0-0.3 0.24-0.53 0.54-0.53zM18.91 22.17l0.020 0.020h0.56c0.010 0 0.020 0 0.020-0.020v-0.55l-0.020-0.010h-0.56l-0.010 0.010v0.55zM11.38 13.9c0-0.15 0.11-0.26 0.26-0.26h7.87c0.12 0.025 0.209 0.129 0.209 0.255s-0.089 0.23-0.208 0.255l-0.002 0h-7.87c-0 0-0 0-0 0-0.14 0-0.254-0.111-0.26-0.249l-0-0.001zM18.93 12.22h-0.3c-0.012 0.002-0.026 0.003-0.040 0.003-0.144 0-0.26-0.116-0.26-0.26s0.116-0.26 0.26-0.26c0.021 0 0.042 0.003 0.061 0.007l-0.002-0h0.3c0.12 0.025 0.209 0.129 0.209 0.255s-0.089 0.23-0.208 0.255l-0.002 0h-0.020zM17.53 12.22h-0.3c-0.012 0.002-0.026 0.003-0.040 0.003-0.144 0-0.26-0.116-0.26-0.26s0.116-0.26 0.26-0.26c0.021 0 0.042 0.003 0.061 0.007l-0.002-0h0.3c0.12 0.025 0.209 0.129 0.209 0.255s-0.089 0.23-0.208 0.255l-0.002 0h-0.020zM16.13 11.71h0.020c0.144 0 0.26 0.116 0.26 0.26s-0.116 0.26-0.26 0.26h-0.32c-0.139-0.006-0.25-0.12-0.25-0.26 0-0.144 0.117-0.26 0.26-0.26 0.004 0 0.007 0 0.011 0l-0.001-0h0.28zM14.44 11.71h0.3c0.144 0 0.26 0.116 0.26 0.26s-0.116 0.26-0.26 0.26h-0.3c-0.144 0-0.26-0.116-0.26-0.26s0.116-0.26 0.26-0.26v0zM17.24 11.12h-2.81c-0.012 0.002-0.026 0.003-0.040 0.003-0.144 0-0.26-0.116-0.26-0.26s0.116-0.26 0.26-0.26c0.021 0 0.042 0.003 0.062 0.007l-0.002-0h2.82c0.010-0.001 0.022-0.002 0.033-0.002 0.144 0 0.26 0.116 0.26 0.26s-0.116 0.26-0.26 0.26c-0.023 0-0.044-0.003-0.065-0.008l0.002 0zM16.69 10.020h-2.27c-0.139-0.006-0.25-0.12-0.25-0.26 0-0.144 0.117-0.26 0.26-0.26 0.004 0 0.007 0 0.011 0l-0.001-0h2.27c0.144 0 0.26 0.116 0.26 0.26s-0.116 0.26-0.26 0.26h-0.020zM13.59 11.64c-0.040 0.44-0.4 0.8-0.84 0.83v0.050c0 0.146-0.119 0.265-0.265 0.265s-0.265-0.119-0.265-0.265v0-0.040c-0.446-0.043-0.797-0.394-0.84-0.836l-0-0.004c0-0.144 0.116-0.26 0.26-0.26s0.26 0.116 0.26 0.26v0c0.038 0.154 0.162 0.272 0.318 0.3l0.002 0v-0.9c-0.37-0.14-0.84-0.38-0.84-0.96 0.040-0.44 0.4-0.8 0.84-0.83v-0.050c0-0.146 0.119-0.265 0.265-0.265s0.265 0.119 0.265 0.265v0 0.050c0.44 0.040 0.8 0.39 0.84 0.83 0 0.146-0.119 0.265-0.265 0.265s-0.265-0.119-0.265-0.265v0c-0.037-0.152-0.157-0.268-0.307-0.3l-0.003-0v0.9c0.37 0.14 0.84 0.38 0.84 0.96zM12.74 11.94c0.158-0.028 0.282-0.146 0.319-0.297l0.001-0.003c0-0.003 0-0.007 0-0.010 0-0.189-0.131-0.347-0.307-0.389l-0.003-0.001v0.7zM12.22 9.78c-0.158 0.028-0.282 0.146-0.319 0.297l-0.001 0.003c0 0.2 0.14 0.36 0.32 0.4v-0.7zM11.64 15.29h0.58c0.144 0 0.26 0.116 0.26 0.26s-0.116 0.26-0.26 0.26h-0.6c-0.139-0.006-0.25-0.12-0.25-0.26 0-0.144 0.117-0.26 0.26-0.26 0.004 0 0.007 0 0.011 0l-0.001-0zM11.64 16.39h0.58c0.144 0 0.26 0.116 0.26 0.26s-0.116 0.26-0.26 0.26h-0.6c-0.012 0.002-0.026 0.003-0.040 0.003-0.144 0-0.26-0.116-0.26-0.26s0.116-0.26 0.26-0.26c0.021 0 0.042 0.003 0.062 0.007l-0.002-0zM11.64 17.5h0.58c0.144 0 0.26 0.116 0.26 0.26s-0.116 0.26-0.26 0.26h-0.6c-0.139-0.006-0.25-0.12-0.25-0.26 0-0.144 0.117-0.26 0.26-0.26 0.004 0 0.007 0 0.011 0l-0.001-0zM11.64 18.6h0.58c0.144 0 0.26 0.116 0.26 0.26s-0.116 0.26-0.26 0.26h-0.6c-0.139-0.006-0.25-0.12-0.25-0.26 0-0.144 0.117-0.26 0.26-0.26 0.004 0 0.007 0 0.011 0l-0.001-0zM11.64 19.7h0.58c0.144 0 0.26 0.116 0.26 0.26s-0.116 0.26-0.26 0.26h-0.6c-0.012 0.002-0.026 0.003-0.040 0.003-0.144 0-0.26-0.116-0.26-0.26s0.116-0.26 0.26-0.26c0.021 0 0.042 0.003 0.062 0.007l-0.002-0zM13.32 15.3h0.86c0.12 0.025 0.209 0.129 0.209 0.255s-0.089 0.23-0.208 0.255l-0.002 0h-0.88c-0.139-0.006-0.25-0.12-0.25-0.26 0-0.144 0.117-0.26 0.26-0.26 0.004 0 0.007 0 0.011 0l-0.001-0zM13.32 16.4h0.86c0.12 0.025 0.209 0.129 0.209 0.255s-0.089 0.23-0.208 0.255l-0.002 0h-0.88c-0.012 0.002-0.026 0.003-0.040 0.003-0.144 0-0.26-0.116-0.26-0.26s0.116-0.26 0.26-0.26c0.021 0 0.042 0.003 0.062 0.007l-0.002-0zM13.32 17.5h0.86c0.144 0 0.26 0.116 0.26 0.26s-0.116 0.26-0.26 0.26h-0.88c-0.139-0.006-0.25-0.12-0.25-0.26 0-0.144 0.117-0.26 0.26-0.26 0.004 0 0.007 0 0.011 0l-0.001-0zM13.32 18.6h0.86c0.144 0 0.26 0.116 0.26 0.26s-0.116 0.26-0.26 0.26h-0.88c-0.139-0.006-0.25-0.12-0.25-0.26 0-0.144 0.117-0.26 0.26-0.26 0.004 0 0.007 0 0.011 0l-0.001-0zM13.32 19.7h0.86c0.144 0 0.26 0.116 0.26 0.26s-0.116 0.26-0.26 0.26h-0.88c-0.012 0.002-0.026 0.003-0.040 0.003-0.144 0-0.26-0.116-0.26-0.26s0.116-0.26 0.26-0.26c0.021 0 0.042 0.003 0.062 0.007l-0.002-0z"></path>
    </symbol>
    
    <symbol id="icon-cat-8" viewBox="0 0 32 32">
      <title>Legal</title>
      <path d="M16 32c-8.837 0-16-7.163-16-16s7.163-16 16-16c8.837 0 16 7.163 16 16v0c0 8.837-7.163 16-16 16v0zM16 0.69c-8.455 0-15.31 6.855-15.31 15.31s6.855 15.31 15.31 15.31c8.455 0 15.31-6.855 15.31-15.31v0c0-0.003 0-0.006 0-0.010 0-8.45-6.85-15.3-15.3-15.3-0.003 0-0.007 0-0.011 0h0.001zM22.11 19.29h-0.2c-0.009 0-0.019 0-0.030 0-1.267 0-2.294-1.024-2.3-2.29v-0.301l0.010-0.010v-0.020l0.020-0.020 1.98-4.38h-0.090c-0.002 0-0.004 0-0.007 0-0.877 0-1.669-0.364-2.232-0.949l-0.001-0.001c-0.25-0.26-0.6-0.42-0.99-0.42h-1.62v1.17c-0.025 0.12-0.129 0.209-0.255 0.209s-0.23-0.089-0.255-0.208l-0-0.002v-1.17h-0.64v10.1h0.64v-7.33c0.032-0.11 0.132-0.189 0.25-0.189s0.218 0.079 0.25 0.187l0 0.002v7.33h2.65c0.43 0 0.78 0.35 0.78 0.78v0.45h0.45c0 0 0 0 0 0 0.438 0 0.794 0.352 0.8 0.789v0.801c0 0.15-0.12 0.26-0.26 0.26h-10.47c-0 0-0 0-0 0-0.14 0-0.254-0.111-0.26-0.25l-0-0v-0.81c0.006-0.438 0.362-0.79 0.8-0.79 0 0 0 0 0 0h0.45v-0.45c0-0.43 0.35-0.77 0.78-0.77h2.64v-10.11h-1.53c-0.46 0-0.87 0.18-1.16 0.49-0.53 0.54-1.25 0.87-2.060 0.87h-0.21l2 4.38v0.020l0.010 0.020v0.32c0 1.27-1.030 2.3-2.3 2.3h-0.21c-0.006 0-0.013 0-0.020 0-1.27 0-2.3-1.030-2.3-2.3 0-0 0-0 0-0v0-0.33h0.010v-0.020l2-4.38h-1.46c-0 0-0 0-0 0-0.251 0-0.454-0.2-0.46-0.449v-0.601c0-0.26 0.2-0.46 0.46-0.46h2.35c0.46 0 0.88-0.2 1.17-0.5 0.518-0.54 1.244-0.876 2.049-0.88h1.661v-0.56c-0.29-0.24-0.47-0.6-0.47-0.99 0-0.718 0.582-1.3 1.3-1.3s1.3 0.582 1.3 1.3v0c0 0.4-0.18 0.75-0.47 0.99v0.57h1.64c0.81 0 1.54 0.33 2.060 0.86 0.3 0.31 0.7 0.5 1.16 0.5h2.36c0.25 0 0.45 0.2 0.46 0.46v0.6c0 0.26-0.2 0.46-0.46 0.46h-1.46l2 4.38v0.040l0.010 0.020v0.040c0 0.010 0 0 0 0v0.25c0 1.27-1.030 2.3-2.3 2.3h-0.010zM12.36 21.51c-0.149 0-0.27 0.121-0.27 0.27v0 0.45h0.5c0.141 0 0.255 0.114 0.255 0.255s-0.114 0.255-0.255 0.255v0h-1.46c-0.155 0-0.28 0.125-0.28 0.28v0 0.56h9.96v-0.56c0-0.155-0.125-0.28-0.28-0.28v0h-6.31c-0.138 0-0.25-0.112-0.25-0.25s0.112-0.25 0.25-0.25v0h5.35v-0.46c0-0.149-0.121-0.27-0.27-0.27v0h-6.94zM9.54 18.8h0.21c0.99 0 1.79-0.8 1.8-1.79h-3.81c0 1 0.8 1.79 1.8 1.79zM7.88 16.5h3.53l-1.77-3.87zM15.83 7.060h-0.010c-0.001 0-0.003 0-0.004 0-0.431 0-0.78 0.349-0.78 0.78 0 0.277 0.144 0.52 0.361 0.658l0.003 0.002q0.020 0 0.030 0.020h0.020l0.040 0.030h0.020l0.030 0.020h0.010l0.050 0.020h0.010l0.040 0.010h0.010l0.050 0.010h0.070l0.050 0.010h0.11c0.023-0.006 0.043-0.013 0.063-0.021l-0.003 0.001 0.040-0.020h0.010l0.050-0.020h0.010l0.040-0.020h0.010l0.060-0.030 0.030-0.020c0.22-0.14 0.364-0.383 0.364-0.66 0-0.431-0.349-0.78-0.78-0.78-0.002 0-0.003 0-0.005 0h-0.010zM15.51 9.090v0.3h0.64v-0.3h-0.010l-0.060 0.020h-0.090l-0.080 0.020c-0.022 0.002-0.048 0.002-0.074 0.002-0.059 0-0.116-0.005-0.173-0.013l0.006 0.001h-0.010l-0.060-0.010h-0.020l-0.060-0.020zM23.82 11.77v-0.5h-2.3c-0 0-0.001 0-0.001 0-0.602 0-1.145-0.253-1.528-0.659l-0.001-0.001c-0.425-0.432-1.016-0.7-1.669-0.7-0.007 0-0.015 0-0.022 0h-4.949c-0.66 0-1.25 0.26-1.68 0.7-0.38 0.4-0.92 0.66-1.53 0.66h-2.3v0.5h2.41c0.66 0 1.26-0.27 1.68-0.7 0.383-0.411 0.926-0.668 1.53-0.67h4.83c0.53 0 1 0.23 1.35 0.58 0.47 0.49 1.14 0.8 1.87 0.8h2.31zM22.010 12.63l-1.76 3.88h3.53zM20.11 17c0 1 0.8 1.79 1.8 1.79h0.2c1 0 1.8-0.8 1.8-1.78h-3.8z"></path>
    </symbol>

    <symbol id="icon-members-worldwide" viewBox="0 0 28 32">
      <path fill="#0070ba" style="fill: var(--color1, #0070ba)" d="M23.67 27.92c-2.509 2.505-5.974 4.055-9.8 4.055-7.655 0-13.861-6.201-13.87-13.854v-0.051c0-5.56 3.22-10.34 7.9-12.59l0.080-0.040c0.254-3.047 2.79-5.425 5.881-5.425 3.084 0 5.616 2.366 5.878 5.383l0.002 0.022v0.020c4.754 2.302 7.975 7.091 7.975 12.631 0 3.837-1.545 7.313-4.046 9.84l0.001-0.001zM21.27 28.3c-0.9-0.67-1.94-1.23-3.040-1.64l-0.1-0.030c-0.1 0.37-0.21 0.73-0.33 1.070-0.365 1.069-0.853 1.996-1.461 2.83l0.021-0.030 0.030-0.030c1.86-0.4 3.5-1.15 4.91-2.2l-0.030 0.030zM9.77 18.7c0.030 2.25 0.29 4.43 0.75 6.53l-0.040-0.21c1.018-0.277 2.186-0.435 3.392-0.435 1.233 0 2.428 0.166 3.562 0.477l-0.094-0.022-0.1-0.020c0.43-1.89 0.68-4.070 0.7-6.3v-0.010h-8.16zM17.94 17.43c-0.027-1.998-0.23-3.93-0.593-5.805l0.033 0.205 0.030 0.2c-0.916 1.168-1.949 2.182-3.098 3.050l-0.042 0.030-0.040 0.030c-0.102 0.075-0.231 0.12-0.37 0.12s-0.268-0.045-0.372-0.121l0.002 0.001c-1.195-0.898-2.231-1.912-3.123-3.044l-0.027-0.036-0.020-0.030c-0.31 1.6-0.5 3.47-0.54 5.38v0.020h8.16zM13.86 30.73c0.95 0 1.97-1.3 2.74-3.46l0.33-1.010c-0.922-0.251-1.98-0.395-3.072-0.395-1.12 0-2.204 0.152-3.233 0.435l0.085-0.020 0.080-0.020q0.16 0.52 0.33 1c0.77 2.17 1.8 3.46 2.74 3.46zM11.34 30.47c-0.58-0.8-1.060-1.72-1.4-2.7l-0.010-0.070c-0.13-0.35-0.24-0.7-0.35-1.070-1.2 0.44-2.23 1-3.16 1.69l0.030-0.020c1.356 1.008 2.968 1.756 4.718 2.135l0.082 0.015 0.090 0.020zM5.44 27.47c1.067-0.833 2.297-1.526 3.625-2.019l0.095-0.031 0.1-0.030c-0.46-2-0.73-4.3-0.75-6.67v-0.010h-7.23c0.175 3.48 1.732 6.565 4.13 8.741l0.011 0.009h0.020zM8.020 6.86c-0.62 0.33-1.15 0.66-1.64 1.030l0.030-0.020c0.64 0.48 1.38 0.92 2.15 1.28l0.080 0.040c-0.3-0.68-0.5-1.47-0.61-2.29v-0.040zM5.4 8.7c-2.387 2.179-3.934 5.242-4.119 8.668l-0.001 0.032v0.030h7.23c0.030-2.36 0.3-4.64 0.8-6.83l-0.040 0.22c-1.493-0.535-2.784-1.26-3.929-2.162l0.029 0.022 0.030 0.020zM13.86 1.27c-2.558 0.006-4.63 2.081-4.63 4.64 0 0 0 0 0 0v0c0 3.85 3.48 6.98 4.63 7.9 1.16-0.92 4.63-4.050 4.63-7.9 0 0 0 0 0 0 0-2.559-2.072-4.634-4.629-4.64h-0.001zM19.7 6.86c-0.113 0.884-0.337 1.688-0.662 2.438l0.022-0.058 0.020-0.050c0.85-0.4 1.58-0.84 2.26-1.34l-0.030 0.020c-0.47-0.35-1-0.68-1.54-0.98l-0.070-0.030zM22.33 8.7c-1.085 0.852-2.34 1.556-3.695 2.050l-0.095 0.030-0.1 0.040c0.46 1.97 0.74 4.25 0.77 6.6v0.010h3.54c0.353 0 0.64 0.287 0.64 0.64s-0.287 0.64-0.64 0.64v0h-3.54c-0.020 2.38-0.3 4.68-0.8 6.9l0.050-0.22c1.46 0.53 2.73 1.23 3.85 2.1l-0.030-0.020c2.576-2.325 4.188-5.676 4.188-9.403 0-3.703-1.591-7.035-4.128-9.348l-0.010-0.009v-0.010zM25.060 18.7c0.317-0.041 0.56-0.31 0.56-0.635s-0.243-0.594-0.557-0.635l-0.003-0h-0.27c-0.353 0-0.64 0.287-0.64 0.64s0.287 0.64 0.64 0.64v0h0.27zM13.86 8c-1.475 0-2.67-1.195-2.67-2.67s1.195-2.67 2.67-2.67c1.475 0 2.67 1.195 2.67 2.67v0c0 1.47-1.2 2.67-2.67 2.67zM13.86 3.81c-0.839 0-1.52 0.681-1.52 1.52s0.681 1.52 1.52 1.52c0.839 0 1.52-0.681 1.52-1.52v0c0-0.84-0.68-1.51-1.52-1.52z"></path>
    </symbol>
    
    <symbol id="icon-jobs-completed" viewBox="0 0 24 32">
      <path fill="#0070ba" style="fill: var(--color1, #0070ba)" d="M21.27 28.27v3.73h-1.1v-9c-0.934 0.243-1.613 1.076-1.62 2.069v2.661c0 0.3-0.25 0.54-0.54 0.54h-8.19v3.73h-1.1v-3.73h-6.020c-0 0-0 0-0 0-1.481 0-2.683-1.192-2.7-2.668v-22.932c0.017-1.478 1.219-2.67 2.7-2.67 0 0 0 0 0 0h15.85c0.15 0 0.29 0.060 0.38 0.16l4.91 4.8c0.1 0.1 0.16 0.22 0.16 0.37v20.27c-0.017 1.478-1.219 2.67-2.7 2.67-0 0-0 0-0 0h-0.030zM19.1 1.82v2.98h3.040zM22.92 5.86h-4.37c-0 0-0 0-0 0-0.295 0-0.534-0.236-0.54-0.529v-4.261h-15.31c-0.89 0-1.6 0.71-1.62 1.6v22.93c0.010 0.89 0.73 1.6 1.62 1.6h14.74v-2.13c0.023-1.772 1.464-3.2 3.24-3.2 0 0 0 0 0 0h0.040c0.3 0 0.54 0.24 0.54 0.53v4.8h0.020c0.89 0 1.6-0.71 1.62-1.6v-19.73zM14.19 19.73h6.55v1.070h-6.55v-1.070zM14.19 17.6h6.55v1.070h-6.55v-1.070zM18.56 15.47h2.18v1.060h-2.18v-1.060zM15.28 13.33h5.46v1.070h-5.46v-1.070zM12.56 9.070h7.090v1.060h-7.1v-1.060zM16.92 6.93h2.73v1.070h-2.75v-1.070zM12.56 6.93h3.27v1.070h-3.27v-1.070zM12.56 4.8h2.72v1.070h-2.72v-1.070zM10.92 11.73h-7.65c-0 0-0 0-0 0-0.295 0-0.534-0.236-0.54-0.529v-7.471c0-0.3 0.24-0.53 0.54-0.53h7.64c0.3 0 0.54 0.24 0.55 0.53v7.47c0 0.3-0.25 0.53-0.54 0.53h-0.010zM6 10.67h2.18v-1.070c-0.075-0.54-0.535-0.952-1.090-0.952s-1.015 0.412-1.089 0.946l-0.001 0.006v1.070zM7.64 6.93c0-0.003 0-0.006 0-0.010 0-0.304-0.246-0.55-0.55-0.55s-0.55 0.246-0.55 0.55c0 0.304 0.246 0.55 0.55 0.55v0c0.3 0 0.54-0.24 0.55-0.54zM10.36 4.27h-6.54v6.4h1.1v-1.070c0-0.7 0.34-1.32 0.87-1.7-0.2-0.27-0.33-0.6-0.33-0.96 0.068-0.849 0.774-1.512 1.635-1.512s1.567 0.663 1.635 1.506l0 0.006c0 0.36-0.13 0.7-0.34 0.96 0.54 0.38 0.88 1 0.89 1.7v1.070h1.090v-6.4zM7.64 16.53h-4.37v-1.060h4.37v1.060zM5.45 18.67h-2.18v-1.070h2.18v1.070zM5.45 20.8h-2.18v-1.070h2.18v1.070zM8.18 22.93h-4.9v-1.060h4.9v1.060zM5.45 25.070h-2.18v-1.070h2.18v1.070zM15.81 25.070h-9.26v-1.070h9.27v1.070zM16.91 22.93h-7.64v-1.060h7.64v1.060zM6.55 19.73h6.54v1.070h-6.54v-1.070zM13.090 18.67h-6.54v-1.070h6.54v1.070zM5.45 13.33h4.37v1.070h-4.37v-1.070zM14.18 13.33v1.070h-3.27v-1.070h3.27zM17.45 16.53h-8.72v-1.060h8.72v1.060z"></path>
    </symbol>

    <symbol id="icon-paid-to-gurus" viewBox="0 0 32 32">
      <path fill="#0070ba" style="fill: var(--color1, #0070ba)" d="M30.13 32h-11.58c-0.312-0.041-0.551-0.305-0.551-0.625s0.239-0.584 0.548-0.625l0.003-0h11.58c0.34 0 0.62-0.28 0.62-0.62v-12.95c-0.006-0.344-0.285-0.62-0.63-0.62-0 0-0 0-0 0h-20.46c-0.34 0.006-0.614 0.28-0.62 0.619v12.951c0 0.34 0.28 0.62 0.62 0.62h3.38c0.312 0.041 0.551 0.305 0.551 0.625s-0.239 0.584-0.548 0.625l-0.003 0h-3.39c-1.034-0.006-1.87-0.845-1.87-1.88 0 0 0-0 0-0v0-5.21l-7.23-7.23c-0.343-0.339-0.555-0.81-0.555-1.33s0.212-0.991 0.555-1.33l14.47-14.47c0.339-0.343 0.81-0.555 1.33-0.555s0.991 0.212 1.33 0.555l9.15 9.15c0.34 0.339 0.55 0.807 0.55 1.325s-0.21 0.986-0.55 1.325l-2.96 2.96h6.26c1.030 0 1.87 0.84 1.87 1.87v12.94c0 1.040-0.84 1.88-1.88 1.88zM7.77 23.14v-4.97l-2.49 2.49zM16.78 1.43c-0.112-0.113-0.268-0.183-0.44-0.183s-0.328 0.070-0.44 0.183l-14.47 14.47c-0.113 0.112-0.183 0.268-0.183 0.44s0.070 0.328 0.183 0.44l0.95 0.95 15.36-15.35zM25.94 11.47c0.116-0.113 0.188-0.271 0.188-0.445s-0.072-0.332-0.188-0.445l-0-0-7.33-7.32-15.35 15.36 1.15 1.15 12.24-12.25c0.112-0.113 0.268-0.184 0.44-0.184 0.342 0 0.62 0.278 0.62 0.62 0 0.008-0 0.017-0 0.025l0-0.001c0 0.17-0.070 0.32-0.17 0.43l-6.9 6.9h2.54l4.27-4.28c0.113-0.115 0.271-0.186 0.445-0.186 0.346 0 0.626 0.28 0.626 0.626 0 0.172-0.069 0.327-0.181 0.44l-3.4 3.4h1.65l2.31-2.31c0.114-0.131 0.282-0.213 0.468-0.213 0.342 0 0.62 0.278 0.62 0.62 0 0.184-0.080 0.349-0.207 0.463l-0.001 0.001-1.42 1.43h3.74zM18.74 6.93c-0.344-0.005-0.621-0.285-0.621-0.63 0-0.348 0.282-0.63 0.63-0.63s0.63 0.282 0.63 0.63c0 0.176-0.072 0.335-0.189 0.45l-0 0c-0.113 0.111-0.269 0.18-0.44 0.18h-0zM10.9 23.65c0-0.34 0.28-0.62 0.62-0.62h3.83c0.312 0.041 0.551 0.305 0.551 0.625s-0.239 0.584-0.548 0.625l-0.003 0h-3.82c-0.348 0-0.63-0.282-0.63-0.63v0zM16 21.62h-4.5c-0.34-0.006-0.614-0.28-0.62-0.619v-2.871c0-0.35 0.28-0.63 0.62-0.63h4.5c0.34 0 0.63 0.28 0.63 0.63v2.87c0 0.34-0.29 0.62-0.63 0.62zM15.37 18.75h-3.24v1.62h3.24v-1.62zM16.060 30.75h0.030c0.312 0.041 0.551 0.305 0.551 0.625s-0.239 0.584-0.548 0.625l-0.003 0h-0.070c-0.017 0.002-0.037 0.003-0.057 0.003-0.348 0-0.63-0.282-0.63-0.63s0.282-0.63 0.63-0.63c0.034 0 0.068 0.003 0.1 0.008l-0.004-0zM28.27 24.28h-3.83c-0.312-0.041-0.551-0.305-0.551-0.625s0.239-0.584 0.548-0.625l0.003-0h3.83c0.024-0.003 0.051-0.005 0.079-0.005 0.348 0 0.63 0.282 0.63 0.63s-0.282 0.63-0.63 0.63c-0.028 0-0.055-0.002-0.082-0.005l0.003 0zM27.040 30.060c-0.42 0-0.8-0.1-1.15-0.28h0.020c-0.33 0.178-0.723 0.282-1.139 0.282-1.348 0-2.44-1.092-2.44-2.44s1.092-2.44 2.44-2.44c0.421 0 0.817 0.107 1.162 0.294l-0.013-0.006h-0.010c0.329-0.176 0.72-0.28 1.135-0.28 1.348 0 2.44 1.092 2.44 2.44s-1.092 2.44-2.44 2.44c-0.002 0-0.003 0-0.005 0h0v-0.010zM24.9 26.44h-0.12c-0.609 0.058-1.081 0.566-1.081 1.185s0.472 1.127 1.076 1.185l0.005 0h0.13c-0.199-0.342-0.316-0.752-0.316-1.19s0.117-0.848 0.322-1.202l-0.006 0.012v0.010zM25.9 27.26c-0.037 0.109-0.059 0.234-0.059 0.365s0.022 0.256 0.061 0.373l-0.002-0.008c0.038-0.11 0.061-0.238 0.061-0.37s-0.022-0.26-0.063-0.378l0.002 0.008v0.010zM27.040 26.43l-0.14 0.010c0.197 0.341 0.313 0.749 0.313 1.185s-0.116 0.844-0.319 1.197l0.006-0.012h0.14c0.657 0 1.19-0.533 1.19-1.19s-0.533-1.19-1.19-1.19v0zM17.94 23.030h3.83c0.312 0.041 0.551 0.305 0.551 0.625s-0.239 0.584-0.548 0.625l-0.003 0h-3.83c-0.312-0.041-0.551-0.305-0.551-0.625s0.239-0.584 0.548-0.625l0.003-0z"></path>
    </symbol>
  
    <symbol id="icon-shield" viewBox="0 0 29 32">
      <path d="M22.406 27.538c-3.112 2.883-6.721 4.48-8.026 4.48s-4.914-1.597-8.026-4.48c-3.913-3.552-6.36-8.659-6.36-14.337 0-0.051 0-0.102 0.001-0.153l-0 0.008v-6.899c0-0 0-0 0-0 0-0.29 0.198-0.533 0.465-0.604l0.004-0.001c5.17-1.351 9.698-3.22 13.891-5.607l-0.28 0.147c0.088-0.050 0.193-0.079 0.305-0.079s0.217 0.029 0.308 0.081l-0.003-0.002c3.911 2.222 8.437 4.089 13.204 5.367l0.408 0.093c0.272 0.071 0.47 0.315 0.47 0.604 0 0 0 0 0 0v0 6.899c0 0.043 0.001 0.093 0.001 0.143 0 5.679-2.448 10.787-6.346 14.325l-0.016 0.014zM22.856 10.504c-0.125-0.126-0.298-0.205-0.49-0.205s-0.365 0.078-0.49 0.205l-0 0-9.209 9.224-5.053-5.061c-0.126-0.13-0.303-0.211-0.498-0.211-0.383 0-0.693 0.31-0.693 0.693 0 0.196 0.081 0.372 0.211 0.498l0 0 5.542 5.552c0.125 0.125 0.299 0.203 0.49 0.203s0.364-0.077 0.49-0.203v0l9.699-9.714c0.125-0.126 0.203-0.299 0.203-0.49s-0.077-0.365-0.203-0.49l0 0z"></path>
    </symbol>

    <symbol id="icon-hourly">
      <path d="M22.529 6.385c0.001-0.193 0.158-0.348 0.351-0.348s0.351 0.157 0.351 0.351-0.157 0.351-0.351 0.351v0c-0.194-0.001-0.351-0.158-0.351-0.352 0-0 0-0.001 0-0.001v0zM23.407 21.866c-0.026 0.007-0.056 0.011-0.087 0.011-0.164 0-0.301-0.112-0.34-0.264l-0.001-0.002c-0.007-0.027-0.011-0.057-0.011-0.088 0-0.164 0.111-0.302 0.262-0.343l0.003-0.001c0.026-0.007 0.056-0.011 0.086-0.011 0.164 0 0.302 0.112 0.341 0.264l0.001 0.002c0.007 0.027 0.011 0.057 0.011 0.088 0 0.164-0.111 0.302-0.262 0.343l-0.003 0.001zM24.809 10.825c0-0.195 0.158-0.353 0.353-0.353s0.353 0.158 0.353 0.353c0 0.195-0.158 0.353-0.353 0.353v0c-0.195-0-0.353-0.158-0.353-0.353v-0zM25.762 16.861c0.007 0.026 0.010 0.055 0.010 0.085 0 0.194-0.157 0.352-0.352 0.352s-0.352-0.157-0.352-0.352c0-0.163 0.112-0.301 0.263-0.34l0.002-0.001c0.026-0.007 0.055-0.010 0.085-0.010 0.164 0 0.302 0.112 0.342 0.264l0.001 0.002zM23.281 14.056v-0.057c0-0.083 0.067-0.15 0.15-0.15v0h2.369c0.083 0 0.15 0.067 0.15 0.15v0 0.057c0 0.083-0.067 0.15-0.15 0.15v0h-2.369c-0.083 0-0.15-0.067-0.15-0.15v0zM3.384 16.619c0.154 0.041 0.266 0.179 0.266 0.344 0 0.196-0.159 0.355-0.355 0.355s-0.355-0.159-0.355-0.355c0-0.031 0.004-0.062 0.012-0.091l-0.001 0.002c0.041-0.155 0.179-0.267 0.344-0.267 0.031 0 0.062 0.004 0.091 0.012l-0.002-0.001zM3.202 10.832c0-0 0-0.001 0-0.001 0-0.196 0.159-0.355 0.355-0.355s0.355 0.159 0.355 0.355c0 0.196-0.159 0.355-0.355 0.355v0c-0.196-0-0.354-0.159-0.355-0.354v-0zM4.8 13.999v0.057c0 0.083-0.067 0.15-0.15 0.15v0h-2.365c-0.083 0-0.15-0.067-0.15-0.15v0-0.057c0-0.083 0.067-0.15 0.15-0.15v0h2.365c0.083 0 0.15 0.067 0.15 0.15v0zM5.767 21.63c-0.041 0.155-0.179 0.268-0.344 0.268-0.196 0-0.355-0.159-0.355-0.355s0.159-0.355 0.355-0.355c0.031 0 0.062 0.004 0.091 0.012l-0.002-0.001c0.155 0.041 0.267 0.18 0.267 0.345 0 0.031-0.004 0.061-0.011 0.090l0.001-0.002zM5.866 6.037c0.001 0 0.002-0 0.004-0 0.198 0 0.359 0.161 0.359 0.359s-0.161 0.359-0.359 0.359c-0.198 0-0.359-0.161-0.359-0.359v0c0-0.001 0-0.001 0-0.002 0-0.196 0.159-0.356 0.355-0.357h0zM19.59 27.136v-0.386c4.933-2.168 8.316-7.012 8.316-12.646 0-7.607-6.167-13.773-13.773-13.773s-13.773 6.167-13.773 13.773c0 5.634 3.382 10.477 8.227 12.611l0.088 0.035v0.387c-5.138-2.192-8.675-7.2-8.675-13.035 0-7.804 6.327-14.131 14.131-14.131s14.131 6.327 14.131 14.131c0 5.833-3.535 10.841-8.579 12.998l-0.092 0.035zM9.777 2.841c0.196 0 0.355 0.159 0.355 0.355s-0.159 0.355-0.355 0.355c-0.196 0-0.355-0.159-0.355-0.355 0-0 0-0.001 0-0.001v0c0-0.196 0.159-0.354 0.355-0.354 0 0 0 0 0 0h-0zM9.716 23.714c1.612-0.423 3.024-1.008 4.331-1.755l-0.087 0.046c0.027-0.016 0.060-0.025 0.095-0.025s0.068 0.009 0.096 0.025l-0.001-0c1.22 0.695 2.631 1.28 4.118 1.68l0.127 0.029c0.085 0.023 0.146 0.099 0.146 0.189 0 0 0 0 0 0.001v-0 2.161c0 0.015 0 0.032 0 0.049 0 1.774-0.763 3.371-1.979 4.479l-0.005 0.004c-0.97 0.903-2.096 1.403-2.503 1.403s-1.532-0.499-2.503-1.403c-1.22-1.112-1.983-2.709-1.983-4.483 0-0.017 0-0.035 0-0.052l-0 0.003v-2.161c0-0 0-0 0-0.001 0-0.090 0.061-0.167 0.145-0.189l0.001-0zM11.641 26.875l1.728 1.739c0.039 0.039 0.093 0.063 0.153 0.063s0.114-0.024 0.153-0.063l-0 0 3.025-3.043c0.039-0.039 0.063-0.093 0.063-0.153s-0.024-0.114-0.063-0.153v0c-0.039-0.039-0.093-0.064-0.153-0.064s-0.114 0.024-0.153 0.064l-0 0-2.871 2.887-1.576-1.584c-0.039-0.039-0.093-0.064-0.153-0.064s-0.114 0.024-0.153 0.064l-0 0c-0.039 0.039-0.063 0.094-0.063 0.154s0.024 0.114 0.063 0.153l-0-0zM14.193 4.616c-0.083 0-0.15-0.067-0.15-0.15v0-2.364c0-0.083 0.067-0.15 0.15-0.15v0h0.056c0.083 0 0.15 0.067 0.15 0.15v0 2.364c0 0.083-0.067 0.15-0.15 0.15v0h-0.056zM14.085 14.466c0-0.002 0.002-0.002 0.003-0.003-0.027-0.035-0.044-0.079-0.045-0.127v-7.359c0-0.124 0.1-0.224 0.224-0.224v0h0.084c0.124 0 0.224 0.1 0.224 0.224v0 7.359c-0.001 0.039-0.012 0.076-0.030 0.107l0.001-0.001 4.556 3.478c0.080 0.047 0.133 0.132 0.133 0.23 0 0.147-0.119 0.266-0.266 0.266-0.049 0-0.095-0.013-0.135-0.036l0.001 0.001-4.652-3.55c-0.080-0.047-0.133-0.133-0.133-0.231 0-0.049 0.013-0.095 0.036-0.135l-0.001 0.001zM18.661 3.196c0.002-0.194 0.159-0.35 0.353-0.35 0.195 0 0.353 0.158 0.353 0.353s-0.158 0.353-0.353 0.353v0c-0.195-0-0.353-0.158-0.353-0.354 0-0.001 0-0.002 0-0.002v0z"></path>
    </symbol>
  
    <symbol id="icon-milestones">
      <path d="M19.589 27.14v-0.389c7.043-3.035 10.258-11.26 7.103-18.288-3.035-6.774-10.991-9.929-17.839-7.088-7.103 2.961-10.407 11.14-7.372 18.183 1.391 3.23 3.963 5.802 7.193 7.193v0.389c-7.267-3.035-10.647-11.439-7.507-18.677 3.035-6.983 11.17-10.318 18.228-7.477 7.327 2.946 10.811 11.305 7.761 18.572-1.421 3.424-4.142 6.146-7.566 7.581zM9.72 23.716c1.48-0.389 2.916-0.957 4.247-1.705 0.060-0.030 0.135-0.030 0.194 0 1.331 0.748 2.766 1.316 4.247 1.705 0.090 0.015 0.15 0.105 0.15 0.194v2.153c0.015 1.72-0.703 3.379-1.989 4.531-0.972 0.897-2.093 1.406-2.497 1.406s-1.54-0.493-2.497-1.406c-1.271-1.166-2.004-2.811-1.989-4.531v-2.153c-0.015-0.090 0.045-0.179 0.135-0.194zM11.634 26.871l1.735 1.735c0.090 0.090 0.224 0.090 0.299 0l3.021-3.050c0.090-0.090 0.090-0.224 0-0.314s-0.224-0.090-0.299 0l-2.871 2.886-1.57-1.585c-0.090-0.090-0.224-0.090-0.299 0-0.090 0.12-0.090 0.254-0.015 0.329zM24.404 20.725l-5.129-5.114-1.57 1.226-0.105-0.135-0.105 0.15-1.75-1.271-1.585 1.271-0.224-0.284 0.015-0.015-1.585-1.151-1.764 1.436-0.015 0.030-2.079-1.032-4.83 4.905-0.254-0.254 5.951-6.041-1.839-1.989-3.559 3.708-0.254-0.239 3.678-3.843 0.12 0.12 0.135-0.12 1.944 2.108 4.262-4.322v-7.387h0.359v0.060l3.275 1.555 0.269 0.135c0.090 0.045 0.090 0.179 0 0.224l-0.254 0.135-3.29 1.735v3.723l4.262 4.262 2.004-2.183 0.135 0.12 0.135-0.12 3.738 3.903-0.254 0.239-3.604-3.768-1.884 2.049 5.921 5.921-0.269 0.254zM17.196 4.351l-2.976-1.406v2.976l2.976-1.57zM13.951 10.288l-5.174 5.264 1.75 0.882 1.794-1.465 0.015 0.015 0.015-0.030 1.869 1.361 1.465-1.181 0.015 0.015 0.015-0.030 1.839 1.346 1.436-1.121-5.039-5.054z"></path>
    </symbol>

    <symbol id="icon-recurring">
      <path d="M19.589 27.14v-0.386c4.935-2.168 8.319-7.013 8.319-12.649 0-7.608-6.167-13.775-13.775-13.775s-13.775 6.167-13.775 13.775c0 5.634 3.382 10.478 8.227 12.612l0.088 0.035v0.389c-5.138-2.192-8.675-7.2-8.675-13.035 0-7.804 6.327-14.131 14.131-14.131s14.131 6.327 14.131 14.131c0 5.833-3.535 10.841-8.579 12.998l-0.092 0.035zM16.682 4.266h0.051c0.083 0 0.15 0.067 0.15 0.15v0 0.994h3.646c0 0 0.001 0 0.002 0 0.735 0 1.331 0.596 1.331 1.331 0 0 0 0 0 0v0 11.819c0 0 0 0 0 0 0 0.736-0.596 1.332-1.332 1.332-0 0-0 0-0 0h-13.329c-0 0-0 0-0 0-0.736 0-1.333-0.596-1.333-1.332v-11.819c0 0 0 0 0 0 0-0.735 0.596-1.331 1.331-1.331 0.001 0 0.002 0 0.002 0h2.931v-0.994c0-0.083 0.067-0.15 0.15-0.15v0h0.061c0.083 0 0.15 0.067 0.15 0.15v0 0.994h2.837v-0.994c0-0.083 0.067-0.15 0.15-0.15v0h0.061c0.083 0 0.15 0.067 0.15 0.15v0 0.994h2.846v-0.994c0-0.083 0.067-0.15 0.15-0.15 0 0 0 0 0 0v0zM13.687 5.699v0.909c0 0.083-0.067 0.15-0.15 0.15v0h-0.061c-0.083 0-0.15-0.067-0.15-0.15v0-0.909h-2.837v0.909c0 0.083-0.067 0.15-0.15 0.15v0h-0.061c-0.083 0-0.15-0.067-0.15-0.15v0-0.909h-3.109c-0.406 0-0.867 0.504-0.867 0.688v12.351c0 0.064 0.189 0.866 0.689 0.866h14.040c0.287 0.015 0.688-0.682 0.688-0.866v-12.351c0-0.184-0.342-0.6-0.866-0.688h-3.823v0.909c0 0.083-0.067 0.15-0.15 0.15v0h-0.051c-0.083 0-0.15-0.067-0.15-0.15v0-0.909h-2.846zM16.533 10.714c0 0.165-0.134 0.299-0.299 0.299v0h-1.36c-0.165 0-0.299-0.134-0.299-0.299v0-1.355c0-0.165 0.134-0.299 0.299-0.299v0h1.36c0.165 0 0.299 0.134 0.299 0.299v0 1.355zM16.173 9.566c0-0.083-0.067-0.15-0.15-0.15v0h-0.939c-0.083 0-0.15 0.067-0.15 0.15v0 0.944c0 0.083 0.067 0.15 0.15 0.15v0h0.939c0.083 0 0.15-0.067 0.15-0.15v0-0.944zM14.874 11.901h1.36c0.165 0 0.299 0.134 0.299 0.299v0 1.355c0 0.165-0.134 0.299-0.299 0.299v0h-1.36c-0.165 0-0.299-0.134-0.299-0.299v0-1.355c0-0.165 0.134-0.299 0.299-0.299v0zM14.935 13.35c0 0.083 0.067 0.15 0.15 0.15v0h0.939c0.083 0 0.15-0.067 0.15-0.15v0-0.944c0-0.083-0.067-0.15-0.15-0.15v0h-0.939c-0.083 0-0.15 0.067-0.15 0.15v0 0.944zM14.874 14.742h1.36c0.165 0 0.299 0.134 0.299 0.299v0 1.355c0 0.165-0.134 0.299-0.299 0.299v0h-1.36c-0.165 0-0.299-0.134-0.299-0.299v0-1.355c0-0.165 0.134-0.299 0.299-0.299v0zM14.935 16.191c0 0.083 0.067 0.15 0.15 0.15v0h0.939c0.083 0 0.15-0.067 0.15-0.15v0-0.944c0-0.083-0.067-0.15-0.15-0.15v0h-0.939c-0.083 0-0.15 0.067-0.15 0.15v0 0.944zM12.855 16.695h-1.355c-0.165 0-0.299-0.134-0.299-0.299v0-1.355c0-0.165 0.134-0.299 0.299-0.299v0h1.355c0.165 0 0.299 0.134 0.299 0.299v0 1.355c0 0.165-0.134 0.299-0.299 0.299v0zM12.799 15.248c0-0.083-0.067-0.15-0.15-0.15v0h-0.949c-0.083 0-0.15 0.067-0.15 0.15v0 0.944c0 0.083 0.067 0.15 0.15 0.15v0h0.949c0.083 0 0.15-0.067 0.15-0.15v0-0.944zM12.855 13.854h-1.355c-0.165 0-0.299-0.134-0.299-0.299v0-1.355c0-0.165 0.134-0.299 0.299-0.299v0h1.355c0.165 0 0.299 0.134 0.299 0.299v0 1.355c0 0.165-0.134 0.299-0.299 0.299v0zM12.799 12.407c0-0.083-0.067-0.15-0.15-0.15v0h-0.949c-0.083 0-0.15 0.067-0.15 0.15v0 0.944c0 0.083 0.067 0.15 0.15 0.15v0h0.949c0.083 0 0.15-0.067 0.15-0.15v0-0.944zM12.855 11.013h-1.355c-0.165 0-0.299-0.134-0.299-0.299v0-1.355c0-0.165 0.134-0.299 0.299-0.299v0h1.355c0.165 0 0.299 0.134 0.299 0.299v0 1.355c0 0.165-0.134 0.299-0.299 0.299v0zM12.799 9.566c0-0.083-0.067-0.15-0.15-0.15v0h-0.949c-0.083 0-0.15 0.067-0.15 0.15v0 0.944c0 0.083 0.067 0.15 0.15 0.15v0h0.949c0.083 0 0.15-0.067 0.15-0.15v0-0.944zM9.477 16.695h-1.355c-0.165 0-0.299-0.134-0.299-0.299v0-1.355c0-0.165 0.134-0.299 0.299-0.299v0h1.355c0.165 0 0.299 0.134 0.299 0.299v0 1.355c0 0.165-0.134 0.299-0.299 0.299v0zM9.421 15.248c0-0.083-0.067-0.15-0.15-0.15v0h-0.944c-0.083 0-0.15 0.067-0.15 0.15v0 0.944c0 0.083 0.067 0.15 0.15 0.15v0h0.944c0.083 0 0.15-0.067 0.15-0.15v0-0.944zM9.477 13.854h-1.355c-0.165 0-0.299-0.134-0.299-0.299v0-1.355c0-0.165 0.134-0.299 0.299-0.299v0h1.355c0.165 0 0.299 0.134 0.299 0.299v0 1.355c0 0.165-0.134 0.299-0.299 0.299v0zM9.421 12.407c0-0.083-0.067-0.15-0.15-0.15v0h-0.944c-0.083 0-0.15 0.067-0.15 0.15v0 0.944c0 0.083 0.067 0.15 0.15 0.15v0h0.944c0.083 0 0.15-0.067 0.15-0.15v0-0.944zM9.477 11.013h-1.355c-0.165 0-0.299-0.134-0.299-0.299v0-1.355c0-0.165 0.134-0.299 0.299-0.299v0h1.355c0.165 0 0.299 0.134 0.299 0.299v0 1.355c0 0.165-0.134 0.299-0.299 0.299v0zM9.421 9.566c0-0.083-0.067-0.15-0.15-0.15v0h-0.944c-0.083 0-0.15 0.067-0.15 0.15v0 0.944c0 0.083 0.067 0.15 0.15 0.15v0h0.944c0.083 0 0.15-0.067 0.15-0.15v0-0.944zM18.248 9.060h1.36c0.165 0 0.299 0.134 0.299 0.299v0 1.355c0 0.165-0.134 0.299-0.299 0.299v0h-1.36c-0.165 0-0.299-0.134-0.299-0.299v0-1.355c0-0.165 0.134-0.299 0.299-0.299v0zM18.308 10.509c0 0.083 0.067 0.15 0.15 0.15v0h0.944c0.083 0 0.15-0.067 0.15-0.15v0-0.944c0-0.083-0.067-0.15-0.15-0.15v0h-0.944c-0.083 0-0.15 0.067-0.15 0.15v0 0.944zM18.248 11.901h1.36c0.165 0 0.299 0.134 0.299 0.299v0 1.355c0 0.165-0.134 0.299-0.299 0.299v0h-1.36c-0.165 0-0.299-0.134-0.299-0.299v0-1.355c0-0.165 0.134-0.299 0.299-0.299v0zM18.308 13.35c0 0.083 0.067 0.15 0.15 0.15v0h0.944c0.083 0 0.15-0.067 0.15-0.15v0-0.944c0-0.083-0.067-0.15-0.15-0.15v0h-0.944c-0.083 0-0.15 0.067-0.15 0.15v0 0.944zM18.248 14.742h1.36c0.165 0 0.299 0.134 0.299 0.299v0 1.355c0 0.165-0.134 0.299-0.299 0.299v0h-1.36c-0.165 0-0.299-0.134-0.299-0.299v0-1.355c0-0.165 0.134-0.299 0.299-0.299v0zM18.308 16.191c0 0.083 0.067 0.15 0.15 0.15v0h0.944c0.083 0 0.15-0.067 0.15-0.15v0-0.944c0-0.083-0.067-0.15-0.15-0.15v0h-0.944c-0.083 0-0.15 0.067-0.15 0.15v0 0.944zM9.715 23.719c1.612-0.423 3.024-1.008 4.331-1.755l-0.087 0.046c0.027-0.016 0.060-0.025 0.095-0.025s0.068 0.009 0.096 0.025l-0.001-0c1.22 0.695 2.631 1.28 4.118 1.68l0.127 0.029c0.085 0.023 0.146 0.099 0.146 0.189 0 0 0 0 0 0.001v-0 2.161c0 0.015 0 0.032 0 0.049 0 1.774-0.763 3.371-1.979 4.479l-0.005 0.004c-0.97 0.903-2.096 1.403-2.503 1.403s-1.532-0.499-2.503-1.403c-1.22-1.112-1.983-2.709-1.983-4.483 0-0.017 0-0.035 0-0.052l-0 0.003v-2.161c0-0 0-0 0-0.001 0-0.090 0.061-0.167 0.145-0.189l0.001-0zM11.639 26.88l1.728 1.739c0.039 0.039 0.093 0.063 0.153 0.063s0.114-0.024 0.153-0.063l-0 0 3.025-3.043c0.039-0.039 0.063-0.093 0.063-0.153s-0.024-0.114-0.063-0.153v0c-0.039-0.039-0.093-0.064-0.153-0.064s-0.114 0.024-0.153 0.064l-0 0-2.871 2.887-1.576-1.584c-0.039-0.039-0.093-0.064-0.153-0.064s-0.114 0.024-0.153 0.064l-0 0c-0.039 0.039-0.063 0.094-0.063 0.154s0.024 0.114 0.063 0.153l-0-0z"></path>
    </symbol>

    <symbol id="icon-task">
      <path d="M19.589 27.14v-0.386c4.933-2.168 8.316-7.012 8.316-12.646 0-7.607-6.167-13.773-13.773-13.773s-13.773 6.167-13.773 13.773c0 5.634 3.382 10.477 8.227 12.611l0.088 0.035v0.387c-5.138-2.192-8.675-7.2-8.675-13.035 0-7.804 6.327-14.131 14.131-14.131s14.131 6.327 14.131 14.131c0 5.833-3.535 10.841-8.579 12.998l-0.092 0.035zM7.29 16.963c0-0.001 0-0.002 0-0.003 0-0.835 0.677-1.512 1.512-1.512s1.512 0.677 1.512 1.512c0 0.835-0.677 1.512-1.512 1.512v0c-0 0-0 0-0.001 0-0.834 0-1.51-0.675-1.511-1.509v-0zM8.799 18.116c0.637-0 1.153-0.517 1.153-1.154s-0.517-1.154-1.154-1.154c-0.637 0-1.153 0.516-1.154 1.153v0c0 0.638 0.517 1.154 1.154 1.154v0zM10.313 11.813c0 0 0 0.001 0 0.002 0 0.835-0.677 1.512-1.512 1.512s-1.512-0.677-1.512-1.512c0-0.835 0.677-1.512 1.512-1.512v0c0 0 0.001 0 0.002 0 0.834 0 1.51 0.676 1.51 1.51 0 0 0 0 0 0v0zM7.644 11.813c0 0.638 0.517 1.154 1.154 1.154s1.154-0.517 1.154-1.154c0-0.638-0.517-1.154-1.154-1.154v0c-0.637 0-1.154 0.517-1.154 1.154v0zM8.532 7.566l2.007-2.005 0.251 0.251-2.31 2.309-0.251-0.251 0.052-0.052-0.754-0.754 0.233-0.268zM9.715 23.719c1.612-0.423 3.023-1.008 4.33-1.755l-0.087 0.046c0.028-0.016 0.061-0.025 0.096-0.025s0.068 0.009 0.097 0.025l-0.001-0c1.219 0.695 2.63 1.279 4.117 1.68l0.127 0.029c0.085 0.022 0.147 0.099 0.147 0.189 0 0 0 0.001 0 0.001v-0 2.161c0 0.015 0 0.032 0 0.050 0 1.774-0.763 3.37-1.978 4.479l-0.005 0.004c-0.97 0.903-2.096 1.403-2.503 1.403s-1.533-0.499-2.503-1.403c-1.22-1.112-1.983-2.709-1.983-4.483 0-0.017 0-0.035 0-0.052l-0 0.003v-2.161c0-0 0-0.001 0-0.001 0-0.091 0.062-0.167 0.145-0.189l0.001-0zM11.64 26.88l1.729 1.739c0.039 0.039 0.093 0.063 0.153 0.063s0.113-0.024 0.153-0.063v0l3.025-3.043c0.039-0.039 0.063-0.094 0.063-0.153s-0.024-0.114-0.063-0.153l0 0c-0.039-0.039-0.093-0.064-0.153-0.064s-0.114 0.024-0.153 0.064v0l-2.871 2.887-1.576-1.584c-0.039-0.039-0.093-0.063-0.153-0.063-0.119 0-0.216 0.097-0.216 0.216 0 0.060 0.024 0.114 0.064 0.153v0zM19.58 17.939h-7.342c-0.083 0-0.15-0.067-0.15-0.15v0-0.057c0-0.083 0.067-0.15 0.15-0.15v0h7.342c0.083 0 0.15 0.067 0.15 0.15v0 0.057c0 0.083-0.067 0.15-0.15 0.15v0zM12.238 16.341h7.342c0.083 0 0.15 0.067 0.15 0.15v0 0.055c0 0.083-0.067 0.15-0.15 0.15v0h-7.342c-0.083 0-0.15-0.067-0.15-0.15v0-0.055c0-0.083 0.067-0.15 0.15-0.15v0zM21.504 12.64c0 0.083-0.067 0.15-0.15 0.15v0h-9.117c-0.083 0-0.15-0.067-0.15-0.15v0-0.057c0-0.083 0.067-0.15 0.15-0.15v0h9.117c0.083 0 0.15 0.067 0.15 0.15v0 0.057zM21.504 11.397c0 0.083-0.067 0.15-0.15 0.15v0h-9.117c-0.083 0-0.15-0.067-0.15-0.15v0-0.057c0-0.083 0.067-0.15 0.15-0.15v0h9.117c0.083 0 0.15 0.067 0.15 0.15v0 0.057zM21.355 6.397h-9.117c-0.083 0-0.15-0.067-0.15-0.15v0-0.057c0-0.083 0.067-0.15 0.15-0.15v0h9.117c0.083 0 0.15 0.067 0.15 0.15v0 0.057c0 0.083-0.067 0.15-0.15 0.15v0zM21.504 7.495c0 0.083-0.067 0.15-0.15 0.15v0h-9.117c-0.083 0-0.15-0.067-0.15-0.15v0-0.060c0-0.083 0.067-0.15 0.15-0.15v0h9.117c0.083 0 0.15 0.067 0.15 0.15v0 0.060z"></path>
    </symbol>

    <symbol id="icon-search" viewBox="0 0 32 32">
      <path d="M31.4 27.85c0.303 0.275 0.492 0.671 0.492 1.111 0 0.38-0.141 0.726-0.374 0.991l0.001-0.002-1.42 1.6c-0.28 0.248-0.652 0.4-1.058 0.4-0.432 0-0.825-0.171-1.113-0.45l0 0-8.7-8.8c-0.030-0.038-0.060-0.080-0.087-0.125l-0.003-0.006c-1.958 1.346-4.38 2.15-6.99 2.15-6.87 0-12.44-5.57-12.44-12.44s5.57-12.44 12.44-12.44c6.87 0 12.44 5.57 12.44 12.44 0 2.534-0.758 4.891-2.058 6.857l0.029-0.046 0.030-0.050 0.060 0.040zM12.25 2.8h-0.010c-0.003 0-0.007 0-0.010 0-5.236 0-9.48 4.244-9.48 9.48s4.244 9.48 9.48 9.48c5.236 0 9.48-4.244 9.48-9.48v0c0-0.003 0-0.007 0-0.010 0-5.227-4.234-9.464-9.459-9.47h-0.001z"></path>
    </symbol>

    <symbol id="icon-thumbup" viewBox="0 0 34 32">
      <path d="M0 32h6.2v-19.2h-6.2v19.2zM34.13 14.4v-0.050c-0.005-1.72-1.384-3.116-3.097-3.15l-0.003-0h-9.77l1.55-7.36v-0.5c-0.043-0.662-0.273-1.263-0.637-1.759l0.007 0.009v0.010l-1.69-1.6-10.25 10.56c-0.576 0.498-0.938 1.229-0.938 2.046 0 0.072 0.003 0.143 0.008 0.214l-0.001-0.009v-0.010 16.030c0 0 0 0.001 0 0.001 0 1.723 1.374 3.124 3.086 3.169l0.004 0h13.96c1.253-0.026 2.32-0.793 2.782-1.88l0.008-0.020v-0.020l4.66-11.37c0.105-0.278 0.166-0.6 0.166-0.936 0-0.065-0.002-0.129-0.007-0.192l0 0.009v0.010l0.15-3.2z"></path>
    </symbol>
  
    <symbol id="icon-caret" viewBox="0 0 32 32">
      <path d="M28.8 6.2l-12.8 12.8-12.8-12.8-3.2 3.2 16 16.4 16-16.4z"></path>
    </symbol>

    <symbol id="icon-logo" viewBox="0 0 250.7 56.8" enable-background="new 0 0 250.7 56.8" xml:space="preserve" xmlns="http://www.w3.org/2000/svg" xmlns:xlink="http://www.w3.org/1999/xlink">
      <title id="logo-title">Guru</title>
      <path d="M162.4 9.2v16.1c0 5.5-6.6 10.1-14.5 10.1 -7.9 0-14.5-4.6-14.5-10.1V9.4h-5.9v15.8c0 8.8 9.2 16 20.4 16 11.3 0 20.4-7.2 20.4-16V9.2H162.4z"></path>
      <path d="M244.8 9.2v16.1c0 5.5-6.6 10.1-14.5 10.1 -7.9 0-14.5-4.6-14.5-10.1V9.4h-5.9v15.8c0 8.8 9.2 16 20.4 16 11.3 0 20.4-7.2 20.4-16V9.2H244.8z"></path>
      <path d="M178.6 41.3h-5.9V9.2h5.9v13c9.2-12 26-13 26.2-13l0.3 5.9C204 15.2 178.6 16.7 178.6 41.3z"></path>
      <path d="M118 9.2v4.8c-3.7-2.9-8.8-4.8-14.5-4.8 -11.3 0-20.4 7.2-20.4 16 0 8.8 9.2 16 20.4 16 5.7 0 10.8-1.8 14.5-4.8v4.3c0 5.5-6.6 10.1-14.5 10.1 -6.3 0-11.8-3-13.7-7l-5.7 1.8c2.6 6.5 10.4 11.2 19.4 11.2 11 0 20-6.9 20.4-15.5h0V9.2H118zM103.5 35.3c-7.9 0-14.5-4.6-14.5-10.1 0-5.5 6.6-10.1 14.5-10.1 7.9 0 14.5 4.6 14.5 10.1C118 30.7 111.4 35.3 103.5 35.3z"></path>
      <path d="M46.6 33.9c2.8 0.7 5.5 1.6 8.1 2.9 2.6 1.2 4.9 2.7 7.1 4.4 2.2 1.7 4.2 3.6 6.1 5.7 1.9 2.1 3.5 4.3 4.9 6.8H62.3c-1.6-1.9-3.3-3.6-5.2-5.1 -1.9-1.5-4-2.8-6.2-3.9 -2.2-1.1-4.5-1.9-6.9-2.5 -2.4-0.6-4.9-0.9-7.6-0.9 -2.7 0-5.2 0.3-7.7 0.9 -2.5 0.6-4.8 1.4-6.9 2.5 -2.2 1.1-4.2 2.4-6.1 3.9 -1.9 1.5-3.7 3.2-5.2 5.1H0c1.4-2.5 3-4.7 4.9-6.9 1.9-2.1 3.9-4 6.2-5.7 2.3-1.7 4.7-3.1 7.2-4.3 2.6-1.2 5.3-2.2 8.1-2.9 -2.5-0.6-4.8-1.4-6.9-2.4 -2.2-1-4.2-2.2-6.2-3.6 -2-1.4-3.8-2.9-5.5-4.6 -1.7-1.7-3.2-3.6-4.6-5.5 0.7-1.1 1.4-2.1 2.3-3.1 0.8-1 1.7-1.9 2.6-2.8S9.9 10 11 9.2c1-0.8 2-1.6 3-2.3 0.1-0.9 0.3-1.7 0.7-2.4 0.4-0.7 0.9-1.4 1.5-2 0.6-0.6 1.3-1.1 2.1-1.4 0.8-0.3 1.6-0.5 2.5-0.5 1 0 1.9 0.2 2.7 0.6 0.8 0.4 1.6 0.9 2.2 1.5 0.6 0.6 1.2 1.4 1.5 2.2C27.8 5.8 28 6.7 28 7.7c0 1-0.2 1.9-0.6 2.7 -0.4 0.8-0.9 1.6-1.5 2.2 -0.6 0.6-1.4 1.1-2.2 1.5 -0.8 0.3-1.7 0.5-2.7 0.5 -0.2 0-0.4 0-0.7 0 -0.2 0-0.5 0-0.7-0.1 -0.2 0-0.4-0.1-0.7-0.2 -0.2-0.1-0.5-0.2-0.7-0.3 -0.4 0.3-0.8 0.6-1.1 0.9 -0.3 0.3-0.7 0.6-1.1 0.9 -0.4 0.3-0.8 0.6-1.1 0.9 -0.3 0.3-0.7 0.6-1 1 1.5 1.4 3 2.7 4.7 3.8 1.7 1.2 3.5 2.2 5.4 2.9 1.9 0.8 3.9 1.4 6 1.8 2.1 0.4 4.3 0.7 6.4 0.7 2.2 0 4.3-0.2 6.4-0.7 2.1-0.4 4.1-1.1 6-1.8 1.9-0.8 3.7-1.8 5.4-2.9 1.7-1.2 3.2-2.5 4.7-3.8h0.1c0-0.1 0-0.2 0-0.3 0-0.1 0-0.2 0-0.3 0-0.1 0-0.2 0-0.3 0-0.1 0-0.2 0-0.3 0-1 0.2-1.9 0.5-2.8 0.3-0.9 0.9-1.7 1.5-2.4 0.7-0.7 1.5-1.2 2.4-1.5 0.9-0.3 1.8-0.5 2.8-0.5 1 0 1.9 0.2 2.8 0.5 0.9 0.3 1.6 0.9 2.3 1.5 0.6 0.7 1.2 1.5 1.5 2.4 0.4 0.9 0.6 1.8 0.6 2.8 0 1-0.2 1.9-0.6 2.8 -0.4 0.9-0.9 1.6-1.5 2.3 -0.6 0.6-1.4 1.2-2.3 1.5 -0.9 0.4-1.8 0.6-2.8 0.6 -0.2 0-0.3 0-0.4 0 -0.1 0-0.2 0-0.4 0 -0.1 0-0.3 0-0.4-0.1 -0.1 0-0.2-0.1-0.4-0.1 -1.2 1.2-2.5 2.3-3.9 3.4 -1.4 1.1-2.9 2.1-4.4 2.9 -1.5 0.9-3.1 1.7-4.8 2.4C50.1 33 48.3 33.5 46.6 33.9z"></path>
      <path fill="currentColor" id="arch" d="M32 8.7c0-0.1 0-0.2 0-0.3 0-0.1 0-0.2 0-0.3 0-0.1 0-0.2 0-0.3s0-0.2 0-0.3c0-0.6-0.1-1.2-0.1-1.8 -0.1-0.6-0.2-1.3-0.4-1.8 -0.2-0.6-0.5-1.2-0.8-1.7 -0.3-0.5-0.7-1.1-1-1.5 0.5-0.1 1-0.2 1.6-0.2 0.6 0 1.2-0.1 1.8-0.1 0.6 0 1.2-0.1 1.8-0.1C35.4 0 36 0 36.5 0c2.2 0 4.3 0.2 6.4 0.5 2.1 0.3 4.1 0.8 6.1 1.5 2 0.6 3.9 1.4 5.7 2.4 1.8 0.9 3.6 2 5.2 3.2 -0.6 0.4-1.1 0.9-1.6 1.4 -0.5 0.5-0.9 1.1-1.3 1.7 -0.3 0.6-0.7 1.2-1 1.9 -0.3 0.7-0.5 1.4-0.6 2.1 -1.3-1-2.7-1.9-4.2-2.7 -1.5-0.8-3.1-1.4-4.6-2 -1.6-0.5-3.2-0.9-4.9-1.2 -1.7-0.2-3.5-0.4-5.2-0.4 -0.4 0-0.8 0-1.2 0 -0.4 0-0.8 0-1.2 0 -0.4 0-0.8 0-1.1 0.1C32.7 8.5 32.4 8.6 32 8.7z"></path>
      <path d="M29.9 18.3c0-1 0.2-1.9 0.6-2.7 0.4-0.8 0.9-1.6 1.5-2.2 0.6-0.6 1.4-1.2 2.2-1.5 0.8-0.4 1.7-0.6 2.7-0.6 1 0 1.9 0.2 2.8 0.6 0.9 0.4 1.6 0.9 2.3 1.5 0.6 0.6 1.1 1.4 1.5 2.2 0.3 0.8 0.5 1.7 0.5 2.7 0 1-0.2 1.9-0.5 2.7 -0.3 0.8-0.8 1.6-1.5 2.2 -0.6 0.6-1.4 1.2-2.3 1.5 -0.9 0.4-1.8 0.6-2.8 0.6 -1 0-1.9-0.2-2.7-0.6 -0.8-0.4-1.6-0.9-2.2-1.5 -0.6-0.6-1.2-1.4-1.5-2.2C30.1 20.2 29.9 19.3 29.9 18.3z"></path>
    </symbol>    
  
    <symbol id="icon-searchjobskill" viewBox="0 0 35 35">
      <title>Search For Jobs by Skill</title>
      <path fill="currentColor" d="M17.5 35A17.5 17.5 0 1 1 35 17.5 17.5 17.5 0 0 1 17.5 35zm0-33.44A15.94 15.94 0 1 0 33.44 17.5 15.94 15.94 0 0 0 17.5 1.56zm-2.86 23.18a.57.57 0 0 1-.17.12L9.3 27.18a.54.54 0 0 1-.7-.72l1.27-3.07.96-2.34a.53.53 0 0 1 .11-.18L21.97 9.36a2.54 2.54 0 0 1 3.7 0 2.8 2.8 0 0 1 0 3.86zm.18-1.73l7.52-7.85-.74-.78L14.2 22a5.02 5.02 0 0 1 .62 1.01zm-4.24 1.4l-.5 1.22 1.16-.52a4.18 4.18 0 0 0-.3-.37l-.36-.33zm1.17-2.84L11 23.38a5.15 5.15 0 0 1 .67.59 4.58 4.58 0 0 1 .56.7l1.74-.78.05-.05a3.83 3.83 0 0 0-.86-1.42 3.7 3.7 0 0 0-1.37-.9zm8.37-8.73l-7.53 7.85a4.88 4.88 0 0 1 .86.54l7.4-7.62zm1.48-1.55l-.74.77 2.22 2.32.74-.77zm3.34-1.16a1.53 1.53 0 0 0-2.23 0l-.37.39 2.22 2.32.38-.39a1.7 1.7 0 0 0 0-2.32zM11.7 15.12a3.29 3.29 0 1 1 3.15-3.28 3.22 3.22 0 0 1-3.15 3.28zm0-5.47a2.19 2.19 0 1 0 2.1 2.19 2.15 2.15 0 0 0-2.1-2.19zm8.98 11.01h5.24a.53.53 0 0 1 .53.54v5.47a.54.54 0 0 1-.53.55h-5.24a.54.54 0 0 1-.52-.55V21.2a.53.53 0 0 1 .52-.54zm.52 5.46h4.2v-4.37h-4.2v4.37z"/>
    </symbol>
  
    <symbol id="icon-searchgurukill" viewBox="0 0 35 35">
      <title>Search Freelancers by Location</title>
      <path fill="currentColor" d="M17.5 35A17.5 17.5 0 1 1 35 17.5 17.5 17.5 0 0 1 17.5 35zm0-33.44A15.94 15.94 0 1 0 33.44 17.5 15.94 15.94 0 0 0 17.5 1.56zm12.36 18.2l-1.45 1.58-7.24 7.84a.45.45 0 0 1-.2.13l-2.4.67a.46.46 0 0 1-.11.02.42.42 0 0 1-.33-.15.51.51 0 0 1-.11-.47l.62-2.59a.53.53 0 0 1 .12-.23l7.23-7.84 1.46-1.58a.44.44 0 0 1 .64 0l1.77 1.92a.53.53 0 0 1 0 .7zM19.5 27.17l-.4 1.64 1.52-.42 6.82-7.4-1.12-1.22zm8.28-8.98l-.81.88 1.12 1.22.82-.88zm-5.13 1.97a5.18 5.18 0 0 1-3-1.81.59.59 0 1 1 .68-.96 4.25 4.25 0 0 0 2.63 1.64.07.07 0 0 0 .05.01 2.99 2.99 0 0 1 .48.24l-.73.94-.11-.06zm-5.59-2.84h-.14a4.06 4.06 0 0 1-3.09-1.33c-1.68-1.89-1.4-5.13-1.37-5.44a4.42 4.42 0 0 1 2.15-3.96 4.9 4.9 0 0 1 2.36-.6h.07a5 5 0 0 1 2.36.61 4.44 4.44 0 0 1 2.13 3.95c.03.31.3 3.55-1.38 5.44a4.08 4.08 0 0 1-3.09 1.33zm3.3-6.66a.08.08 0 0 1 0-.03C20.2 7.67 18.18 7.19 17 7.17h-.05c-.96 0-3.19.33-3.33 3.46a.18.18 0 0 0 0 .03c0 .03-.3 3 1.08 4.55a2.87 2.87 0 0 0 2.26.93H17a2.88 2.88 0 0 0 2.26-.93c1.4-1.56 1.08-4.52 1.08-4.55zm-5.87 6.87a.57.57 0 0 1-.14.81 13.78 13.78 0 0 1-4 1.82c-1.02.36-1.14 1.44-1.17 2.44v.11a7.39 7.39 0 0 0 .1 1.34c.7.4 1.5 1.79 5.72 1.79a18.56 18.56 0 0 0 2.59-.19l-.99 1.29c-.51.04-1.03.07-1.6.07-5.26 0-6.41-1.99-6.55-2.08a.59.59 0 0 1-.22-.27A6.67 6.67 0 0 1 8 22.68v-.01a.92.92 0 0 0 0-.11c.03-.86.09-2.87 1.99-3.52l.04-.01a12.56 12.56 0 0 0 3.64-1.65.59.59 0 0 1 .82.15z"/>
    </symbol>

    <symbol id="icon-searchgurulocation" viewBox="0 0 35 35">
      <title>Search Freelancers by Location</title>
      <path fill="currentColor" d="M17.5 35A17.5 17.5 0 1 1 35 17.5 17.5 17.5 0 0 1 17.5 35zm0-33.44A15.94 15.94 0 1 0 33.44 17.5 15.94 15.94 0 0 0 17.5 1.56zm8.3 16.21a8.8 8.8 0 0 1-.57 1.74 24.68 24.68 0 0 1-7.35 9.34.58.58 0 0 1-.76 0 24.64 24.64 0 0 1-7.36-9.34 9.08 9.08 0 0 1-.56-1.74 4.82 4.82 0 0 1-.06-.3 8.95 8.95 0 0 1-.15-1.65 8.52 8.52 0 1 1 17.02 0 9.3 9.3 0 0 1-.15 1.65l-.06.3zm-8.3-9.52a7.45 7.45 0 0 0-7.31 7.57 7.7 7.7 0 0 0 .13 1.43v.04l.04.19v.01a7.67 7.67 0 0 0 .5 1.5.03.03 0 0 0 0 .02 22.92 22.92 0 0 0 6.63 8.55 22.92 22.92 0 0 0 6.62-8.55.03.03 0 0 0 .01-.02 7.3 7.3 0 0 0 .5-1.5v-.01l.04-.19v-.03a7.8 7.8 0 0 0 .13-1.44 7.45 7.45 0 0 0-7.29-7.57zm0 13.26a5.6 5.6 0 1 1 5.4-5.59 5.5 5.5 0 0 1-5.4 5.59zm0-9.94a4.35 4.35 0 1 0 4.2 4.35 4.28 4.28 0 0 0-4.2-4.35z"/>
    </symbol>

    <symbol id="icon-location-pin" viewBox="0 0 20 20">
      <path fill="currentColor" d="M10,1.375c-3.17,0-5.75,2.548-5.75,5.682c0,6.685,5.259,11.276,5.483,11.469c0.152,0.132,0.382,0.132,0.534,0c0.224-0.193,5.481-4.784,5.483-11.469C15.75,3.923,13.171,1.375,10,1.375 M10,17.653c-1.064-1.024-4.929-5.127-4.929-10.596c0-2.68,2.212-4.861,4.929-4.861s4.929,2.181,4.929,4.861C14.927,12.518,11.063,16.627,10,17.653 M10,3.839c-1.815,0-3.286,1.47-3.286,3.286s1.47,3.286,3.286,3.286s3.286-1.47,3.286-3.286S11.815,3.839,10,3.839 M10,9.589c-1.359,0-2.464-1.105-2.464-2.464S8.641,4.661,10,4.661s2.464,1.105,2.464,2.464S11.359,9.589,10,9.589"></path>
    </symbol>
</defs>
</svg>
