<svg style="position: absolute; width: 0; height: 0; overflow: hidden;" version="1.1" xmlns="http://www.w3.org/2000/svg" xmlns:xlink="http://www.w3.org/1999/xlink">
  <defs>

    <!-- Hire icons -->
    <symbol id="icon-banner-find" viewBox="0 0 69.969 69.969">
      <path d="M134.141,379.187A34.984,34.984,0,1,1,169.125,344.2,34.984,34.984,0,0,1,134.141,379.187Zm0.007-67.769a32.769,32.769,0,1,0,32.768,32.769A32.769,32.769,0,0,0,134.148,311.418Zm17.484,53.171a4.538,4.538,0,0,0-.326.4h-0.1q-6.357-6.357-12.716-12.712c-0.2-.2-0.43-0.39-0.632-0.571l2.227-2.2-2.473-2.479a14.914,14.914,0,1,1,1.3-1.3c0.405,0.37.832,0.734,1.228,1.129s0.768,0.823,1.16,1.248l2.219-2.233L157,359.346a4.119,4.119,0,0,0-.5.38Q154.06,362.15,151.632,364.589Zm-10.746-28.745a13.052,13.052,0,1,0-13.063,13.03A13.072,13.072,0,0,0,140.886,335.844Zm2.789,12.61-3.21,3.2,0.889,0.867,3.172-3.148Zm2.274,2.293c-1.06,1.058-2.137,2.132-3.173,3.164l6.142,6.151L152.1,356.9C150.048,354.846,147.962,352.761,145.949,350.747Zm7.6,7.572-3.189,3.19,0.829,0.852,3.227-3.217ZM133.84,344.23a6.886,6.886,0,0,0-12.008,0l-1.568-.863a8.682,8.682,0,0,1,15.126-.029,1.422,1.422,0,0,1-.141.109C134.8,343.7,134.346,343.951,133.84,344.23Zm-6.219-6.47a5.406,5.406,0,1,1,5.626-5.261A5.438,5.438,0,0,1,127.621,337.76Zm0.2-9.011a3.611,3.611,0,1,0,3.608,3.6A3.639,3.639,0,0,0,127.825,328.749Z" transform="translate(-99.156 -309.219)"/>
    </symbol>

    <symbol id="icon-banner-connect" viewBox="0 0 69.969 69.969">
        <path d="M338.8,378.344a34.985,34.985,0,1,1,34.984-34.985A34.985,34.985,0,0,1,338.8,378.344Zm-0.017-67.736a32.768,32.768,0,1,0,32.768,32.768A32.769,32.769,0,0,0,338.78,310.608ZM363.949,344H344v-2a10,10,0,0,1,20,0v2h-0.051ZM354,334a8,8,0,0,0-8,8h16A8,8,0,0,0,354,334Zm0.236-4.441a4.611,4.611,0,1,1,4.61-4.611A4.578,4.578,0,0,1,354.236,329.559Zm0-7.381a2.77,2.77,0,1,0,2.769,2.77A2.719,2.719,0,0,0,354.236,322.178Zm-3.982,23.8,1.849,0.274c-1.548,8.213-9.344,10.93-9.344,10.93l3.62,1.708-0.832,1.664-5.716-2.77a0.92,0.92,0,0,1-.46-1.2l2.769-5.718,1.664,0.832-1.77,3.762S349.59,352.622,350.254,345.976Zm-10.777-13.01-1.655-.832,1.726-3.655s-6.823,2.761-8,9.381l-1.85-.274a15.361,15.361,0,0,1,9.229-10.912l-3.6-1.735,0.832-1.664,5.716,2.77a0.921,0.921,0,0,1,.46,1.2Zm-7.389,13.2a4.61,4.61,0,1,1-4.61-4.611A4.563,4.563,0,0,1,332.088,346.162Zm-4.61-2.77a2.77,2.77,0,1,0,2.77,2.77A2.724,2.724,0,0,0,327.478,343.392ZM337,363v2H317v-2A10,10,0,0,1,337,363Zm-18,0h16A8,8,0,0,0,319,363Z" transform="translate(-303.813 -308.375)"/>
    </symbol>

    <symbol id="icon-banner-choose" viewBox="0 0 69.968 69.969">
      <path d="M35 70a35 35 0 1 1 35-35c0 19-16 35-35 35zm0-68a33 33 0 1 0 33 33C68 17 53 2 35 2zm5 59c-4 0-8-1-10-4L18 45v-5l3-1 2 1 5 3V22c0-2 1-4 3-4s4 1 4 3v6s3-2 6 2c0 0 4-1 6 2 0 0 4-2 4 3v15c0 7-5 12-11 12zm9-27l-2-2-1 2v5l-1 1-1-1v-7l-2-2-2 2v7h-1v-1c0 1 0 1 0 0v-8l-2-2-2 3v8l-1 1-1-1V22l-1-2-2 1v23l-1 1h-1l-6-3-1-1-2 2 1 1 11 12c2 2 5 3 9 3 5 0 9-4 9-10V34zM37 18l5-5 1 1-4 5-2-1zM31 8h2v7h-2V8zm-13 7l2-2 5 5-2 2-5-5z"/>
    </symbol>

    <symbol id="icon-post" viewBox="0 0 260 260">
      <path d="M354,820A130,130,0,1,1,484,690,130,130,0,0,1,354,820Zm0-257.344A127.344,127.344,0,1,0,481.344,690,127.344,127.344,0,0,0,354,562.656Zm27.895,168.6a1.3,1.3,0,0,1-.381.253l-7.231,3.284a1.27,1.27,0,0,1-1.678-1.674L375.9,725.9a1.266,1.266,0,0,1,.254-0.38l44.735-44.69a1.272,1.272,0,0,1,1.792,0l3.952,3.943a1.266,1.266,0,0,1,0,1.788Zm-4.448-2.7-1.131,2.536,2.491-1.179Zm1.4-2.13,2.147,2.13,38.382-38.287-2.2-2.155Zm42.943-42.9-2.808,2.8,2.147,2.142,2.809-2.8ZM393.4,743.43H320.521v-2.536H393.4v2.536Zm-72.874-26.411H363.4v2.536H320.521v-2.536Zm0-14.375h60.166v2.536H320.521v-2.536ZM318,636h27v27H318V636Zm2,25h23V638H320v23ZM393.4,646.019v2.536H360.521v-2.536H393.4Zm0,32.536H320.521v-2.536H393.4v2.536Zm0,26.625h-2.541v-2.536H393.4v2.536Zm-8.895,0v-2.536h2.541v2.536H384.5Zm-63.979-18.411H393.4v2.536H320.521v-2.536Zm81.77-55.365v-0.013a1.7,1.7,0,0,0-1.691-1.711H365.393l-1.874,6.807a3.882,3.882,0,0,1-4.69,2.365,3.807,3.807,0,0,1-2.689-4.665l0.168-.614,1.068-3.893H311.4a4.33,4.33,0,0,1,.229,1.382V754.857c0,0.018,0,.035,0,0.053a0.61,0.61,0,0,0,.659.556h89.394a0.61,0.61,0,0,0,.61-0.609v-40.8h2.541v40.853a3.148,3.148,0,0,1-3.2,3.093H312.236a3.147,3.147,0,0,1-3.152-3.144V703.626h-9.125A3.058,3.058,0,0,1,297,700.469V631.226a4.394,4.394,0,0,1,1.856-3.638c0.859-.574,8.93-0.737,9.922-0.444h49.292l1.278-4.661a7.714,7.714,0,0,1-2.261-7.713,8.1,8.1,0,0,1,10.271-5.412,7.773,7.773,0,0,1-.525,15.085l-0.744,2.7H400.6a4.252,4.252,0,0,1,4.232,4.26v62.365h-2.541V631.4Zm-93.207-.342a1.581,1.581,0,0,0-.737-1.382h-7.533v-0.165a0.944,0.944,0,0,0-.547.165,1.9,1.9,0,0,0-.724,1.546v69.256a0.551,0.551,0,0,0,.419.609h9.122V631.062Zm49.5,2.191-0.006.023L358.16,634.8a1.71,1.71,0,0,0,1.25,2.09,1.758,1.758,0,0,0,2.152-1.2l3.027-11.04a8.45,8.45,0,0,1-1.751-.263,8.335,8.335,0,0,1-1.651-.628ZM370.7,618.334a5.817,5.817,0,0,0-4.25-7.108,5.98,5.98,0,0,0-7.318,4.079,5.816,5.816,0,0,0,4.25,7.107A5.98,5.98,0,0,0,370.7,618.334Z" transform="translate(-224 -560)"/>
    </symbol>

    <symbol id="icon-find" viewBox="0 0 260 260">
      <path d="M1011,1216a130,130,0,1,1,130-130A130,130,0,0,1,1011,1216Zm0-257.344A127.342,127.342,0,1,0,1138.34,1086,127.344,127.344,0,0,0,1011,958.656ZM1092.82,1100h-36.13c-0.26-.67-0.54-1.34-0.84-2h36.79a31.866,31.866,0,0,0-53.38-19.9c-0.56-.38-1.14-0.75-1.72-1.12a33.893,33.893,0,0,1,57.29,23.08h-2.01V1100Zm-32.16-36.23a16.385,16.385,0,1,1,16.5-16.38A16.438,16.438,0,0,1,1060.66,1063.77Zm0.01-30.84a14.46,14.46,0,1,0,14.54,14.46A14.5,14.5,0,0,0,1060.67,1032.93Zm-48.57,34.27a21.6,21.6,0,1,1,21.65-21.6A21.623,21.623,0,0,1,1012.1,1067.2Zm0-41.04a19.44,19.44,0,1,0,19.48,19.44A19.461,19.461,0,0,0,1012.1,1026.16Zm-27.693,53.65A31.881,31.881,0,0,0,929.3,1098h40.844c-0.294.66-.574,1.33-0.839,2H929.126c0,0.02,0,.04,0,0.06h-2.007c0-.02,0-0.04,0-0.06H927v-2h0.259a33.921,33.921,0,0,1,58.773-19.39q-0.825.585-1.625,1.2h0Zm-23.743-16.04a16.385,16.385,0,1,1,16.492-16.38A16.434,16.434,0,0,1,960.664,1063.77Zm0-30.84a14.46,14.46,0,1,0,14.541,14.46A14.505,14.505,0,0,0,960.667,1032.93Zm51.833,39.27a44.439,44.439,0,0,1,44.4,41.8h0.1v2h-19.05c-0.03-.67-0.08-1.34-0.17-2h17.34a42.7,42.7,0,0,0-85.238,0h22.336c-0.086.66-.139,1.33-0.168,2H968v-2h0.1A44.44,44.44,0,0,1,1012.5,1072.2Zm2.46,30.8a21.015,21.015,0,0,1,14.83,35.84l14.83,15.46a1.008,1.008,0,0,1-.03,1.42,0.991,0.991,0,0,1-1.41-.03l-14.87-15.5a20.8,20.8,0,0,1-13.35,4.84A21.015,21.015,0,0,1,1014.96,1103Zm0,40.02a19.01,19.01,0,1,0-18.968-19.01A19,19,0,0,0,1014.96,1143.02Z" transform="translate(-881 -956)"/>
    </symbol>

    <symbol id="icon-qa" viewBox="0 0 260 260">
      <path d="M354,1607a130,130,0,1,1,130-130A130,130,0,0,1,354,1607Zm0-257.34A127.34,127.34,0,1,0,481.344,1477,127.341,127.341,0,0,0,354,1349.66Zm68.265,104.58H404.153v2.8a1.944,1.944,0,0,1-1.22,1.81,1.99,1.99,0,0,1-2.152-.42l-4.235-4.19H388.6a4.715,4.715,0,0,1-4.734-4.69v-0.14a23.7,23.7,0,0,1-2.556.73v3.68a2.3,2.3,0,0,1-1.438,2.13,2.336,2.336,0,0,1-.894.18,2.307,2.307,0,0,1-1.645-.68l-5.322-5.26a21.612,21.612,0,0,1-12.684-8.04,21.19,21.19,0,0,1-4.206-15.05,21.6,21.6,0,0,1,42.185-3.64h24.964a4.713,4.713,0,0,1,4.735,4.68v21.41A4.715,4.715,0,0,1,422.265,1454.24Zm-32.814-39.14a19.21,19.21,0,0,0-12.854-4.87,21.055,21.055,0,0,0-2.234.12,19.3,19.3,0,0,0-11.5,5.55,18.915,18.915,0,0,0-1.736,24.91,19.288,19.288,0,0,0,11.661,7.26,1.084,1.084,0,0,1,.577.31l5.56,5.5a0.06,0.06,0,0,0,.082.01,0.061,0.061,0,0,0,.047-0.07v-4.59a1.109,1.109,0,0,1,.929-1.1A19.025,19.025,0,0,0,389.451,1415.1Zm35.294,13.04a2.468,2.468,0,0,0-2.48-2.45H397.82a21.2,21.2,0,0,1-11.7,22.78v1.08a2.471,2.471,0,0,0,2.481,2.46h8.417a1.123,1.123,0,0,1,.8.32l4.088,4.05v-3.26a1.121,1.121,0,0,1,1.127-1.11h19.24a2.47,2.47,0,0,0,2.48-2.46h0v-21.41Zm-18.518,17.44a1.127,1.127,0,0,1-1.594,0l-6.01-5.94a1.111,1.111,0,0,1,0-1.58,1.147,1.147,0,0,1,1.6,0l5.212,5.16,11.228-11.11a1.146,1.146,0,0,1,1.594,0,1.111,1.111,0,0,1,0,1.58Zm-27.6-13.05a1.27,1.27,0,0,0-.926,1.21v0.35a1.128,1.128,0,0,1-2.255,0v-0.35a3.48,3.48,0,0,1,2.534-3.34,4.871,4.871,0,0,0,3.479-4.63,4.756,4.756,0,0,0-1.457-3.39,4.86,4.86,0,0,0-8.313,3.39,1.128,1.128,0,0,1-2.255,0,7.122,7.122,0,0,1,12.162-4.97,6.969,6.969,0,0,1,2.118,4.97A7.108,7.108,0,0,1,378.624,1432.53Zm-2.054,5.21h0a1.121,1.121,0,0,1,1.128,1.11h0a1.123,1.123,0,0,1-1.128,1.12h0a1.123,1.123,0,0,1-1.128-1.12h0A1.121,1.121,0,0,1,376.57,1437.74Zm-34.07,36.1a24.334,24.334,0,0,0,24.232-22.13c0.664,0.4,1.338.78,2.037,1.12a26.514,26.514,0,1,1-15.549-27.55c-0.1.76-.143,1.53-0.171,2.31A24.331,24.331,0,1,0,342.5,1473.84Zm54.3,58.91H396V1533H290v-0.25h-0.177A53.519,53.519,0,0,1,396.8,1532.75ZM291.6,1531H395.061A51.851,51.851,0,0,0,291.6,1531Z" transform="translate(-224 -1347)"/>
    </symbol>

    <symbol id="icon-select" viewBox="0 0 260 260">
      <path d="M130 260a130 130 0 1 1 0-260 130 130 0 0 1 0 260zm0-257a127 127 0 1 0 127 127C257 60 200 3 130 3zm79 182h-36l-1-2h37a32 32 0 0 0-54-20l-1-1a34 34 0 0 1 57 23h-2zm-32-36c-9 0-17-8-17-17s8-16 17-16 16 7 16 16c0 10-7 17-16 17zm0-31c-8 0-15 7-15 14 0 8 7 15 15 15a14 14 0 1 0 0-29zm-7-62v5c1 1 0 2-1 3l-2-1-5-2-4 2c-1 1-3 0-3-1v-1l1-5-4-4v-3l1-1 5-1 3-4c0-1 1-2 3-1l1 1 2 5h5l2 3-1 1-3 4zm-3-6l-2-1-2-5-3 5-1 1h-5l3 4 1 2-1 5 4-2h2l5 2-1-5 1-2 3-3-4-1zm-16 31l-48 34-2-2 32-34-16-7-1-2 21-15v3l-4 12 18 10v1zm-19-10l-1-1 4-10-16 11 16 7 1 2-27 28 39-27-16-10zm13-24l1 6-2 2h-1l-5-3-5 3-2-1-1-2 1-5-3-3-1-3 2-1 5-1 2-5 3-1 1 1 3 5 5 1 2 2-1 1-4 4zm-3-6l-1-1-3-5-2 5-2 1-5 1 4 4 1 2-1 5 4-3h2l5 3-1-5v-2l4-4-5-1zm-21 15l1 5-2 3-1-1-5-2-5 2-1 1-1-1-1-2 1-5-4-4v-3l1-1h6l2-5c1-1 2-2 3-1l1 1 2 5h6c1 1 2 2 1 3v1l-4 4zm-3-6l-2-1-2-5-2 5-2 1h-5l4 4v2l-1 5 5-2h2l4 2-1-5 1-2 4-3-5-1zm-18 115a32 32 0 0 0-55 18h41l-1 2H43v-2a34 34 0 0 1 59-19l-2 1zm-23-16c-9 0-17-8-17-17 1-9 8-16 17-16s16 7 16 16c0 10-7 17-16 17zm0-31c-8 0-15 7-15 14 0 8 7 15 15 15a14 14 0 1 0 0-29zm29 13c0-12 10-22 22-22s22 9 22 21-10 22-22 22-21-9-22-21zm42 0a19 19 0 1 0-20 19c11 0 20-9 20-19zm-19 26c23 0 43 18 44 42v2h-22v-2h20a43 43 0 0 0-85 0h68v2H84v-2c2-23 21-42 45-42z"/>
    </symbol>

    <symbol id="icon-hire" viewBox="0 0 260 260">
      <path class="st0" d="m130 260c-71.8 0-130-58.2-130-130s58.2-130 130-130 130 58.2 130 130-58.2 130-130 130zm0-257.3c-70.3 0-127.3 57-127.3 127.3s57 127.3 127.3 127.3 127.3-57 127.3-127.3-57-127.3-127.3-127.3zm78.8 144.3h-34.2c-0.4-0.7-0.9-1.4-1.4-2h35.4c-1.9-17.5-17.6-30.1-35.1-28.2-6.8 0.7-13.2 3.7-18.3 8.3-0.6-0.4-1.1-0.8-1.7-1.1 13.5-12.9 35-12.5 47.9 1.1 5.7 6 9 13.8 9.4 22l-2-0.1zm-32.1-36.2c-9-0.1-16.3-7.4-16.3-16.5 0.1-9 7.4-16.3 16.5-16.3 9 0.1 16.3 7.4 16.3 16.4-0.1 9.1-7.5 16.4-16.5 16.4zm0-30.9c-8 0-14.4 6.6-14.4 14.5s6.6 14.4 14.5 14.4c8 0 14.4-6.5 14.4-14.5 0-7.9-6.5-14.4-14.5-14.4zm-22.1 47.7c0.8 0.6 1.6 1.2 2.4 1.9 0.1 0.1 0.2 0.1 0.2 0.2 0.8 0.6 1.5 1.3 2.2 2l0.2 0.2c0.7 0.7 1.4 1.4 2 2.1l0.1 0.1c0.7 0.7 1.3 1.5 1.9 2.3 0.1 0.1 0.2 0.3 0.3 0.4 0.4 0.5 0.7 1 1.1 1.5-1-0.5-2.1-0.9-3.2-1.3-1-1.3-2.1-2.5-3.2-3.6l-0.3-0.3c-1.4-1.3-2.8-2.6-4.4-3.8-0.1-0.1-0.2-0.1-0.2-0.2-0.8-0.6-1.6-1.1-2.4-1.7-0.8-0.5-1.7-1-2.6-1.5l-0.1-0.1c-0.9-0.5-1.8-0.9-2.7-1.3l-0.1-0.1c-0.9-0.4-1.8-0.8-2.8-1.1-9.7-3.5-20.4-3.4-30 0.4-4.7 1.8-9 4.5-12.8 7.8l-0.1 0.1c-0.7 0.6-1.4 1.3-2.1 2s-1.3 1.4-1.9 2.1l-0.2 0.2c-0.6 0.7-1.2 1.4-1.7 2.1 0 0 0 0.1-0.1 0.1-0.6 0.7-1.1 1.5-1.6 2.3-0.1 0.1-0.2 0.2-0.2 0.4-0.5 0.8-0.9 1.5-1.3 2.3 0 0.1 0 0.1-0.1 0.1-0.4 0.8-0.8 1.6-1.2 2.5-0.1 0.2-0.1 0.3-0.2 0.5-0.4 0.8-0.7 1.6-1 2.4 0 0.1 0 0.1-0.1 0.2-0.3 0.9-0.6 1.7-0.9 2.6-0.1 0.2-0.1 0.4-0.2 0.6-0.2 0.9-0.5 1.7-0.6 2.6v0.1c-0.2 0.9-0.3 1.8-0.5 2.7 0 0.2-0.1 0.4-0.1 0.7-0.1 0.9-0.2 1.9-0.3 2.8h46.2c0.1 0.7 0.2 1.3 0.3 2h-48.3v-2h0.1l0.3-3c0-0.2 0.1-0.5 0.1-0.7 0.1-1 0.3-1.9 0.5-2.9 0-0.1 0-0.2 0.1-0.3 0.2-0.9 0.4-1.8 0.7-2.6 0.1-0.2 0.1-0.4 0.2-0.6l0.9-2.7c0-0.1 0.1-0.2 0.1-0.3 0.3-0.8 0.7-1.6 1-2.4 0.1-0.1 0.1-0.3 0.2-0.4 0.4-0.9 0.8-1.7 1.3-2.6 0.1-0.1 0.1-0.2 0.2-0.3 0.4-0.8 0.9-1.6 1.4-2.4 0-0.1 0.1-0.2 0.1-0.2 0.5-0.8 1.1-1.6 1.7-2.4 0.1-0.1 0.1-0.2 0.2-0.3 1.2-1.6 2.5-3.1 4-4.6l0.2-0.1c1.5-1.4 3-2.8 4.6-4l0.1-0.1c1.7-1.3 3.4-2.4 5.3-3.4s3.8-1.9 5.8-2.6c10.7-4 22.5-3.7 32.9 0.8 0.1 0 0.2 0.1 0.3 0.1 1.9 0.8 3.7 1.8 5.5 2.8l0.3 0.2c0.8 0.5 1.6 1.1 2.5 1.7zm-16.1-16c-10.4 5.8-23.6 2-29.3-8.5s-2-23.6 8.5-29.3c0.2-0.1 0.5-0.3 0.8-0.4 0.3-0.2 0.7-0.3 1-0.5l0.3-0.1c10.9-4.8 23.7 0.1 28.5 11 3.6 8.1 1.8 17.6-4.4 23.9-1.7 1.6-3.5 2.9-5.4 3.9zm9.1-21.7c-1.4-10.6-11.2-18.1-21.8-16.7h-0.2v0.1c-1.8 0.2-3.5 0.7-5.1 1.4 0 0-0.1 0-0.1 0.1-0.4 0.1-0.7 0.3-1.1 0.5-1 0.5-1.9 1.1-2.7 1.8v-0.1c-8.6 6.3-10.5 18.4-4.2 27 0.1 0.1 0.2 0.3 0.3 0.4 0.1-0.1 1.5 1.1 2.1 1.7 7.4 7.6 19.5 7.7 27 0.4 3.7-3.6 5.8-8.7 5.8-13.9 0-0.9-0.1-1.8-0.2-2.6l0.2-0.1zm-70.6 26.7c-16.3 0-29.9 12.2-31.7 28.4h40.8c-0.3 0.7-0.6 1.3-0.8 2h-40.2v0.1h-2v-0.1h-0.1v-2h0.3c1.9-18.6 18.6-32.2 37.2-30.2 8.3 0.9 15.9 4.7 21.5 10.8-0.5 0.4-1.1 0.8-1.6 1.2-6-6.5-14.5-10.2-23.4-10.2zm-0.3-5.8c-9-0.1-16.3-7.4-16.3-16.5 0.1-9 7.4-16.3 16.5-16.3 9 0.1 16.3 7.4 16.3 16.4-0.1 9.1-7.5 16.4-16.5 16.4zm0-30.9c-8 0-14.4 6.6-14.4 14.5 0 8 6.6 14.4 14.5 14.4 8 0 14.4-6.5 14.4-14.5 0-7.9-6.5-14.4-14.5-14.4zm76.8 59.1c3.5 0 7 1 10 2.8l-1.4 1.5c-8.4-4.8-19.2-1.8-24 6.6s-1.8 19.2 6.6 24 19.2 1.8 24-6.6c3.1-5.5 3.1-12.2-0.2-17.7l1.4-1.5c5.8 9.1 3.1 21.1-6 26.9s-21.1 3.1-26.9-6-3.1-21.1 6-26.9c3.2-2 6.8-3.1 10.5-3.1zm-1.6 20.8l-8.4-8.3c-0.4-0.5-0.4-1.2 0-1.7 0.5-0.4 1.2-0.4 1.6 0l7.5 7.5 19.1-19.1c0.5-0.5 1.2-0.5 1.7 0s0.5 1.2 0 1.7l-20 19.9c-0.3 0.5-1 0.5-1.5 0z"/>
    </symbol>

    <!-- How it works icons -->
    <symbol id="icon-getstarted" viewBox="0 0 260 260">
      <path d="M354,899A130,130,0,1,1,484,769,130,130,0,0,1,354,899Zm0-257.344A127.344,127.344,0,1,0,481.344,769,127.344,127.344,0,0,0,354,641.656Zm78.711,186.387a1.341,1.341,0,0,1-.841-1.7,8.646,8.646,0,0,0-5.419-10.945,8.5,8.5,0,0,0-4.315-.266,5.955,5.955,0,0,1-2.046,2.144,1.32,1.32,0,0,1-1.832-.439,1.36,1.36,0,0,1,.449-1.853,3.249,3.249,0,0,0,1.366-1.739,3.167,3.167,0,0,0-5.564-2.891,1.33,1.33,0,0,1-.967,1.536,1.3,1.3,0,0,1-1.2.22,1.339,1.339,0,0,1-.841-1.7c0.046-.14.12-0.262,0.176-0.4a8.635,8.635,0,0,0-9.945-5.918,8.5,8.5,0,0,0-3.87,1.927,5.951,5.951,0,0,1-.7,2.88,1.32,1.32,0,0,1-1.805.535,1.36,1.36,0,0,1-.538-1.829,3.248,3.248,0,0,0,.313-2.189,3.181,3.181,0,1,0-6.23,1.291,1.331,1.331,0,1,1-2.607.541,5.835,5.835,0,0,1,10.821-4.055,11.156,11.156,0,0,1,4.069-1.742,11.28,11.28,0,0,1,12.351,6.1,5.808,5.808,0,0,1,9.364,4.756,11.157,11.157,0,0,1,4.394.526,11.329,11.329,0,0,1,7.1,14.342A1.34,1.34,0,0,1,432.711,828.043Zm-53.473-24.77a1.586,1.586,0,0,1-1.2,1.072,1.419,1.419,0,0,1-.31.032,1.6,1.6,0,0,1-1.219-.559,30.117,30.117,0,0,0-13.19-8.841v1.88a1.567,1.567,0,0,1-1.581,1.558H340.292a1.569,1.569,0,0,1-1.581-1.558V794.49a30.106,30.106,0,0,0-13.185,8.841,1.609,1.609,0,0,1-1.531.532,1.557,1.557,0,0,1-1.2-1.071L311.069,764.71a1.548,1.548,0,0,1,.223-1.354,62.384,62.384,0,0,1,6.861-8.034,77.419,77.419,0,0,1-1.625-15.738c0-25.741,12.913-49.644,33.7-62.388a1.606,1.606,0,0,1,1.672,0c20.785,12.741,33.7,36.649,33.7,62.386a77.113,77.113,0,0,1-1.733,16.224,62.132,62.132,0,0,1,6.862,8.032,1.532,1.532,0,0,1,.231,1.353Zm1.836-45.823a1.576,1.576,0,0,1-.427-0.689,1.85,1.85,0,0,1-.037-0.83,74.527,74.527,0,0,0,1.835-16.355c0-24.325-12-46.921-31.38-59.221-19.377,12.3-31.375,34.9-31.375,59.221a74.192,74.192,0,0,0,1.736,15.927,1.55,1.55,0,0,1-.449,1.455,58.923,58.923,0,0,0-6.66,7.573l10.694,34.73a34.272,34.272,0,0,1,14.851-8.4,1.6,1.6,0,0,1,1.381.259,1.555,1.555,0,0,1,.626,1.242v2.924h18.278v-2.438a1.545,1.545,0,0,1,.626-1.243,1.582,1.582,0,0,1,.955-0.314,1.657,1.657,0,0,1,.429.056,34.268,34.268,0,0,1,14.853,8.4l10.7-34.737A57.792,57.792,0,0,0,381.074,757.45Zm-15.141,23.679a1.567,1.567,0,0,1-1.442-2.2c11.506-25.2,9.823-47.618,9.8-47.836a1.581,1.581,0,0,1,3.152-.251c0.079,0.944,1.759,23.439-10.072,49.362A1.587,1.587,0,0,1,365.933,781.129ZM351.074,734.78a13.553,13.553,0,0,1-11.567-6.376,13.207,13.207,0,0,1-2.026-7.011,13.594,13.594,0,0,1,27.185,0,13.227,13.227,0,0,1-1.638,6.377A13.634,13.634,0,0,1,351.074,734.78Zm0-23.661a10.361,10.361,0,0,0-10.429,10.275,10.106,10.106,0,0,0,1.556,5.376,10.5,10.5,0,0,0,18.046-.483,10.113,10.113,0,0,0,1.257-4.893A10.365,10.365,0,0,0,351.074,711.119Zm-35.185,93.987a1.336,1.336,0,1,1-2.617-.541,3.193,3.193,0,1,0-6.254-1.292,3.243,3.243,0,0,0,.315,2.191,1.359,1.359,0,0,1-.541,1.831,1.325,1.325,0,0,1-1.812-.536,5.937,5.937,0,0,1-.7-2.882,8.536,8.536,0,0,0-3.884-1.93,8.671,8.671,0,0,0-9.983,5.925c0.055,0.134.13,0.256,0.177,0.4a1.341,1.341,0,0,1-.845,1.7,1.312,1.312,0,0,1-1.2-.219,1.332,1.332,0,0,1-.971-1.539,3.178,3.178,0,0,0-5.585,2.894,3.245,3.245,0,0,0,1.371,1.741,1.36,1.36,0,0,1,.45,1.855,1.327,1.327,0,0,1-1.839.44,5.964,5.964,0,0,1-2.053-2.146,8.544,8.544,0,0,0-4.332.266,8.65,8.65,0,0,0-5.44,10.957,1.336,1.336,0,1,1-2.538.837,11.336,11.336,0,0,1,7.129-14.358,11.221,11.221,0,0,1,4.411-.526,5.831,5.831,0,0,1,9.4-4.762,11.333,11.333,0,0,1,12.4-6.105,11.214,11.214,0,0,1,4.084,1.744A5.857,5.857,0,0,1,315.889,805.106Zm-15.21,21.855a5.733,5.733,0,0,1,6.9-.045,10.832,10.832,0,0,1,2.837-3.35,11.2,11.2,0,0,1,15.773,2.357,1.363,1.363,0,0,1-.207,1.9,1.325,1.325,0,0,1-1.868-.279,8.547,8.547,0,0,0-12.037-1.8,8.286,8.286,0,0,0-2.578,3.434,6.193,6.193,0,0,1,.66,2.935,1.309,1.309,0,0,1-.5,1,1.264,1.264,0,0,1-.866.265,1.406,1.406,0,0,1-1.292-1.44,3.385,3.385,0,0,0-.695-2.137,3.168,3.168,0,0,0-4.463-.667,3.26,3.26,0,0,0-.494,4.538,1.363,1.363,0,0,1-.207,1.9,1.325,1.325,0,0,1-1.867-.279A5.99,5.99,0,0,1,300.679,826.961Zm40.652-24.948a1.569,1.569,0,0,1,1.581,1.558v22.365a1.581,1.581,0,0,1-3.162,0V803.571A1.569,1.569,0,0,1,341.331,802.013Zm0,30a1.569,1.569,0,0,1,1.581,1.557v2.366a1.581,1.581,0,0,1-3.162,0V833.57A1.569,1.569,0,0,1,341.331,832.013Zm9.685-30a1.57,1.57,0,0,1,1.581,1.558v31.864a1.581,1.581,0,0,1-3.162,0V803.571A1.57,1.57,0,0,1,351.016,802.013Zm0,38a1.57,1.57,0,0,1,1.581,1.557v11.864a1.581,1.581,0,0,1-3.162,0V841.57A1.57,1.57,0,0,1,351.016,840.013Zm9.262-38a1.569,1.569,0,0,1,1.581,1.558v22.365a1.581,1.581,0,0,1-3.162,0V803.571A1.57,1.57,0,0,1,360.278,802.013Zm0,30a1.569,1.569,0,0,1,1.581,1.557v2.366a1.581,1.581,0,0,1-3.162,0V833.57A1.57,1.57,0,0,1,360.278,832.013Zm40.208-6.519a10.847,10.847,0,0,1,2.7,3.462,5.734,5.734,0,0,1,6.894.312,6,6,0,0,1,.578,8.378,1.327,1.327,0,0,1-1.879.207,1.366,1.366,0,0,1-.132-1.909,3.266,3.266,0,0,0-.314-4.561,3.171,3.171,0,0,0-4.489.5,3.4,3.4,0,0,0-.78,2.111,1.409,1.409,0,0,1-1.349,1.391,1.27,1.27,0,0,1-.856-0.3,1.308,1.308,0,0,1-.458-1.024,6.207,6.207,0,0,1,.775-2.912,8.3,8.3,0,0,0-2.442-3.536,8.554,8.554,0,0,0-12.108,1.334,1.326,1.326,0,0,1-1.879.207,1.365,1.365,0,0,1-.132-1.909A11.209,11.209,0,0,1,400.486,825.494Z" transform="translate(-224 -639)"/>
    </symbol>
    
    <symbol id="icon-getwork" viewBox="0 0 260 260">
      <path d="M1011,1528a130,130,0,1,1,130-130A130,130,0,0,1,1011,1528Zm0-257.34A127.34,127.34,0,1,0,1138.34,1398,127.341,127.341,0,0,0,1011,1270.66ZM1099.5,1460h-178a1.5,1.5,0,0,1,0-3h178A1.5,1.5,0,0,1,1099.5,1460Zm-107.49-33.84a1,1,0,0,1-.366-1.37l9-15.58a1,1,0,1,1,1.74,1l-9,15.58A1,1,0,0,1,992.01,1426.16Zm35.98-2.32a1.01,1.01,0,0,1,.37,1.37l-9,15.58a1,1,0,0,1-1.74-1l9-15.58A1,1,0,0,1,1027.99,1423.84ZM1010,1433a7.383,7.383,0,0,1-.82-0.04c-0.24-.03-0.47-0.06-0.71-0.11-0.02,0-.05-0.01-0.08-0.01a8.064,8.064,0,0,1-1.49-.46v-0.01l-5.53,9.58a1,1,0,1,1-1.736-1l5.536-9.58a8.1,8.1,0,0,1-2.28-2.72,0.611,0.611,0,0,1-.07-0.14c-0.1-.2-0.19-0.42-0.28-0.63a2.25,2.25,0,0,1-.08-0.24,5.757,5.757,0,0,1-.18-0.59,2.681,2.681,0,0,1-.07-0.27,6.176,6.176,0,0,1-.12-0.62c-0.01-.09-0.03-0.17-0.04-0.26-0.03-.3-0.05-0.6-0.05-0.9a8,8,0,0,1,8-8,7.383,7.383,0,0,1,.82.04c0.24,0.03.47,0.06,0.71,0.11,0.02,0,.05.01,0.08,0.01a8.064,8.064,0,0,1,1.49.46h0l5.53-9.57a1,1,0,0,1,1.74,1l-5.54,9.58a8,8,0,0,1,2.28,2.72,0.611,0.611,0,0,1,.07.14c0.1,0.2.19,0.42,0.28,0.63a2.25,2.25,0,0,1,.08.24,5.757,5.757,0,0,1,.18.59,2.681,2.681,0,0,1,.07.27,6.176,6.176,0,0,1,.12.62c0.01,0.09.03,0.17,0.04,0.26,0.03,0.3.05,0.6,0.05,0.9A8,8,0,0,1,1010,1433Zm0-14a6,6,0,1,0,6,6A6,6,0,0,0,1010,1419Zm57.13-25.54a3.894,3.894,0,0,0-3.9-3.88H958.766a3.889,3.889,0,0,0-3.891,3.88V1456h-2.594v-62.54a6.48,6.48,0,0,1,6.485-6.46H1063.23a6.483,6.483,0,0,1,6.49,6.46V1456h-2.59v-62.54ZM1035.9,1384h-3.7a42.64,42.64,0,0,0-42.492,0h-3.7A44.6,44.6,0,0,1,1035.9,1384Zm-24.18-12.19a24.405,24.405,0,1,1,24.28-24.4A24.339,24.339,0,0,1,1011.72,1371.81Zm0-46.75a22.33,22.33,0,1,0,22.22,22.33A22.277,22.277,0,0,0,1011.72,1325.06Z" transform="translate(-881 -1268)"/>
    </symbol>
    
    <symbol id="icon-paymentSafe" viewBox="0 0 260 260">
      <path d="M354,2334a130,130,0,1,1,130-130A130,130,0,0,1,354,2334Zm0-257.34A127.34,127.34,0,1,0,481.344,2204,127.341,127.341,0,0,0,354,2076.66Zm39.869,195.43c-17.2,16.05-37.144,24.92-44.355,24.92s-27.157-8.87-44.356-24.92c-16.032-14.95-35.144-41.07-35.144-80.54v-38.39a3.473,3.473,0,0,1,2.589-3.36,312.284,312.284,0,0,0,75.224-30.38,3.485,3.485,0,0,1,3.372,0,321.333,321.333,0,0,0,75.225,30.38,3.473,3.473,0,0,1,2.589,3.36v38.39C429.013,2231.02,409.9,2257.14,393.869,2272.09Zm32.617-80.54L426,2153a364.771,364.771,0,0,1-76.486-30.96A353.924,353.924,0,0,1,273,2153l-0.459,38.55c0.8,36.97,16.812,61.43,31.835,75.44,9.526,8.89,16.806,14.11,22.677,17.64,9.359,5.63,19.661,9.65,22.947,9.37,3.162-.27,13.529-4.74,23.072-10.37,5.9-3.48,12.968-7.2,21.579-16.64,13.853-15.17,31.035-38.47,31.835-75.44h0Zm-93.047,48.27-27.926-25.06a1.753,1.753,0,0,1,0-2.49h0a1.777,1.777,0,0,1,2.507,0l25.419,22.58a0.617,0.617,0,0,0,.856,0l63.676-62.35a1.794,1.794,0,0,1,2.506,0h0a1.753,1.753,0,0,1,0,2.49L334.3,2239.82A0.617,0.617,0,0,1,333.439,2239.82Z" transform="translate(-224 -2074)"/>
    </symbol>

    <!-- Safe Pay Icons -->
    <symbol id="icon-banner-transparent" viewBox="0 0 69.969 69.969">
      <path d="M134.141,379.187A34.984,34.984,0,1,1,169.125,344.2,34.984,34.984,0,0,1,134.141,379.187Zm0.007-67.768a32.768,32.768,0,1,0,32.768,32.768A32.768,32.768,0,0,0,134.148,311.419Zm13.539,40.55h-6.562v7.312a2,2,0,0,1-2,2H117.5a2,2,0,0,1-2-2V336.062a2,2,0,0,1,2-2H124v-7.343a2,2,0,0,1,2-2h21.687a2,2,0,0,1,2,2v23.25A2,2,0,0,1,147.687,351.969Zm-8.125-2.563v-4.98l-6.524,5.98h5.524A1,1,0,0,0,139.562,349.406Zm-12.968,1h4.143l8.825-8.09v-4.844L126.1,350.259A0.971,0.971,0,0,0,126.594,350.406Zm-1-1.809,13.464-12.791a0.97,0.97,0,0,0-.5-0.15h-4.914l-8.054,7.383V348.6Zm0-7.667,5.753-5.274h-4.753a1,1,0,0,0-1,1v4.274Zm22.562-13.649a1,1,0,0,0-1-1H126.594a1,1,0,0,0-1,1v6.781h13.531a2,2,0,0,1,2,2v14.344h6.031a1,1,0,0,0,1-1V327.281Z" transform="translate(-99.156 -309.219)"/>
    </symbol>

    <symbol id="icon-banner-flexible" viewBox="0 0 69.969 69.969">
      <path d="M398.8,378.344a34.985,34.985,0,1,1,34.984-34.985A34.985,34.985,0,0,1,398.8,378.344Zm-0.017-67.736a32.768,32.768,0,1,0,32.768,32.768A32.768,32.768,0,0,0,398.78,310.608ZM414.15,348a1.239,1.239,0,1,1-1.723-1.73c0.731-.668,1.479-1.318,2.377-2.115a13.765,13.765,0,0,0-16.347,13.087q-0.039,2.344,0,4.689c0.016,0.92-.253,1.676-1.275,1.666-0.941-.009-1.253-0.718-1.215-1.6a57.084,57.084,0,0,1,.382-7.9,15.867,15.867,0,0,1,14.754-12.583c1.11-.056,2.225-0.008,3.338-0.008l0.258-.45c-0.721-.617-1.454-1.22-2.157-1.855-0.645-.582-0.934-1.294-0.221-1.973s1.388-.34,1.994.276c1.354,1.376,2.713,2.746,4.091,4.1a1.3,1.3,0,0,1,.027,2.153C416.987,345.146,415.572,346.574,414.15,348Zm-13.277-19.044c-0.722-.728-1.433-1.468-2.149-2.2l-0.272.148v1.146c0,5.129-.03,10.259.023,15.388a2.873,2.873,0,0,1-1.271,2.723,2.778,2.778,0,0,1-1.259-2.444c0.06-5.209.026-10.419,0.026-15.629v-1.515c-0.914.9-1.617,1.582-2.306,2.276-0.621.625-1.31,0.89-1.984,0.166a1.234,1.234,0,0,1,.24-1.894c1.4-1.381,2.807-2.765,4.192-4.165a1.34,1.34,0,0,1,2.184-.011c1.415,1.427,2.847,2.838,4.274,4.255a1.2,1.2,0,0,1,.1,1.892A1.148,1.148,0,0,1,400.873,328.952Zm-18.106,12.569a16.033,16.033,0,0,1,12.036,5.747c0.756,0.856,1.065,1.607.314,2.6a7.607,7.607,0,0,0-.621,1.352c-3.335-5.564-8.239-7.762-14.476-7.216l-0.3.33c0.749,0.645,1.513,1.275,2.245,1.939a1.214,1.214,0,0,1,.145,1.975c-0.674.63-1.324,0.317-1.9-.257-1.392-1.392-2.784-2.784-4.191-4.161a1.323,1.323,0,0,1-.008-2.17c1.435-1.405,2.85-2.831,4.28-4.242a1.209,1.209,0,0,1,1.9-.1,1.176,1.176,0,0,1-.14,1.807c-0.721.693-1.478,1.349-2.219,2.022,0.049,0.124.1,0.249,0.145,0.374C380.91,341.517,381.839,341.5,382.767,341.521Z" transform="translate(-363.813 -308.375)"/>
    </symbol>

    <symbol id="icon-banner-easy" viewBox="0 0 69.969 69.969">
      <path d="M607.859,379a34.985,34.985,0,1,1,34.985-34.984A34.984,34.984,0,0,1,607.859,379Zm-0.007-67.776a32.769,32.769,0,1,0,32.768,32.768A32.768,32.768,0,0,0,607.852,311.224Zm13.65,48.528-3.393,3.439c-0.749.759-1.494,1.52-2.246,2.275a7.787,7.787,0,0,1-11.109.044c-2.483-2.471-4.932-4.979-7.382-7.484a2.123,2.123,0,0,1-.46-0.8c-1.288-3.876-2.557-7.759-3.846-11.634a2.023,2.023,0,0,0-.457-0.744c-1.56-1.6-3.136-3.19-4.706-4.783a1.06,1.06,0,0,1,0-1.764c0.46-.468.93-0.926,1.38-1.4a2.665,2.665,0,0,1,2.021-.885,10.4,10.4,0,0,1,8.9,4.526c0.907,1.29,1.642,2.7,2.455,4.061,0.068,0.114.13,0.233,0.263,0.472a5.237,5.237,0,0,1,.345-0.448q8.418-8.537,16.839-17.068a3.653,3.653,0,0,1,4.545-.727,3.718,3.718,0,0,1,.909,5.629c-0.126.147-.263,0.285-0.4,0.423q-2.857,2.9-5.721,5.792a3.12,3.12,0,0,1-.489.319c2.375,0.913,3.051,2.556,2.567,4.793,2.494,0.787,3.41,2.325,2.841,4.8a1.652,1.652,0,0,0,.263.109,3.313,3.313,0,0,1,2.631,2.458,3.572,3.572,0,0,1-.889,3.657C624.759,356.472,623.125,358.107,621.5,359.752Zm3.977-7.921a1.726,1.726,0,0,0-2.87-.911,0.958,0.958,0,0,1-1.422,0,0.979,0.979,0,0,1,.151-1.432c0.3-.31.615-0.61,0.9-0.937a1.643,1.643,0,0,0,.408-1.46,1.73,1.73,0,0,0-2.894-.99,0.952,0.952,0,0,1-1.421-.012,0.971,0.971,0,0,1,.119-1.4c0.288-.3.59-0.591,0.876-0.9a1.677,1.677,0,0,0,.473-1.441,1.71,1.71,0,0,0-1.1-1.415,1.662,1.662,0,0,0-1.784.311,1.784,1.784,0,0,1-.444.287,0.836,0.836,0,0,1-.971-0.243,0.822,0.822,0,0,1-.2-0.987,2.507,2.507,0,0,1,.449-0.6q4.11-4.179,8.232-8.346a1.771,1.771,0,0,0,.52-1.8,1.679,1.679,0,0,0-1.322-1.257,1.847,1.847,0,0,0-1.784.669q-8.9,9.035-17.815,18.06c-0.8.814-1.384,0.719-1.939-.3-0.531-.97-1.044-1.952-1.626-2.889a21.863,21.863,0,0,0-2.16-3.177,9.18,9.18,0,0,0-5.3-2.688,2.475,2.475,0,0,0-2.816,1.3,4.356,4.356,0,0,1,.362.3c1.375,1.388,2.754,2.771,4.11,4.178a2.468,2.468,0,0,1,.547.9c1.292,3.875,2.559,7.759,3.847,11.636a1.921,1.921,0,0,0,.435.708q3.4,3.469,6.813,6.917a8.265,8.265,0,0,0,.754.7,5.878,5.878,0,0,0,7.989-.581q4.428-4.461,8.834-8.946c0.513-.52,1.03-1.036,1.539-1.561A1.727,1.727,0,0,0,625.479,351.831ZM610.1,330.753a5.313,5.313,0,0,1-.793.532,4.012,4.012,0,0,1-.8-0.616,0.82,0.82,0,0,1,.037-1.007,2,2,0,0,1,.231-0.272q1.789-1.817,3.581-3.629a0.97,0.97,0,0,1,1.482-.1,1,1,0,0,1-.148,1.469C612.5,328.34,611.309,329.555,610.1,330.753Zm-5.523-.555a0.961,0.961,0,0,1-.954-1.063q-0.009-2.809,0-5.62a0.95,0.95,0,0,1,.957-1.053,0.965,0.965,0,0,1,.936,1.08c0,0.929,0,1.859,0,2.788s0,1.858,0,2.787A0.974,0.974,0,0,1,604.581,330.2Zm-5.481.631q-1.876-1.886-3.738-3.788a0.924,0.924,0,0,1-.235-1.105,1.069,1.069,0,0,1,.916-0.636,3.17,3.17,0,0,1,.661.395c1.258,1.251,2.5,2.516,3.742,3.784a0.951,0.951,0,0,1,.038,1.4A0.935,0.935,0,0,1,599.1,330.829Z" transform="translate(-572.875 -309.031)"/>
    </symbol>
    
    <symbol id="icon-safe" viewBox="0 0 260 260">
      <path transform="translate(-939.12 -512.59)" d="m1096.3 730.36v-3.1a110.54 110.54 0 1 0 -87.6 0v3.111a113.39 113.39 0 1 1 87.6 -0.011zm-79.24-27.454a141.71 141.71 0 0 0 34.07 -13.72 1.547 1.547 0 0 1 1.52 0 145.85 145.85 0 0 0 34.07 13.72 1.568 1.568 0 0 1 1.17 1.52v17.338a48.665 48.665 0 0 1 -15.92 36.381c-7.78 7.247-16.82 11.255-20.08 11.255s-12.3-4.008-20.09-11.255a48.66 48.66 0 0 1 -15.91 -36.381v-17.338a1.568 1.568 0 0 1 1.17 -1.52zm15.45 25.368 13.87 13.95a1.729 1.729 0 0 0 2.45 0l24.27-24.411a1.745 1.745 0 0 0 0 -2.466 1.726 1.726 0 0 0 -2.45 0l-23.05 23.176-12.64-12.714a1.726 1.726 0 0 0 -2.45 0 1.744 1.744 0 0 0 0 2.465zm-38.21-150.88v4.8h-2.4v-13.2a6 6 0 0 1 6 -6h111.6a6 6 0 0 1 6 6v70.8a6 6 0 0 1 -6 6h-9.6v-2.4h8.4a4.8 4.8 0 0 0 4.8 -4.8v-46.8h-13.2v-2.4h13.2v-12h-118.8zm118.8-7.2a4.8 4.8 0 0 0 -4.8 -4.8h-109.2a4.8 4.8 0 0 0 -4.8 4.8v4.8h118.8v-4.8zm-139.19 92.206v-72.812a5 5 0 0 1 5 -5h113.59a5 5 0 0 1 5 5v72.812a5 5 0 0 1 -5 5h-113.59a5 5 0 0 1 -5 -5zm117.18 2.594a4 4 0 0 0 4 -4v-70a4 4 0 0 0 -4 -4h-110.78a4 4 0 0 0 -4 4v70a4 4 0 0 0 4 4h110.78zm-101.59-56.4h14.4a4.8 4.8 0 0 1 4.8 4.8v9.6a4.8 4.8 0 0 1 -4.8 4.8h-14.4a4.8 4.8 0 0 1 -4.8 -4.8v-9.6a4.8 4.8 0 0 1 4.8 -4.8zm8.4 16.8h6a2.4 2.4 0 0 0 2.4 -2.4v-9.6a2.4 2.4 0 0 0 -2.4 -2.4h-6v14.4zm-10.8-2.4a2.4 2.4 0 0 0 2.4 2.4h6v-14.4h-6a2.4 2.4 0 0 0 -2.4 2.4v9.6zm2.212 14.406h18.378a1 1 0 0 1 1 1v0.406a1 1 0 0 1 -1 1h-18.378a1 1 0 0 1 -1 -1v-0.406a1 1 0 0 1 1 -1zm0 13.188h54.378a1 1 0 0 1 1 1v0.406a1 1 0 0 1 -1 1h-54.378a1 1 0 0 1 -1 -1v-0.406a1 1 0 0 1 1 -1zm49.378-11.782v-0.406a1 1 0 0 1 1 -1h18.4a1 1 0 0 1 1 1v0.406a1 1 0 0 1 -1 1h-18.4a1 1 0 0 1 -1 -1zm0.01-30.212a13.188 13.188 0 0 1 22.8 -9.041 13.2 13.2 0 1 1 0 18.081 13.188 13.188 0 0 1 -22.8 -9.04zm32.4 10.8a10.8 10.8 0 1 0 -8.1 -17.927 13.142 13.142 0 0 1 0 14.253 10.764 10.764 0 0 0 8.1 3.674zm-9.6-5.867a10.741 10.741 0 0 0 0 -9.867 10.741 10.741 0 0 0 0 9.867zm-1.5-12.06a10.8 10.8 0 1 0 0 14.253 13.142 13.142 0 0 1 0 -14.253zm3.69 35.933h18.4a1 1 0 0 1 1 1v0.406a1 1 0 0 1 -1 1h-18.4a1 1 0 0 1 -1 -1v-0.406a1 1 0 0 1 1 -1zm-32 2.406h-18.38a1 1 0 0 1 -1 -1v-0.406a1 1 0 0 1 1 -1h18.38a1 1 0 0 1 1 1v0.406a1 1 0 0 1 -1 1z"/>
    </symbol>
    
    <symbol id="icon-yourway" viewBox="0 0 260 260">
      <path d="m206.4 114c0 9.3-7.5 16.8-16.8 16.8s-16.8-7.5-16.8-16.8 7.5-16.8 16.8-16.8 16.8 7.5 16.8 16.8zm-31.3 0c0 8 6.5 14.4 14.5 14.4s14.4-6.4 14.4-14.4-6.5-14.4-14.4-14.4c-8 0-14.5 6.4-14.5 14.4zm14.9-7.3v6.9h4.4c0.7 0 1.2 0.5 1.2 1.2s-0.5 1.2-1.2 1.2h-0.1-5.6c-0.6 0-1.2-0.5-1.2-1.2v-8.1c0-0.7 0.6-1.2 1.2-1.1 0.8 0 1.3 0.5 1.3 1.1zm-131.6-2c0.5 0.4 0.6 1.1 0.2 1.6l-13.8 13.8c-0.2 0.3-0.6 0.5-0.9 0.5h-0.1-0.2c-0.4 0-0.8-0.2-1-0.6l-4.1-4.6c-0.4-0.5-0.3-1.2 0.2-1.6s1.2-0.3 1.6 0.2l3.5 3.8 13.1-12.9c0.3-0.5 1-0.6 1.5-0.2-0.1 0-0.1 0 0 0zm-22.4 8.1h-9.6c-0.7 0-1.2-0.5-1.2-1.2s0.5-1.2 1.2-1.2h9.6c0.7 0 1.2 0.5 1.2 1.2s-0.6 1.2-1.2 1.2zm0 7.2h-9.6c-0.7 0-1.2-0.5-1.2-1.2s0.5-1.2 1.2-1.2h9.6c0.7 0 1.2 0.5 1.2 1.2s-0.5 1.2-1.2 1.2zm14.4-2.4v9.8c0 1.9-1.5 3.4-3.4 3.4h-23.3c-1.9 0-3.4-1.5-3.4-3.4v-24.4c0-1.9 1.5-3.4 3.4-3.4h23.2c1.9 0 3.4 1.5 3.4 3.4v3.8l-2.6 3.6v-6.5c0-0.3 0.1-2-0.8-2h-23.2c-0.6 0-1.1 0.5-1.1 1.1v0.9 23.5c0 0.6 0.5 1.1 1.1 1.1h22.9c0.6 0 1.1-0.5 1.1-1.1v-6.2l2.7-3.6zm106.8 100.2v-3.1c56-24.2 81.9-89.2 57.7-145.3-24.2-56-89.2-81.9-145.3-57.7s-81.9 89.2-57.7 145.3c11.2 25.9 31.8 46.5 57.7 57.7v3.1c-57.8-24.2-85-90.6-60.8-148.4s90.6-85 148.4-60.8 85 90.6 60.8 148.4c-11.5 27.4-33.4 49.3-60.8 60.8zm-95.3-110.3c8.4 1.5 16 6.1 21.4 12.8 0.3 0.4 0.4 1.1 0 1.5l-0.5 0.6c-0.2 0.3-0.7 0.3-0.9 0-4.9-6.5-12.1-11-20.1-12.5-0.7-0.1-1.2-0.8-1.1-1.5 0.1-0.6 0.7-1 1.2-0.9zm107.2-0.2l-0.2 1.5c-0.1 0.5-0.5 0.8-0.9 0.7-8-0.7-15.9 1.5-22.4 6.3-0.2 0.1-0.4 0.3-0.6 0.4-0.6 0.5-1.6 0.1-1.7-0.7-0.1-0.5 0.1-1.1 0.5-1.4l0.3-0.3c7.2-5.1 16.1-7.5 25-6.5zm-33.9-59.3c0.7 0 1.2 0.5 1.2 1.2s-0.5 1.2-1.2 1.2-1.2-0.5-1.2-1.2 0.5-1.2 1.2-1.2zm-3.6 10.8c0 0.7-0.5 1.2-1.2 1.2s-1.2-0.5-1.2-1.2 0.5-1.2 1.2-1.2 1.2 0.5 1.2 1.2zm-5.9-3.6c-0.7 0-1.2-0.5-1.2-1.2v-1.2h-1.2c-0.7 0-1.2-0.6-1.1-1.3 0-0.6 0.5-1.1 1.1-1.1h1.2v-1.2c0-0.7 0.5-1.2 1.2-1.2s1.2 0.5 1.2 1.2v1.2h1.2c0.7 0 1.2 0.6 1.1 1.3 0 0.6-0.5 1.1-1.1 1.1h-1.2v1.2c-0.1 0.6-0.6 1.2-1.2 1.2zm-14.3 18h0.4c0.6 0 1 0.4 1 1v19.6c0 0.6-0.4 1-1 1h-0.4c-0.6 0-1-0.4-1-1v-19.6c0-0.5 0.4-1 1-1zm-2.4-46.7c0.7 0 1.2 0.5 1.2 1.2v1.2h1.2c0.7 0.1 1.2 0.6 1.1 1.3 0 0.6-0.5 1.1-1.1 1.1h-1.2v1.2c0 0.7-0.5 1.2-1.2 1.2s-1.2-0.5-1.2-1.2v-0.1-1.2h-1.2c-0.7-0.1-1.2-0.6-1.1-1.3 0-0.6 0.5-1.1 1.1-1.1h1.2v-1.2c0-0.6 0.6-1.1 1.2-1.1zm6.8 5.7c0.1-0.4 0.5-0.7 1-0.8l6.2-0.9 2.8-5.8c0.3-0.6 1-0.8 1.6-0.6 0.2 0.1 0.4 0.3 0.6 0.6l2.8 5.8 6.2 0.9c0.4 0.1 0.8 0.4 1 0.8 0.1 0.4 0 0.9-0.3 1.2l-4.5 4.4 1.1 6.3c0.1 0.4-0.1 0.9-0.5 1.2s-0.9 0.3-1.3 0.1l-5.6-3-5.6 3c-0.4 0.2-0.9 0.2-1.3-0.1s-0.6-0.7-0.5-1.2l0.4-2.6c-6.8 5.1-7.4 14.1-7.4 22.1 0 0.5-0.3 1-0.8 1.1-0.5 0.2-1 0-1.3-0.4l-5-6.1-5 6.1c-0.3 0.4-0.8 0.5-1.3 0.4-0.5-0.2-0.8-0.6-0.8-1.1-0.1-7.3 2.2-14.5 6.6-20.3 3.1-4.1 7.4-7.2 12.3-8.8l-1.1-1.1c-0.3-0.3-0.4-0.8-0.3-1.2zm6.9 4.4c0.3 0.3 0.4 0.7 0.3 1.1l-0.8 4.5 4-2.1c0.3-0.2 0.8-0.2 1.1 0l4 2.1-0.8-4.5c-0.1-0.4 0.1-0.8 0.3-1.1l3.2-3.2-4.5-0.7c-0.4-0.1-0.7-0.3-0.9-0.7l-2-4.1-2 4.1c-0.2 0.4-0.5 0.6-0.9 0.7l-4.5 0.7 0.9 0.9 2.6 2.3zm-21.8 23.5l3.7-4.4c0.4-0.5 1.2-0.6 1.7-0.2 0.1 0 0.1 0.1 0.2 0.2l3.9 4.7c0-3.3 0.5-6.7 1.3-9.9 1.5-5.6 4.6-9.6 9-12.1l0.1-0.5-1.4-1.4c-8.8 1.9-17.2 10.4-18.5 23.6zm44.3 80.5c0.1 11.7-9.4 21.3-21.1 21.4-5.9 0-11.5-2.5-15.4-6.8h-13.3c-1 0-2.1 0.3-3-0.2-3.3-1.7-6.6-5.7-2.9-10.2 0.9-1.1-1.4-2.9-1.6-4.3-0.2-1.7 1.5-3 1.6-4.8 0-1.5-1.6-3.3-1.7-4.8s1.2-2.8 1.3-3.9c0.1-1.3-0.2-2.4-0.7-3.2-1.1-2.1 0.4-4.9 2.4-6.3 0.9-0.6 2-1 3.2-1h3.2c-1.3-2-1.3-4.6 0-6.5h-9.9c-3.2 0-5.7-2.7-5.7-5.9 0-3.1 2.6-5.7 5.7-5.7h30.4c3.2 0 5.8 2.7 5.7 5.9 0 1.1-0.4 2.2-1 3.2h10c3.2 0 5.7 2.7 5.7 5.9 0 3.1-2.6 5.7-5.7 5.7h-3.2c0.2 0.3 0.4 0.7 0.6 1 9.1 2.6 15.4 11 15.4 20.5zm-51.2 12.1h12.6c-1.4-2-2.4-4.2-3-6.5h-9.6c-1.8 0-3.3 1.5-3.3 3.3s1.5 3.2 3.3 3.2zm0-9.1h9.2c-0.3-2.2-0.3-4.4 0.1-6.5h-9.3c-1.8 0-3.3 1.5-3.3 3.3s1.5 3.2 3.3 3.2zm0-9h9.8c0.7-2.3 1.8-4.6 3.2-6.5h-13c-1.8 0-3.3 1.5-3.3 3.3 0 1.7 1.5 3.2 3.3 3.2zm0-15.6c-1.8 0-3.2 1.5-3.2 3.3s1.4 3.2 3.2 3.2h15.1c3.9-4 9.3-6.3 14.9-6.3 0.6 0 1.2 0 1.8 0.1-0.4-0.2-0.9-0.3-1.4-0.3h-30.4zm23.7-18.1h-30.4c-1.8 0-3.2 1.5-3.2 3.3s1.4 3.2 3.2 3.2h30.4c1.8 0 3.2-1.5 3.2-3.3 0-1.7-1.4-3.1-3.2-3.2zm14.7 15.6c1.8 0 3.2-1.5 3.2-3.3s-1.4-3.2-3.2-3.2h-30.4c-1.8 0-3.2 1.5-3.2 3.3s1.4 3.2 3.2 3.2h30.4zm-8.3 5.3c-10.4-0.1-18.9 8.2-19.1 18.6-0.1 10.4 8.2 18.9 18.6 19.1 10.4 0.1 18.9-8.2 19.1-18.6v-0.2c0-10.4-8.3-18.8-18.6-18.9zm14.2 26.5c-0.3 0.6-1.1 0.8-1.7 0.5s-0.8-1.1-0.5-1.7c3.6-6.8 0.9-15.2-5.9-18.8-0.1-0.1-0.2-0.1-0.3-0.2-0.6-0.3-0.9-1.1-0.6-1.7s1-0.9 1.6-0.6c2.7 1.3 5 3.4 6.6 5.9 3.3 5.1 3.6 11.4 0.8 16.6zm-10.3-10.1c-0.7 0-1.2-0.6-1.2-1.3 0.2-1.5-0.9-2.9-2.4-3.1s-2.9 0.9-3.1 2.4 0.9 2.9 2.4 3.1h0.4c2.8-0.1 5.1 2.1 5.2 4.9-0.1 2.3-1.7 4.3-4 4.8v0.6c0 0.7-0.5 1.3-1.2 1.3s-1.3-0.5-1.3-1.2v-0.1-0.6c-2.3-0.5-3.9-2.4-4-4.8 0-0.7 0.5-1.3 1.2-1.3s1.3 0.5 1.3 1.2v0.1c-0.2 1.5 0.9 2.9 2.4 3.1s2.9-0.9 3.1-2.4-0.9-2.9-2.4-3.1h-0.4c-2.8 0.1-5.1-2.1-5.2-4.9 0.1-2.3 1.7-4.3 4-4.8v-0.7c0-0.7 0.5-1.3 1.2-1.3s1.3 0.5 1.3 1.2v0.1 0.7c2.3 0.5 3.9 2.4 4 4.8 0 0.7-0.6 1.3-1.3 1.3zm-2-11.4c-0.8 0-1.3-0.6-1.3-1.3s0.6-1.2 1.2-1.2h0.1c0.7 0 1.3 0.6 1.3 1.3s-0.6 1.2-1.3 1.2zm-7.3 28c-0.3 0.6-1 0.9-1.6 0.6-5.6-2.8-9.2-8.5-9.2-14.7 0-2.7 0.6-5.3 1.9-7.7 0.3-0.6 1.1-0.8 1.7-0.5s0.8 1.1 0.5 1.7c-3.6 6.8-0.9 15.2 5.9 18.8 0.1 0.1 0.2 0.1 0.3 0.2 0.6 0.2 0.8 0.9 0.5 1.6zm3.4-0.4c0.8 0 1.3 0.6 1.3 1.3s-0.6 1.2-1.2 1.2h-0.1c-0.7-0.1-1.2-0.7-1.2-1.3 0.1-0.6 0.6-1.1 1.2-1.2zm-44.2 35.9c11.9-3.1 23.4-7.7 34.1-13.7 0.5-0.3 1.1-0.3 1.5 0 10.7 6 22.2 10.6 34.1 13.7 0.7 0.2 1.2 0.8 1.2 1.5v17.3c0.1 13.8-5.7 27.1-15.9 36.4-7.8 7.3-16.8 11.3-20.1 11.3s-12.3-4-20.1-11.3c-10.2-9.3-16-22.5-15.9-36.4v-17.3c0-0.7 0.4-1.3 1.1-1.5zm15.5 25.4l13.9 13.9c0.7 0.7 1.8 0.7 2.4 0l24.3-24.4c0.7-0.7 0.7-1.8 0-2.5s-1.8-0.7-2.4 0l-23 23.2-12.6-12.7c-0.7-0.7-1.8-0.7-2.4 0-0.9 0.7-0.9 1.8-0.2 2.5z"/>
    </symbol>
    
    <symbol id="icon-easypay" viewBox="0 0 260 260">
      <path transform="translate(-939.12 -1146.6)" d="M1096.3,1364.36v-3.1a110.532,110.532,0,1,0-87.6,0v3.11A113.392,113.392,0,1,1,1096.3,1364.36Zm-22.34-99.11a1.074,1.074,0,0,1-.75,1.03,12.753,12.753,0,0,0-8.01,8.02,1.087,1.087,0,0,1-2.06,0,12.768,12.768,0,0,0-8.02-8.02,1.087,1.087,0,0,1,0-2.06,12.731,12.731,0,0,0,8.02-8.01,1.082,1.082,0,0,1,2.06,0,12.716,12.716,0,0,0,8.01,8.01A1.084,1.084,0,0,1,1073.96,1265.25Zm-9.79-5.98a14.988,14.988,0,0,1-5.99,5.98,15.013,15.013,0,0,1,5.99,5.99,14.988,14.988,0,0,1,5.98-5.99A14.964,14.964,0,0,1,1064.17,1259.27Zm-7.62-20.12h13.06v2.17h-13.06v-2.17Zm0,10.87v-2.17h4.35v2.17h-4.35Zm0-6.52h8.71v2.17h-8.71v-2.17Zm-11.96,30.46v-2.18h-2.18v-2.18h2.18v-2.17h2.17v2.17h2.18v2.18h-2.18v2.18h-2.17Zm-35.9-22.85v-20.67a5.444,5.444,0,0,1,5.44-5.43h21.31l6.2-6.21a1.074,1.074,0,0,1,.77-0.32h23.93a1.093,1.093,0,0,1,1.09-1.09h9.79a1.093,1.093,0,0,1,1.09,1.09v14.14a1.093,1.093,0,0,1-1.09,1.09h-9.79a1.093,1.093,0,0,1-1.09-1.09h-0.63l-4.04,4.03a1.057,1.057,0,0,1-.77.32h-6.52v14.14a5.446,5.446,0,0,1-5.44,5.44h-34.81A5.446,5.446,0,0,1,1008.69,1251.11Zm64.18-19.58h3.26v-11.96h-3.26v11.96Zm-4.35,0h2.17v-11.96h-2.17v11.96Zm-57.65,7.62h41.33v-2.18h-14.68a3.786,3.786,0,0,1-3.75-3.26h-22.9v5.44Zm3.26-11.97a3.267,3.267,0,0,0-3.26,3.26v1.09h23.22a3.806,3.806,0,0,1,3.43-2.17h6.62l2.17-2.18h-32.18Zm46.32,7.62,4.04-4.04a1.1,1.1,0,0,1,.77-0.32h1.08v-9.79h-23.48l-4.35,4.36h10.43a1.066,1.066,0,0,1,1,.67,1.078,1.078,0,0,1-.23,1.18l-4.35,4.35a1.074,1.074,0,0,1-.77.32h-7.07a1.635,1.635,0,0,0,0,3.27h22.93Zm-8.25,16.31v-9.79h-41.33v9.79a3.269,3.269,0,0,0,3.26,3.27h34.81A3.269,3.269,0,0,0,1052.2,1251.11Zm-10.88-5.44h-2.17v-2.17h2.17v2.17Zm4.36,0h-2.18v-2.17h2.18v2.17Zm4.35,0h-2.18v-2.17h2.18v2.17Zm-21.76,13.06v2.17h-2.17v-2.17h2.17Zm2.18,0h2.17v2.17h-2.17v-2.17Zm2.17,6.52h-2.17v-2.17h2.17v2.17Zm4.35-6.52v2.17h-2.17v-2.17h2.17Zm4.35,18.49a9.79,9.79,0,1,1-9.79-9.79A9.8,9.8,0,0,1,1041.32,1277.22Zm-9.79-7.62a7.615,7.615,0,1,0,7.62,7.62A7.629,7.629,0,0,0,1031.53,1269.6Zm-0.24,6.82a5.108,5.108,0,0,1,1.96.94,1.9,1.9,0,0,1,.64,1.52,1.961,1.961,0,0,1-.66,1.55,3.219,3.219,0,0,1-1.83.68v1.09h-1.01v-1.08a3.205,3.205,0,0,1-1.82-.71,2.175,2.175,0,0,1-.68-1.79l0.01-.03h1.23a1.451,1.451,0,0,0,.49,1.24,2.016,2.016,0,0,0,1.23.37,2.139,2.139,0,0,0,1.3-.34,1.163,1.163,0,0,0,.47-0.97,1.128,1.128,0,0,0-.41-0.87,3.819,3.819,0,0,0-1.36-.65,4.905,4.905,0,0,1-1.96-.92,1.937,1.937,0,0,1-.67-1.55,2.041,2.041,0,0,1,.61-1.52,2.762,2.762,0,0,1,1.68-.71v-1.26h1.02v1.26a2.592,2.592,0,0,1,1.68.82,2.646,2.646,0,0,1,.6,1.82h-1.27a1.858,1.858,0,0,0-.4-1.25,1.4,1.4,0,0,0-1.13-.48,1.637,1.637,0,0,0-1.14.35,1.242,1.242,0,0,0-.38.96,1.138,1.138,0,0,0,.39.89A4.068,4.068,0,0,0,1031.29,1276.42Zm51.81-68.02a23.4,23.4,0,1,1,23.4,23.4A23.4,23.4,0,0,1,1083.1,1208.4Zm44.4,0a21,21,0,1,0-21,21A21,21,0,0,0,1127.5,1208.4Zm-21.51,7.99v0.19c-0.19.15-.39,0.31-0.58,0.47v0.19c-0.19.16-.39,0.32-0.58,0.48v0.19c-0.2.16-.39,0.31-0.58,0.47v0.19c-0.2.16-.39,0.32-0.59,0.48v0.19c-0.19.16-.38,0.32-0.58,0.47v0.19c-0.19.16-.38,0.32-0.58,0.48v0.19c-0.22.19-.45,0.38-0.68,0.57v0.19c-0.19.16-.38,0.32-0.58,0.48V1222c-0.22.19-.45,0.38-0.68,0.57v0.19c-0.09.06-.19,0.13-0.29,0.19l-0.77.95c-0.2-.05-0.09.01-0.2-0.1h-0.19q2.805-6.42,5.62-12.84h-6.3c0.1-.31.19-0.63,0.29-0.95h0.1v-0.19h0.1v-0.38h0.09c0.03-.12.07-0.25,0.1-0.38h0.1v-0.28h0.09v-0.19h0.1c0.03-.19.06-0.38,0.1-0.57h0.09c0.04-.16.07-0.32,0.1-0.48h0.1v-0.19h0.09v-0.28h0.1v-0.2h0.1v-0.38h0.1c0.03-.12.06-0.25,0.09-0.38h0.1v-0.28h0.1v-0.19h0.09c0.04-.19.07-0.38,0.1-0.57h0.1l0.09-.48h0.1v-0.19h0.1v-0.28h0.09v-0.19h0.1v-0.38h0.1c0.03-.16.06-0.32,0.1-0.48h0.09c0.03-.13.07-0.25,0.1-0.38h0.1c0.06-.29.13-0.57,0.19-0.86h0.1v-0.19h0.09v-0.28h0.1c0.03-.13.07-0.25,0.1-0.38h0.09v-0.38h0.1v-0.19h0.1c0.03-.19.06-0.38,0.1-0.57h0.09v-0.19h0.1v-0.29h0.1v-0.28h0.09v-0.29h0.1v-0.28h0.1v-0.2h0.09v-0.28h0.1v-0.29h0.1v-0.28h0.09v-0.29h0.1v-0.19h0.1v-0.28h0.1v-0.19h0.09c0.03-.19.07-0.38,0.1-0.57h0.1v-0.29h0.09v-0.28h0.1v-0.19h0.1v-0.29h0.09c0.04-.19.07-0.38,0.1-0.57h0.1a1.656,1.656,0,0,1,.87-0.09h10.86c-0.04.09-.07,0.19-0.1,0.28h-0.1c-0.03.1-.06,0.19-0.1,0.29-0.06.03-.12,0.06-0.19,0.09v0.19a1.738,1.738,0,0,0-.19.1v0.19a2.9,2.9,0,0,0-.29.19v0.19a2.9,2.9,0,0,0-.29.19v0.19c-0.07.03-.13,0.06-0.2,0.09v0.19c-0.13.1-.26,0.19-0.39,0.29-0.03.12-.06,0.25-0.09,0.38-0.13.09-.26,0.19-0.39,0.28-0.03.13-.07,0.26-0.1,0.38-0.13.1-.26,0.19-0.39,0.29v0.19c-0.06.03-.12,0.06-0.19,0.09v0.2c-0.06.03-.13,0.06-0.19,0.09-0.04.1-.07,0.19-0.1,0.29-0.1.06-.19,0.12-0.29,0.19v0.19c-0.07.03-.13,0.06-0.19,0.09v0.19c-0.1.06-.2,0.13-0.3,0.19v0.19c-0.06.03-.12,0.07-0.19,0.1v0.19c-0.1.06-.19,0.12-0.29,0.19v0.19c-0.06.03-.13,0.06-0.19,0.09v0.19c-0.1.07-.2,0.13-0.29,0.19v0.19c-0.1.07-.2,0.13-0.3,0.19v0.19a2.9,2.9,0,0,1-.29.19v0.19a1.738,1.738,0,0,1-.19.1v0.19c-0.1.06-.19,0.13-0.29,0.19v0.19h-0.1c-0.03.1-.06,0.19-0.09,0.29-0.07.03-.13,0.06-0.2,0.09v0.19c-0.13.1-.26,0.19-0.39,0.29v0.19c-0.06.03-.13,0.06-0.19,0.09v0.19c-0.1.07-.19,0.13-0.29,0.19v0.19c-0.07.03-.13,0.07-0.19,0.1-0.04.09-.07,0.19-0.1,0.28h7.36v0.19h-0.19a1.842,1.842,0,0,1-.58.76c-0.07.04-.13,0.07-0.19,0.1v0.19h-0.1c-0.07.09-.13,0.19-0.2,0.28a2.9,2.9,0,0,1-.29.19v0.19c-0.19.16-.38,0.32-0.58,0.48v0.19c-0.19.16-.39,0.32-0.58,0.48v0.19c-0.19.15-.39,0.31-0.58,0.47v0.19c-0.19.16-.39,0.32-0.58,0.48v0.19c-0.23.19-.45,0.38-0.68,0.57v0.19c-0.19.16-.39,0.32-0.58,0.47v0.19c-0.2.16-.39,0.32-0.58,0.48v0.19c-0.2.16-.39,0.32-0.59,0.48v0.19c-0.25.22-.51,0.44-0.77,0.66v0.19c-0.19.16-.39,0.32-0.58,0.48v0.19c-0.2.16-.39,0.31-0.58,0.47v0.19c-0.23.19-.46,0.38-0.68,0.57v0.19c-0.1.07-.2,0.13-0.29,0.19-0.1.13-.2,0.26-0.29,0.38h-0.1v0.2C1106.44,1216.01,1106.22,1216.2,1105.99,1216.39Zm-89.45,93.6h31.87v-12.92H984.755a8.516,8.516,0,0,1-8.455-8.55v-76.97a8.516,8.516,0,0,1,8.455-8.55h95.285a27.557,27.557,0,0,0-.44,3.42H984.755a5.107,5.107,0,0,0-5.073,5.13v76.97a5.113,5.113,0,0,0,5.073,5.13h130.7a5.115,5.115,0,0,0,5.07-5.13v-57.08a26.9,26.9,0,0,0,3.38-2.41v59.49a8.513,8.513,0,0,1-8.45,8.55h-63.66v12.92h31.87a1.71,1.71,0,0,1,0,3.42h-67.12A1.71,1.71,0,0,1,1016.54,1309.99Zm0.52,26.92a141.469,141.469,0,0,0,34.07-13.72,1.527,1.527,0,0,1,1.52,0,145.933,145.933,0,0,0,34.07,13.72,1.564,1.564,0,0,1,1.17,1.52v17.34a48.674,48.674,0,0,1-15.92,36.38c-7.78,7.25-16.82,11.25-20.08,11.25s-12.3-4-20.09-11.25a48.67,48.67,0,0,1-15.91-36.38v-17.34A1.564,1.564,0,0,1,1017.06,1336.91Zm15.45,25.37,13.87,13.95a1.726,1.726,0,0,0,2.45,0l24.27-24.41a1.75,1.75,0,0,0,0-2.47,1.726,1.726,0,0,0-2.45,0l-23.05,23.18-12.64-12.72a1.726,1.726,0,0,0-2.45,0A1.75,1.75,0,0,0,1032.51,1362.28Z" />
    </symbol>

    <!-- Work Icons -->

    <symbol id="icon-tab-milestones" viewBox="0 0 32 32">
      <path d="M311.237,500.7v-0.045a0.04,0.04,0,0,0-.022.022,0.959,0.959,0,0,0-.18.18l-0.449.449-0.27.248-1.078,1.1q-2.2,2.2-4.4,4.4l-1.482,1.461h-0.045v0.022h-0.045v0.023H303.2v0.022h-0.09v0.023a0.67,0.67,0,0,1-.449-0.09h-0.045l-0.023-.045h-0.045l-0.09-.112-0.067-.045v-0.045h-0.022l-0.045-.135H302.3a1.136,1.136,0,0,1-.022-0.405H302.3v-0.09h0.023c0.007-.029.015-0.059,0.022-0.089h0.023v-0.045l0.045-.023v-0.045l1.976-1.954,7.569-7.6L310.047,496l-0.449-.45a0.563,0.563,0,0,0-.225-0.2,0.989,0.989,0,0,1-.2.225l-0.314.314-0.27.292-0.809.787q-1.728,1.741-3.458,3.482l-0.629.607-0.18.2h-0.045l-0.067.09h-0.045l-0.023.045h-0.045v0.023h-0.067v0.022a0.911,0.911,0,0,1-.494,0v-0.022l-0.09-.023v-0.022H302.59l-0.022-.045h-0.045l-0.023-.045-0.089-.067v-0.046l-0.045-.022a1.042,1.042,0,0,1-.09-0.562H302.3v-0.067h0.023v-0.068a1.74,1.74,0,0,1,.382-0.4l0.786-.809,4.4-4.381,1.1-1.124a0.953,0.953,0,0,1,.562-0.112v0.022h0.067v0.023h0.068v0.022h0.044v0.023h0.045a1.451,1.451,0,0,1,.225.225l0.09,0.067q0.191,0.2.382,0.4l1.729,1.708,0.539,0.539a0.645,0.645,0,0,0,.247.225l4.919-4.943,1.482-1.461V478.5h0.023c0.007-.045.015-0.09,0.022-0.134h0.023v-0.046h0.022v-0.045H319.5v-0.044h0.022a0.249,0.249,0,0,0,.067-0.113,0.178,0.178,0,0,0,.09-0.045v-0.022h0.045L319.75,478H319.8v-0.022l0.134-.023v-0.023h0.158v-0.022a0.037,0.037,0,0,1,.044.022h0.158v0.023h0.067v0.023H320.4V478h0.045v0.022h0.045v0.023h0.067v0.022l0.09,0.023v0.022l0.2,0.068v0.022H320.9v0.023l0.135,0.044V478.3H321.1v0.022h0.045v0.023h0.045v0.023l0.135,0.044v0.023h0.067v0.022h0.045v0.023h0.045V478.5l0.135,0.045v0.023l0.112,0.022v0.023l0.135,0.045v0.022h0.067V478.7h0.045v0.022h0.045v0.022l0.135,0.045v0.023h0.067v0.022h0.045v0.023L322.4,478.9v0.022h0.067v0.023l0.09,0.022v0.023l0.09,0.022v0.022h0.045v0.023h0.067v0.022H322.8V479.1h0.045v0.022l0.135,0.045v0.023h0.067v0.022H323.1v0.023l0.135,0.045v0.022H323.3v0.022h0.045v0.023h0.045v0.023l0.135,0.045v0.022h0.067v0.022h0.045v0.023h0.045v0.022l0.135,0.045v0.023l0.112,0.022v0.023l0.135,0.045v0.022h0.067v0.023h0.045v0.022h0.045v0.023l0.135,0.044v0.023l0.2,0.067v0.023H324.6v0.022h0.067v0.023h0.045v0.022h0.045V480l0.135,0.045v0.022h0.067v0.022h0.045v0.023h0.045v0.022l0.135,0.046v0.022h0.067v0.022H325.3v0.023l0.135,0.045v0.022H325.5v0.023h0.045v0.022h0.045v0.023l0.135,0.045v0.022h0.067v0.023h0.045V480.5h0.045v0.023l0.135,0.044v0.023h0.067v0.022l0.135,0.045v0.023h0.045V480.7h0.067v0.023l0.135,0.045v0.022h0.045v0.022h0.045v0.023h0.067v0.023h0.045v0.022h0.045V480.9h0.045v0.023H326.8v0.022h0.045v0.023h0.045v0.022h0.045l0.112,0.135,0.068,0.045v0.045h0.022a0.945,0.945,0,0,1,.09.517h-0.023v0.09h-0.022v0.044h-0.023c-0.015.046-.03,0.09-0.044,0.135l-0.045.023-0.135.157-0.135.045v0.023h-0.045v0.022H326.69V482.3h-0.045v0.022h-0.068v0.022h-0.044v0.023h-0.068v0.022H326.42v0.023h-0.067v0.022h-0.045v0.023h-0.067v0.022H326.2V482.5h-0.068v0.022h-0.045v0.023l-0.134.022v0.023H325.9v0.022h-0.068v0.023h-0.045v0.022l-0.112.022V482.7h-0.067v0.022h-0.045v0.023H325.5v0.022h-0.045v0.023h-0.067v0.022h-0.045v0.023l-0.135.022v0.023h-0.045V482.9H325.1v0.023H325.05v0.022h-0.067v0.023h-0.045v0.022l-0.112.023v0.022h-0.068v0.022h-0.045v0.023l-0.135.022v0.023h-0.044v0.022h-0.068v0.023h-0.045v0.022h-0.067v0.023h-0.045v0.022h-0.067v0.023H324.2v0.022l-0.113.023v0.022h-0.067v0.023h-0.045v0.022l-0.135.022v0.023h-0.045v0.022h-0.067v0.023H323.68v0.022l-0.112.023v0.022H323.5v0.023h-0.044v0.022h-0.068V483.6h-0.045v0.022h-0.067v0.023h-0.045v0.022l-0.135.023v0.022h-0.045v0.022h-0.067v0.023h-0.045v0.022l-0.112.023v0.022h-0.068v0.023h-0.045v0.022h-0.067v0.023H322.6v0.022h-0.067v0.023H322.49v0.022h-0.068v0.023h-0.045V484l-0.134.023v0.022H322.2v0.023H322.13v0.022h-0.045v0.023l-0.112.022v0.022h-0.067v0.023h-0.045V484.2h-0.068v0.023h-0.045v0.022h-0.067v0.023h-0.045v0.022l-0.134.023v0.022l-0.113.023v0.022h-0.045v0.023h-0.067v0.022h-0.045v0.023l-0.4.134a0.794,0.794,0,0,0-.023.36v5.527l4.784,4.764,1.011,1.033,0.18,0.158,0.426,0.449h0.045a1.5,1.5,0,0,1,.27-0.27l0.382-.4,0.179-.157,1.281-1.3,0.539-.516a3.4,3.4,0,0,1,.494-0.472l0.022-.045h0.045v-0.023h0.045v-0.022h0.067a0.623,0.623,0,0,1,.36-0.045,1.366,1.366,0,0,1,.606.449l0.112,0.09,0.539,0.562,1.034,1.011,1.617,1.64,1.8,1.775,0.764,0.787a0.981,0.981,0,0,1,.494,1.011,1,1,0,0,1-.045.179l-0.045.023v0.045l-0.067.045-0.09.112-0.09.023v0.022l-0.089.023v0.022H337.4v0.023a1.089,1.089,0,0,1-.427-0.023v-0.022h-0.067a1.9,1.9,0,0,1-.4-0.382l-0.719-.7-3.189-3.213-0.427-.405c-0.284-.291-0.569-0.584-0.854-0.875l-0.134-.113-0.36-.382h-0.045a1.5,1.5,0,0,1-.269.27v0.022l-0.584.562-0.27.292-0.875.854-0.382.382a0.839,0.839,0,0,1-.158.157,0.038,0.038,0,0,0,.023.022,1.381,1.381,0,0,0,.247.248l0.045,0.067q0.236,0.225.472,0.449,0.178,0.192.359,0.382l1.28,1.259,5.3,5.3,1.886,1.91c0.008,0.038.015,0.075,0.023,0.112H337.9v0.046h0.023v0.134h0.022v0.158H337.92v0.112H337.9v0.067h-0.022c-0.008.03-.015,0.06-0.023,0.09H337.83v0.045l-0.068.045v0.045l-0.044.023v0.022a0.744,0.744,0,0,1-.607.157H337v-0.022h-0.045v-0.023l-0.135-.044a2.5,2.5,0,0,1-.337-0.338l-0.157-.134-0.606-.63-4.919-4.9-1.146-1.168-0.247-.225-0.314-.315c-0.045-.044-0.072-0.128-0.135-0.089a0.882,0.882,0,0,0-.269.135l-0.135.044V500.9l-0.09.022v0.023l-0.09.022v0.023l-0.09.022v0.023h-0.045v0.022H328.2v0.023H328.15V501.1h-0.045v0.022H328.06v0.023h-0.045v0.022H327.97v0.023h-0.045v0.023H327.88v0.022h-0.045v0.022H327.79v0.023h-0.045V501.3H327.7v0.023h-0.044v0.022h-0.045v0.023h-0.045v0.022h-0.045v0.023h-0.045v0.022h-0.045v0.023l-0.135.045v0.022l-0.135.045V501.6l-0.089.023v0.022l-0.09.023v0.022h-0.045v0.023h-0.045v0.022h-0.045v0.023H326.8v0.022h-0.045V501.8h-0.045v0.022h-0.045v0.022h-0.045v0.023h-0.045v0.023h-0.044v0.022l-0.09.022v0.023l-0.09.022V502l-0.09.022v0.023h-0.045v0.022h-0.045v0.023h-0.045v0.022h-0.045v0.023l-0.134.045a0.606,0.606,0,0,1-.247.112,0.494,0.494,0,0,0-.18-0.135l-0.045-.067h-0.045l-0.045-.068h-0.045l-0.045-.067h-0.045l-0.045-.067h-0.045c-0.014-.023-0.029-0.046-0.044-0.068h-0.045l-0.045-.067h-0.045l-0.045-.068h-0.045l-0.045-.067H324.8l-0.045-.067h-0.045l-0.045-.068h-0.045l-0.045-.067h-0.044l-0.045-.068h-0.045l-0.023-.045-0.067-.022-0.045-.067h-0.045c-0.007-.016-0.015-0.03-0.022-0.046l-0.068-.022-0.045-.067h-0.045l-0.045-.068H324l-0.045-.067H323.9l-0.045-.068h-0.045l-0.045-.067h-0.045l-0.045-.067h-0.045l-0.045-.068h-0.045l-0.045-.067h-0.044l-0.045-.068h-0.045l-0.045-.067h-0.045l-0.045-.067h-0.045l-0.045-.068H323.1l-0.022-.045a0.28,0.28,0,0,0-.157-0.067,0.514,0.514,0,0,1-.18.135l-0.045.067h-0.045l-0.045.068h-0.045l-0.045.067h-0.045l-0.045.067h-0.045c-0.015.023-.03,0.045-0.044,0.068h-0.045l-0.023.045-0.067.022-0.045.068h-0.045l-0.045.067h-0.045l-0.045.067h-0.045l-0.045.068h-0.045l-0.022.045-0.068.022-0.044.067h-0.045l-0.023.046-0.067.022-0.045.067h-0.045l-0.045.068h-0.045l-0.045.067H321.3l-0.045.068h-0.045l-0.044.067H321.12l-0.045.067H321.03l-0.045.068H320.94l-0.045.067H320.85l-0.045.067H320.76l-0.045.068H320.67l-0.044.067h-0.045l-0.045.068h-0.045l-0.045.067H320.4l-0.045.068h-0.045l-0.045.067a0.463,0.463,0,0,0-.157.112,0.04,0.04,0,0,1-.022-0.022,0.187,0.187,0,0,1-.045-0.045H320l-0.045-.067h-0.045l-0.045-.068h-0.045l-0.045-.067h-0.045l-0.045-.068h-0.045l-0.045-.067h-0.045l-0.044-.067h-0.045l-0.045-.068h-0.045l-0.045-.067h-0.045l-0.045-.068h-0.045l-0.045-.067H319.1l-0.045-.067h-0.045l-0.044-.068h-0.045l-0.045-.067h-0.045l-0.023-.045-0.067-.023-0.045-.067h-0.045l-0.022-.045-0.068-.022-0.045-.068h-0.045l-0.044-.067H318.38l-0.045-.068H318.29l-0.045-.067H318.2l-0.045-.068H318.11l-0.045-.067H318.02L318,500.764l-0.068-.022-0.045-.068h-0.044l-0.045-.067h-0.045l-0.045-.068h-0.045l-0.045-.067h-0.045l-0.045-.067h-0.045l-0.045-.068h-0.045l-0.022-.045a0.28,0.28,0,0,0-.157-0.067,0.506,0.506,0,0,1-.18.135l-0.045.067h-0.045l-0.045.068h-0.045l-0.045.067h-0.045l-0.045.067h-0.044l-0.045.068h-0.045l-0.045.067h-0.045l-0.045.068H316.4l-0.045.067h-0.045l-0.045.067h-0.045l-0.045.068h-0.044l-0.045.067h-0.045l-0.045.067h-0.045l-0.023.046-0.067.022-0.045.067h-0.045l-0.022.045-0.068.023-0.045.067H315.6l-0.045.068h-0.045l-0.045.067h-0.045l-0.045.067h-0.045l-0.045.068h-0.045l-0.045.067h-0.045l-0.045.067h-0.044l-0.045.068h-0.045l-0.045.067h-0.045l-0.045.068h-0.045l-0.045.067H314.7l-0.045.068h-0.045l-0.022.045a0.28,0.28,0,0,1-.157.067V502.27l-0.09-.023v-0.022h-0.045V502.2h-0.045V502.18H314.2v-0.023h-0.045v-0.022l-0.135-.045v-0.023l-0.089-.022v-0.023l-0.09-.022v-0.023H313.8v-0.022h-0.045v-0.023h-0.045V501.91h-0.045v-0.022h-0.045v-0.023l-0.135-.045V501.8h-0.045v-0.023h-0.045v-0.022h-0.045V501.73H313.3v-0.022h-0.045v-0.023h-0.045v-0.022h-0.045V501.64h-0.045v-0.022h-0.045V501.6h-0.045v-0.022h-0.045v-0.022l-0.135-.045v-0.023l-0.134-.045v-0.022l-0.09-.023v-0.022l-0.09-.023v-0.022H312.5V501.3H312.45v-0.022H312.4v-0.023H312.36v-0.022h-0.045v-0.022H312.27v-0.023h-0.044v-0.023h-0.045v-0.022h-0.045v-0.023h-0.045V501.1l-0.09-.022v-0.023l-0.09-.022v-0.023l-0.09-.022v-0.023h-0.045v-0.022h-0.045v-0.023h-0.045V500.9h-0.044v-0.023l-0.135-.044v-0.023h-0.045A0.8,0.8,0,0,0,311.237,500.7Zm9.568-20.941v3.3a0.477,0.477,0,0,0,.18-0.067h0.067v-0.022H321.1v-0.023h0.068v-0.022h0.044V482.9h0.068v-0.022h0.045v-0.023l0.112-.022v-0.023H321.5v-0.022h0.044v-0.023h0.068v-0.022h0.045v-0.023l0.134-.022v-0.023l0.113-.022v-0.022h0.045v-0.023h0.067c0.529-.236,1.109-0.439,1.64-0.674h0.067v-0.022h0.045V481.89h0.067v-0.023h0.045v-0.022l0.113-.022V481.8h0.067v-0.022h0.045v-0.023h0.067v-0.022h0.045V481.71l0.135-.022v-0.023H324.4v-0.022h0.067V481.62h0.045V481.6h0.067v-0.022l0.113-.023V481.53Zm-8.512,19.862a0.543,0.543,0,0,1,.18.09l0.089,0.022v0.023h0.045v0.022h0.045V499.8H312.7v0.022h0.045v0.023h0.045v0.022h0.045v0.023h0.045v0.022h0.045v0.023h0.045v0.022h0.045v0.023h0.045V500H313.1v0.023h0.045v0.022h0.045v0.022c0.045,0.016.09,0.03,0.135,0.045v0.023l0.135,0.045V500.2l0.09,0.023v0.022l0.09,0.023v0.022h0.044v0.023h0.045v0.022h0.045v0.023h0.045v0.022l0.135,0.045v0.022H314v0.023h0.045V500.5h0.045v0.022h0.045v0.022h0.045v0.023h0.044v0.022h0.045v0.023l0.068,0.022v-0.022l0.09-.045,0.022-.045h0.045l0.045-.068h0.045l0.045-.067h0.045l0.045-.067h0.044l0.045-.068h0.045l0.045-.067h0.045l0.045-.068h0.045l0.045-.067h0.045l0.045-.067h0.045l0.045-.068H315.3l0.023-.045,0.067-.022,0.045-.068h0.045l0.023-.045,0.067-.022,0.045-.067h0.045l0.045-.068h0.045l0.045-.067h0.045l0.045-.067h0.044l0.045-.068h0.045l0.045-.067h0.045l0.045-.068H316.2l0.045-.067h0.045l0.045-.068h0.045l0.045-.067h0.045l0.044-.067h0.045l0.045-.068h0.045l0.045-.067h0.045l0.045-.068h0.045l0.022-.045,0.068-.022,0.045-.067h0.045l0.044-.068a0.481,0.481,0,0,0,.18-0.135,0.04,0.04,0,0,1,.023.023l0.089,0.045,0.023,0.045h0.045l0.045,0.067H317.5l0.045,0.067h0.044l0.045,0.068h0.045l0.045,0.067h0.045l0.045,0.068h0.045l0.045,0.067h0.045L318,499.011h0.045l0.045,0.068h0.044l0.045,0.067h0.045l0.045,0.068h0.045l0.045,0.067H318.4l0.045,0.067h0.045l0.045,0.068h0.045l0.022,0.045,0.068,0.022,0.045,0.068h0.044l0.023,0.045,0.067,0.022,0.045,0.068h0.045l0.045,0.067h0.045l0.045,0.067h0.045l0.045,0.068h0.045l0.045,0.067H319.3l0.045,0.068h0.045c0.008,0.015.015,0.03,0.023,0.044l0.067,0.023,0.045,0.067h0.045l0.045,0.068h0.045l0.045,0.067h0.045l0.045,0.068h0.044l0.045,0.067h0.045l0.023,0.045,0.067,0.023v0.022a0.168,0.168,0,0,0,.112.045,0.494,0.494,0,0,1,.158-0.113l0.045-.067h0.045l0.044-.067h0.045l0.045-.068h0.045l0.045-.067h0.045l0.045-.068h0.045l0.045-.067h0.045L320.85,500l0.068-.022,0.044-.068h0.045l0.045-.067H321.1l0.045-.068h0.045l0.045-.067h0.045l0.022-.045,0.068-.022,0.045-.068h0.045l0.022-.045,0.067-.022,0.045-.067h0.045l0.045-.068h0.045l0.045-.067h0.045l0.045-.068h0.045l0.045-.067H322l0.045-.068h0.044l0.045-.067h0.045l0.045-.067h0.045l0.045-.068h0.045l0.045-.067h0.045l0.045-.068h0.045l0.045-.067h0.044l0.045-.067h0.045l0.045-.068a0.489,0.489,0,0,0,.18-0.135,0.039,0.039,0,0,1,.022.023l0.09,0.045,0.023,0.045h0.045l0.044,0.067h0.045l0.045,0.067H323.3l0.045,0.068h0.045l0.045,0.067h0.045l0.045,0.068h0.045l0.022,0.045,0.068,0.022,0.045,0.067h0.045c0.014,0.023.029,0.045,0.044,0.068h0.045l0.045,0.067h0.045l0.045,0.068h0.045l0.045,0.067h0.045l0.045,0.067H324.2l0.045,0.068h0.045l0.044,0.067h0.045l0.023,0.045,0.067,0.023,0.045,0.067h0.045c0.008,0.015.015,0.03,0.022,0.045l0.068,0.023,0.045,0.067h0.045l0.045,0.067h0.045l0.045,0.068h0.044l0.045,0.067h0.045l0.045,0.068H325.1l0.045,0.067h0.045l0.022,0.045,0.068,0.022,0.045,0.068h0.045l0.045,0.067h0.044l0.045,0.068h0.045l0.045,0.067h0.045l0.045,0.068h0.045l0.022,0.044,0.068,0.023v0.022a0.178,0.178,0,0,0,.09.045,0.184,0.184,0,0,1,.089-0.045v-0.022h0.045v-0.023h0.045v-0.022h0.045V500.5h0.045v-0.023h0.045v-0.023l0.09-.022v-0.022l0.09-.023V500.36h0.045v-0.023h0.045v-0.022h0.045v-0.023h0.044V500.27h0.045v-0.023h0.045v-0.022h0.045V500.2h0.045V500.18H326.8v-0.023l0.135-.045V500.09l0.135-.045v-0.022l0.089-.023v-0.022l0.09-.023v-0.022H327.3V499.91h0.045v-0.022h0.045v-0.023h0.045v-0.022h0.045V499.82h0.045V499.8h0.045v-0.023h0.045v-0.022h0.045V499.73a0.916,0.916,0,0,0,.269-0.134,1.349,1.349,0,0,1-.247-0.248l-0.045-.022-0.494-.517-0.27-.247-0.089-.112h-0.045l-0.023-.068-0.09-.067-0.2-.225-0.224-.2-0.764-.786-1.617-1.6-2.044-2.067-0.988-.966-0.157-.18-0.36-.359a0.9,0.9,0,0,1-.157-0.157h-0.022V491.8a0.9,0.9,0,0,0-.18.18l-0.382.382-0.225.2-1.033,1.056-2.178,2.157-1.82,1.843a6.365,6.365,0,0,0-.718.741h-0.023l-0.09.112h-0.045l-0.022.045h-0.023l-0.494.517-0.381.382A0.483,0.483,0,0,0,312.293,499.618Z" transform="translate(-302.281 -477.906)"/>
    </symbol>
    
    <symbol id="icon-tab-tasks" viewBox="0 0 32 32">
      <path d="M530.567,510h-21.3a0.858,0.858,0,0,1-.845-0.87V480.347a0.857,0.857,0,0,1,.845-0.869h7.692v-0.435a2.959,2.959,0,1,1,5.916,0v0.435h7.692a0.857,0.857,0,0,1,.845.869V509.13A0.858,0.858,0,0,1,530.567,510Zm-9.382-30.957a1.268,1.268,0,1,0-2.536,0h0v0.435h2.536v-0.435Zm2.958,2.174h-8.452v2.174h8.452v-2.174Zm5.579,0h-3.888v3.044a0.858,0.858,0,0,1-.845.869H514.845a0.858,0.858,0,0,1-.845-0.869v-3.044h-3.888v27.044h19.61V481.217ZM513.245,490.3l1.389,1.429,3.227-3.32a0.828,0.828,0,0,1,1.2,0,0.885,0.885,0,0,1,0,1.229l-3.824,3.935a0.829,0.829,0,0,1-1.2,0l-1.986-2.043a0.888,0.888,0,0,1,0-1.23A0.828,0.828,0,0,1,513.245,490.3Zm0,5.674,1.389,1.428,3.227-3.319a0.828,0.828,0,0,1,1.2,0,0.885,0.885,0,0,1,0,1.229l-3.824,3.935a0.829,0.829,0,0,1-1.2,0L512.05,497.2a0.888,0.888,0,0,1,0-1.23A0.828,0.828,0,0,1,513.245,495.972Zm0,5.674,1.389,1.428,3.227-3.32a0.829,0.829,0,0,1,1.2,0,0.886,0.886,0,0,1,0,1.23l-3.824,3.935a0.829,0.829,0,0,1-1.2,0l-1.986-2.043a0.888,0.888,0,0,1,0-1.23A0.828,0.828,0,0,1,513.245,501.646Zm7.6-10.646h6.17a0.87,0.87,0,0,1,0,1.739h-6.17A0.87,0.87,0,0,1,520.847,491Zm0,5.652h6.17a0.87,0.87,0,0,1,0,1.739h-6.17A0.87,0.87,0,0,1,520.847,496.652Zm0,5.739h6.17a0.87,0.87,0,0,1,0,1.739h-6.17A0.87,0.87,0,0,1,520.847,502.391Z" transform="translate(-508.406 -476)"/>
    </symbol>
    
    <symbol id="icon-tab-hourly" viewBox="0 0 32 32">
      <path d="M710.32,509a16,16,0,1,1,15.993-16A16.005,16.005,0,0,1,710.32,509Zm0-29.76A13.761,13.761,0,1,0,724.076,493,13.76,13.76,0,0,0,710.32,479.239Zm4.585,15.64h-5.331a1.121,1.121,0,0,1-1.132-1.133v-7.71a1.133,1.133,0,1,1,2.265,0v6.577h4.2A1.133,1.133,0,1,1,714.905,494.879Z" transform="translate(-694.313 -477)"/>
    </symbol>
    
    <symbol id="icon-tab-recurring" viewBox="0 0 32 32">
      <path d="M998.816,480.812h-4.061v-1.875a0.938,0.938,0,0,0-1.875,0v1.875h-5.622v-1.875a0.938,0.938,0,0,0-1.875,0v1.875h-5.622v-1.875a0.938,0.938,0,0,0-1.875,0v1.875h-4.06a2.5,2.5,0,0,0-2.5,2.5V505.5a2.5,2.5,0,0,0,2.5,2.5h24.99a2.493,2.493,0,0,0,2.494-2.5V483.312A2.493,2.493,0,0,0,998.816,480.812ZM999.44,505.5a0.626,0.626,0,0,1-.624.626h-24.99a0.626,0.626,0,0,1-.625-0.626V483.312a0.626,0.626,0,0,1,.625-0.625h4.06v1.875a0.938,0.938,0,1,0,1.875,0v-1.875h5.622v1.875a0.938,0.938,0,1,0,1.875,0v-1.875h5.622v1.875a0.938,0.938,0,1,0,1.875,0v-1.875h4.061a0.626,0.626,0,0,1,.624.625V505.5ZM977.886,489.25h3.749v2.812h-3.749V489.25Zm0,4.687h3.749v2.813h-3.749v-2.813Zm0,4.688h3.749v2.812h-3.749v-2.812Zm6.56,0H988.2v2.812h-3.749v-2.812Zm0-4.688H988.2v2.813h-3.749v-2.813Zm0-4.687H988.2v2.812h-3.749V489.25Zm6.56,9.375h3.749v2.812h-3.749v-2.812Zm0-4.688h3.749v2.813h-3.749v-2.813Zm0-4.687h3.749v2.812h-3.749V489.25Z" transform="translate(-971.313 -478)"/>
    </symbol>
    
  </defs>
</svg>
